<?xml version="1.0" encoding="utf-8"?>
<!-- Generator: Adobe Illustrator 25.1.0, SVG Export Plug-In . SVG Version: 6.00 Build 0)  -->
<svg version="1.1" id="Layer_1" xmlns="http://www.w3.org/2000/svg" xmlns:xlink="http://www.w3.org/1999/xlink" x="0px" y="0px"
	 viewBox="0 0 400 400" style="enable-background:new 0 0 400 400;" xml:space="preserve">
<style type="text/css">
	.st0{fill:#634842;}
	.st1{fill:#FFE1E1;}
	.st2{fill:#6D4F4A;}
</style>
<g>
	<circle class="st0" cx="200" cy="200" r="156.85"/>
	<circle class="st1" cx="200" cy="200" r="149.17"/>
	<circle class="st0" cx="200" cy="200" r="147.23"/>
	<g>
		<path class="st1" d="M197.86,344.1c-1.47-0.02-2.93-0.07-4.39-0.13l0.05-1.1c1.45,0.06,2.9,0.11,4.36,0.13L197.86,344.1z
			 M202.26,344.1l-0.02-1.1c1.46-0.02,2.91-0.07,4.36-0.13l0.05,1.1C205.19,344.03,203.73,344.08,202.26,344.1z M189.08,343.71
			c-1.46-0.11-2.92-0.24-4.38-0.39l0.11-1.09c1.44,0.15,2.89,0.28,4.34,0.39L189.08,343.71z M211.04,343.7l-0.08-1.09
			c1.45-0.11,2.9-0.24,4.34-0.4l0.12,1.09C213.96,343.46,212.5,343.59,211.04,343.7z M180.34,342.79c-1.46-0.2-2.9-0.42-4.34-0.66
			l0.18-1.08c1.43,0.24,2.87,0.46,4.31,0.65L180.34,342.79z M219.77,342.77l-0.15-1.09c1.44-0.2,2.88-0.42,4.31-0.66l0.18,1.08
			C222.68,342.35,221.23,342.57,219.77,342.77z M171.68,341.34c-1.44-0.29-2.87-0.6-4.3-0.92l0.25-1.07
			c1.41,0.33,2.83,0.63,4.26,0.92L171.68,341.34z M228.44,341.31l-0.22-1.08c1.43-0.29,2.85-0.59,4.26-0.92l0.25,1.07
			C231.31,340.71,229.88,341.02,228.44,341.31z M163.11,339.35c-1.42-0.37-2.83-0.77-4.23-1.19l0.31-1.05
			c1.39,0.41,2.79,0.81,4.2,1.18L163.11,339.35z M237,339.32l-0.28-1.06c1.41-0.37,2.81-0.77,4.2-1.18l0.31,1.05
			C239.83,338.55,238.42,338.95,237,339.32z M154.69,336.85c-1.4-0.46-2.79-0.95-4.16-1.45l0.38-1.03c1.37,0.5,2.75,0.98,4.13,1.44
			L154.69,336.85z M245.42,336.81l-0.35-1.04c1.38-0.46,2.75-0.94,4.12-1.44l0.38,1.03C248.2,335.87,246.82,336.35,245.42,336.81z
			 M146.41,333.82c-1.37-0.55-2.72-1.11-4.06-1.7l0.44-1c1.33,0.58,2.68,1.15,4.03,1.69L146.41,333.82z M253.68,333.79l-0.41-1.02
			c1.35-0.54,2.68-1.1,4.01-1.68l0.44,1C256.38,332.68,255.03,333.25,253.68,333.79z M138.34,330.3c-1.33-0.63-2.64-1.28-3.95-1.95
			l0.5-0.98c1.3,0.66,2.6,1.31,3.92,1.93L138.34,330.3z M261.7,330.28l-0.47-0.99c1.31-0.62,2.61-1.26,3.9-1.92l0.5,0.98
			C264.34,329,263.03,329.65,261.7,330.28z M130.5,326.28c-1.29-0.71-2.56-1.44-3.82-2.18l0.56-0.94c1.25,0.74,2.52,1.46,3.79,2.17
			L130.5,326.28z M269.51,326.28l-0.53-0.96c1.27-0.7,2.53-1.42,3.78-2.16l0.56,0.94C272.06,324.85,270.79,325.57,269.51,326.28z
			 M277.05,321.81l-0.59-0.93c1.23-0.78,2.44-1.57,3.64-2.39l0.62,0.91C279.52,320.22,278.29,321.03,277.05,321.81z M122.93,321.8
			c-1.24-0.79-2.47-1.59-3.68-2.41l0.62-0.91c1.2,0.82,2.42,1.61,3.65,2.39L122.93,321.8z M284.32,316.89l-0.64-0.89
			c1.18-0.85,2.34-1.72,3.49-2.6l0.67,0.87C286.68,315.16,285.51,316.03,284.32,316.89z M115.64,316.86
			c-1.19-0.86-2.36-1.74-3.52-2.63l0.67-0.87c1.15,0.89,2.32,1.76,3.5,2.61L115.64,316.86z M291.28,311.53l-0.7-0.85
			c1.12-0.92,2.23-1.86,3.33-2.81l0.72,0.83C293.53,309.66,292.41,310.6,291.28,311.53z M108.68,311.49
			c-1.13-0.93-2.25-1.88-3.36-2.84l0.72-0.83c1.1,0.96,2.21,1.9,3.33,2.82L108.68,311.49z M297.9,305.76l-0.75-0.8
			c1.07-0.99,2.12-1.99,3.15-3.01l0.77,0.78C300.04,303.76,298.98,304.77,297.9,305.76z M102.05,305.72c-1.08-1-2.13-2.01-3.18-3.04
			l0.77-0.78c1.04,1.02,2.09,2.03,3.15,3.01L102.05,305.72z M304.16,299.6l-0.79-0.76c1.01-1.05,1.99-2.12,2.97-3.2l0.82,0.73
			C306.17,297.47,305.18,298.54,304.16,299.6z M95.79,299.55c-1.01-1.06-2.01-2.13-2.99-3.22l0.82-0.73
			c0.97,1.08,1.96,2.15,2.96,3.2L95.79,299.55z M310.05,293.07l-0.84-0.71c0.94-1.11,1.86-2.23,2.77-3.37l0.86,0.68
			C311.92,290.81,310.99,291.95,310.05,293.07z M89.92,293.02c-0.95-1.12-1.87-2.25-2.79-3.4l0.86-0.68
			c0.9,1.14,1.82,2.26,2.76,3.37L89.92,293.02z M315.52,286.18l-0.88-0.66c0.87-1.17,1.72-2.34,2.56-3.54l0.9,0.63
			C317.26,283.82,316.4,285.01,315.52,286.18z M84.45,286.14c-0.88-1.17-1.73-2.36-2.57-3.56l0.9-0.63
			c0.83,1.19,1.68,2.37,2.55,3.53L84.45,286.14z M320.57,278.98l-0.92-0.6c0.8-1.22,1.58-2.44,2.34-3.69l0.94,0.57
			C322.16,276.52,321.37,277.75,320.57,278.98z M79.42,278.95c-0.8-1.22-1.59-2.46-2.35-3.7l0.94-0.57
			c0.76,1.24,1.54,2.46,2.33,3.68L79.42,278.95z M325.17,271.48l-0.95-0.54c0.72-1.26,1.43-2.54,2.11-3.82l0.97,0.52
			C326.61,268.92,325.9,270.21,325.17,271.48z M74.83,271.48c-0.73-1.27-1.43-2.55-2.12-3.84l0.97-0.51
			c0.68,1.28,1.38,2.55,2.1,3.81L74.83,271.48z M70.71,263.74c-0.65-1.31-1.27-2.63-1.88-3.96l1-0.46c0.6,1.32,1.23,2.63,1.87,3.93
			L70.71,263.74z M329.31,263.71l-0.98-0.49c0.64-1.3,1.27-2.62,1.87-3.95l1,0.46C330.59,261.06,329.96,262.39,329.31,263.71z
			 M67.07,255.76c-0.56-1.34-1.11-2.7-1.63-4.06l1.02-0.39c0.52,1.35,1.06,2.7,1.62,4.03L67.07,255.76z M332.96,255.69l-1.01-0.42
			c0.56-1.34,1.11-2.7,1.63-4.06l1.02,0.39C334.08,252.97,333.53,254.34,332.96,255.69z M63.92,247.57
			c-0.48-1.38-0.95-2.77-1.39-4.17l1.05-0.33c0.44,1.39,0.9,2.77,1.38,4.14L63.92,247.57z M336.12,247.46l-1.04-0.36
			c0.48-1.38,0.94-2.76,1.38-4.15l1.05,0.33C337.07,244.68,336.6,246.08,336.12,247.46z M61.28,239.19
			c-0.4-1.41-0.77-2.82-1.13-4.25l1.07-0.27c0.35,1.41,0.72,2.82,1.12,4.22L61.28,239.19z M338.76,239.06l-1.06-0.3
			c0.39-1.4,0.77-2.8,1.12-4.22l1.06,0.26C339.53,236.24,339.16,237.66,338.76,239.06z M59.15,230.66c-0.31-1.43-0.6-2.87-0.86-4.31
			l1.08-0.2c0.26,1.43,0.55,2.86,0.86,4.28L59.15,230.66z M340.88,230.53l-1.07-0.23c0.31-1.42,0.59-2.84,0.86-4.28l1.08,0.2
			C341.47,227.67,341.18,229.1,340.88,230.53z M57.55,222.02c-0.22-1.44-0.42-2.89-0.6-4.35l1.09-0.13
			c0.18,1.45,0.38,2.89,0.59,4.32L57.55,222.02z M342.47,221.89l-1.08-0.16c0.22-1.43,0.41-2.87,0.59-4.32l1.09,0.13
			C342.88,218.99,342.69,220.45,342.47,221.89z M56.49,213.3c-0.13-1.45-0.24-2.92-0.33-4.38l1.09-0.07
			c0.09,1.46,0.2,2.91,0.33,4.35L56.49,213.3z M343.52,213.16l-1.09-0.1c0.13-1.44,0.24-2.89,0.33-4.35l1.1,0.07
			C343.77,210.25,343.66,211.71,343.52,213.16z M55.95,204.53c-0.04-1.46-0.07-2.92-0.07-4.39l1.1,0c0,1.46,0.02,2.91,0.07,4.36
			L55.95,204.53z M344.05,204.39l-1.1-0.03c0.04-1.45,0.06-2.9,0.06-4.36v-0.26h1.1V200C344.12,201.47,344.1,202.93,344.05,204.39z
			 M57.04,195.77l-1.1-0.03c0.04-1.47,0.11-2.93,0.19-4.39l1.1,0.07C57.15,192.86,57.08,194.31,57.04,195.77z M342.95,195.38
			c-0.05-1.46-0.11-2.91-0.2-4.36l1.09-0.07c0.09,1.46,0.16,2.92,0.21,4.39L342.95,195.38z M57.56,187.06l-1.09-0.1
			c0.13-1.46,0.28-2.92,0.46-4.37l1.09,0.13C57.84,184.17,57.69,185.61,57.56,187.06z M342.41,186.67c-0.13-1.45-0.29-2.9-0.47-4.34
			l1.09-0.13c0.18,1.45,0.34,2.91,0.47,4.37L342.41,186.67z M58.6,178.41l-1.08-0.16c0.22-1.45,0.46-2.9,0.72-4.33l1.08,0.2
			C59.06,175.53,58.82,176.97,58.6,178.41z M341.34,178.02c-0.22-1.44-0.47-2.87-0.73-4.3l1.08-0.2c0.27,1.44,0.51,2.88,0.74,4.33
			L341.34,178.02z M60.17,169.83l-1.07-0.23c0.31-1.44,0.64-2.86,0.99-4.28l1.06,0.26C60.8,166.99,60.47,168.4,60.17,169.83z
			 M339.75,169.44c-0.31-1.42-0.64-2.84-0.99-4.25l1.06-0.27c0.36,1.42,0.69,2.85,1,4.28L339.75,169.44z M62.26,161.36l-1.06-0.3
			c0.4-1.41,0.81-2.82,1.25-4.21l1.05,0.33C63.07,158.56,62.65,159.96,62.26,161.36z M337.63,160.98c-0.4-1.4-0.81-2.79-1.25-4.18
			l1.05-0.33c0.44,1.39,0.86,2.8,1.26,4.21L337.63,160.98z M64.87,153.02l-1.04-0.36c0.48-1.39,0.99-2.77,1.51-4.14l1.02,0.39
			C65.85,150.27,65.35,151.64,64.87,153.02z M335,152.67c-0.48-1.37-0.98-2.74-1.51-4.09l1.02-0.39c0.53,1.37,1.03,2.74,1.52,4.12
			L335,152.67z M68,144.86l-1.01-0.42c0.57-1.36,1.15-2.7,1.76-4.04l1,0.45C69.14,142.17,68.56,143.51,68,144.86z M331.87,144.54
			c-0.56-1.34-1.15-2.66-1.75-3.98l1-0.46c0.61,1.33,1.2,2.66,1.76,4.01L331.87,144.54z M71.62,136.9l-0.99-0.48
			c0.65-1.32,1.32-2.63,2.01-3.92l0.97,0.52C72.92,134.29,72.26,135.59,71.62,136.9z M328.25,136.63c-0.64-1.3-1.31-2.59-1.99-3.87
			l0.97-0.52c0.69,1.29,1.36,2.59,2.01,3.9L328.25,136.63z M75.72,129.18l-0.95-0.54c0.73-1.28,1.47-2.54,2.24-3.79l0.94,0.57
			C77.18,126.66,76.44,127.92,75.72,129.18z M324.16,128.96c-0.72-1.26-1.46-2.51-2.22-3.74l0.93-0.57c0.76,1.24,1.51,2.5,2.24,3.77
			L324.16,128.96z M80.28,121.73l-0.92-0.6c0.8-1.23,1.63-2.44,2.47-3.64l0.9,0.63C81.89,119.31,81.07,120.51,80.28,121.73z
			 M319.6,121.54c-0.8-1.21-1.61-2.41-2.45-3.6l0.9-0.63c0.84,1.2,1.66,2.41,2.47,3.63L319.6,121.54z M85.28,114.58l-0.88-0.66
			c0.88-1.18,1.77-2.34,2.68-3.49l0.86,0.68C87.04,112.26,86.15,113.41,85.28,114.58z M314.59,114.41
			c-0.87-1.16-1.76-2.31-2.66-3.45l0.86-0.68c0.91,1.14,1.81,2.3,2.68,3.48L314.59,114.41z M90.71,107.75l-0.84-0.71
			c0.95-1.12,1.91-2.22,2.89-3.31l0.82,0.73C92.6,105.54,91.65,106.63,90.71,107.75z M309.16,107.59c-0.94-1.11-1.9-2.2-2.87-3.28
			l0.82-0.73c0.98,1.09,1.94,2.19,2.89,3.31L309.16,107.59z M96.54,101.25l-0.79-0.76c1.01-1.06,2.04-2.1,3.08-3.13l0.77,0.78
			C98.56,99.17,97.54,100.2,96.54,101.25z M303.33,101.11c-1.01-1.05-2.03-2.09-3.06-3.1l0.77-0.78c1.04,1.03,2.07,2.07,3.09,3.13
			L303.33,101.11z M102.75,95.13l-0.75-0.8c1.07-1,2.16-1.97,3.26-2.94l0.72,0.83C104.89,93.17,103.81,94.14,102.75,95.13z
			 M297.11,95c-1.07-0.99-2.15-1.96-3.25-2.91l0.72-0.83c1.11,0.96,2.2,1.94,3.27,2.94L297.11,95z M109.32,89.4l-0.7-0.85
			c1.13-0.93,2.28-1.84,3.44-2.73l0.67,0.87C111.58,87.57,110.44,88.48,109.32,89.4z M290.53,89.27c-1.13-0.92-2.26-1.83-3.42-2.71
			l0.67-0.87c1.16,0.89,2.31,1.81,3.44,2.73L290.53,89.27z M116.21,84.08l-0.64-0.89c1.18-0.86,2.38-1.7,3.59-2.52l0.62,0.91
			C118.58,82.39,117.39,83.23,116.21,84.08z M283.61,83.95c-1.18-0.85-2.37-1.68-3.58-2.5l0.61-0.91c1.21,0.82,2.42,1.66,3.61,2.52
			L283.61,83.95z M123.42,79.19l-0.59-0.93c1.23-0.78,2.48-1.55,3.74-2.3l0.56,0.94C125.88,77.65,124.65,78.41,123.42,79.19z
			 M276.38,79.06c-1.23-0.78-2.47-1.54-3.73-2.28l0.56-0.94c1.26,0.75,2.52,1.51,3.75,2.3L276.38,79.06z M130.91,74.74l-0.53-0.96
			c1.28-0.71,2.57-1.39,3.87-2.06l0.5,0.98C133.46,73.36,132.18,74.04,130.91,74.74z M268.86,74.62c-1.27-0.7-2.56-1.38-3.86-2.05
			l0.5-0.98c1.31,0.67,2.6,1.36,3.89,2.06L268.86,74.62z M138.65,70.77l-0.47-0.99c1.32-0.63,2.65-1.23,3.99-1.82l0.44,1
			C141.27,69.55,139.96,70.15,138.65,70.77z M261.08,70.64c-1.32-0.62-2.64-1.23-3.98-1.81l0.44-1.01c1.35,0.59,2.68,1.2,4.01,1.82
			L261.08,70.64z M146.61,67.28l-0.41-1.02c1.36-0.55,2.72-1.07,4.1-1.58l0.38,1.03C149.31,66.21,147.96,66.73,146.61,67.28z
			 M253.06,67.15c-1.35-0.54-2.71-1.06-4.09-1.56l0.38-1.03c1.38,0.5,2.75,1.03,4.12,1.57L253.06,67.15z M154.8,64.27l-0.35-1.04
			c1.39-0.46,2.78-0.9,4.19-1.32l0.31,1.05C157.56,63.37,156.17,63.81,154.8,64.27z M244.84,64.15c-1.38-0.45-2.77-0.89-4.16-1.3
			l0.31-1.05c1.41,0.42,2.81,0.85,4.19,1.31L244.84,64.15z M163.15,61.77l-0.28-1.06c1.41-0.38,2.83-0.73,4.26-1.06l0.25,1.07
			C165.97,61.05,164.55,61.4,163.15,61.77z M236.48,61.67c-1.4-0.37-2.81-0.72-4.23-1.04l0.25-1.07c1.43,0.33,2.85,0.68,4.27,1.05
			L236.48,61.67z M171.65,59.79l-0.22-1.08c1.43-0.29,2.87-0.56,4.32-0.8l0.18,1.08C174.5,59.24,173.07,59.5,171.65,59.79z
			 M227.98,59.71c-1.42-0.28-2.85-0.54-4.29-0.78l0.18-1.08c1.45,0.24,2.89,0.5,4.32,0.79L227.98,59.71z M180.24,58.33l-0.15-1.09
			c1.45-0.2,2.9-0.38,4.36-0.53l0.12,1.09C183.12,57.96,181.68,58.13,180.24,58.33z M219.38,58.28c-1.44-0.2-2.88-0.37-4.33-0.52
			l0.11-1.09c1.46,0.15,2.92,0.33,4.36,0.52L219.38,58.28z M188.92,57.4l-0.08-1.09c1.46-0.11,2.92-0.2,4.39-0.27l0.05,1.1
			C191.81,57.2,190.36,57.29,188.92,57.4z M210.7,57.37c-1.45-0.11-2.9-0.19-4.35-0.26l0.05-1.1c1.47,0.06,2.93,0.15,4.39,0.26
			L210.7,57.37z M197.63,57l-0.02-1.1c1.46-0.02,2.93-0.03,4.39-0.01l-0.02,1.1C200.54,56.97,199.08,56.97,197.63,57z"/>
	</g>
	<g>
		<polygon class="st0" points="200,0.01 206.51,13.2 221.06,15.31 210.53,25.58 213.02,40.07 200,33.23 186.98,40.07 189.47,25.58 
			178.94,15.31 193.49,13.2 		"/>
		<polygon class="st0" points="265.26,22.01 269.74,31.07 279.75,32.53 272.51,39.59 274.21,49.55 265.26,44.85 256.31,49.55 
			258.02,39.59 250.78,32.53 260.79,31.07 		"/>
		<polygon class="st0" points="133.64,22.01 138.12,31.07 148.12,32.53 140.88,39.59 142.59,49.55 133.64,44.85 124.69,49.55 
			126.4,39.59 119.16,32.53 129.16,31.07 		"/>
		<polygon class="st0" points="74.68,52.99 79.16,62.06 89.17,63.52 81.92,70.57 83.63,80.54 74.68,75.84 65.73,80.54 67.44,70.57 
			60.2,63.52 70.21,62.06 		"/>
		<polygon class="st0" points="35.74,109.48 40.22,118.55 50.23,120 42.99,127.06 44.69,137.03 35.74,132.32 26.79,137.03 
			28.5,127.06 21.26,120 31.27,118.55 		"/>
		<polygon class="st0" points="19.48,168.99 23.96,178.06 33.97,179.51 26.73,186.57 28.43,196.54 19.48,191.83 10.53,196.54 
			12.24,186.57 5,179.51 15.01,178.06 		"/>
		<polygon class="st0" points="28.66,235.07 33.14,244.14 43.15,245.6 35.91,252.66 37.62,262.62 28.66,257.92 19.71,262.62 
			21.42,252.66 14.18,245.6 24.19,244.14 		"/>
		<polygon class="st0" points="64.71,304.18 69.19,313.24 79.19,314.7 71.95,321.76 73.66,331.73 64.71,327.02 55.76,331.73 
			57.47,321.76 50.23,314.7 60.23,313.24 		"/>
		<polygon class="st0" points="129.38,354.08 133.86,363.15 143.87,364.61 136.63,371.67 138.33,381.63 129.38,376.93 
			120.43,381.63 122.14,371.67 114.9,364.61 124.91,363.15 		"/>
		<polygon class="st0" points="271.43,354.08 275.9,363.15 285.91,364.61 278.67,371.67 280.38,381.63 271.43,376.93 262.48,381.63 
			264.19,371.67 256.95,364.61 266.95,363.15 		"/>
		<polygon class="st0" points="200,372.44 204.48,381.51 214.48,382.97 207.24,390.03 208.95,399.99 200,395.29 191.05,399.99 
			192.76,390.03 185.52,382.97 195.52,381.51 		"/>
		<polygon class="st0" points="333.36,304.18 337.83,313.24 347.84,314.7 340.6,321.76 342.31,331.73 333.36,327.02 324.41,331.73 
			326.12,321.76 318.88,314.7 328.88,313.24 		"/>
		<polygon class="st0" points="373.63,235.07 378.11,244.14 388.11,245.6 380.87,252.66 382.58,262.62 373.63,257.92 364.68,262.62 
			366.39,252.66 359.15,245.6 369.15,244.14 		"/>
		<polygon class="st0" points="380.52,168.99 384.99,178.06 395,179.51 387.76,186.57 389.47,196.54 380.52,191.83 371.57,196.54 
			373.28,186.57 366.03,179.51 376.04,178.06 		"/>
		<polygon class="st0" points="364.81,109.48 369.28,118.55 379.29,120 372.05,127.06 373.76,137.03 364.81,132.32 355.85,137.03 
			357.56,127.06 350.32,120 360.33,118.55 		"/>
		<polygon class="st0" points="325.87,52.99 330.34,62.06 340.35,63.52 333.11,70.57 334.82,80.54 325.87,75.84 316.91,80.54 
			318.62,70.57 311.38,63.52 321.39,62.06 		"/>
	</g>
	<polygon class="st2" points="336.06,200 305.15,206.63 335.01,217.04 303.5,219.76 331.82,233.84 300.23,232.57 326.54,250.11 
		295.35,244.86 319.25,265.57 288.97,256.45 310.08,279.99 281.18,267.15 299.18,293.15 272.12,276.8 286.74,304.84 261.92,285.25 
		272.92,314.89 250.75,292.35 257.95,323.14 238.79,297.99 242.05,329.44 226.22,302.07 225.49,333.68 213.23,304.53 208.53,335.8 
		200,305.35 191.47,335.8 186.77,304.53 174.51,333.68 173.78,302.07 157.94,329.44 161.21,297.99 142.04,323.14 149.25,292.35 
		127.07,314.89 138.08,285.25 113.26,304.84 127.88,276.8 100.81,293.14 118.81,267.15 89.92,279.99 111.03,256.44 80.75,265.57 
		104.64,244.86 73.46,250.11 99.77,232.57 68.18,233.84 96.49,219.76 64.99,217.04 94.85,206.63 63.94,200 94.85,193.37 
		64.99,182.96 96.5,180.24 68.18,166.16 99.77,167.43 73.46,149.89 104.64,155.14 80.75,134.43 111.03,143.55 89.92,120.01 
		118.82,132.85 100.82,106.85 127.88,123.2 113.26,95.16 138.08,114.75 127.08,85.11 149.25,107.65 142.05,76.86 161.21,102.01 
		157.95,70.56 173.78,97.93 174.52,66.32 186.77,95.47 191.47,64.2 200,94.65 208.53,64.2 213.23,95.47 225.49,66.32 226.22,97.93 
		242.06,70.56 238.79,102.01 257.96,76.86 250.75,107.65 272.93,85.11 261.92,114.75 286.74,95.16 272.12,123.2 299.19,106.86 
		281.19,132.85 310.08,120.01 288.97,143.56 319.25,134.43 295.36,155.14 326.54,149.9 300.23,167.43 331.82,166.16 303.51,180.24 
		335.01,182.96 305.15,193.37 	"/>
	<g>
		<g>
			<path class="st1" d="M180.15,134.29c-0.64,6.17-4.5,10.79-11.6,13.85c-1.67,0.69-3.38,1.21-5.11,1.56
				c9,1.67,13.5,5.94,13.5,12.81c0,5.83-3.1,10.73-9.3,14.71c-6.2,3.98-13.89,5.97-23.06,5.97c-4.5,0-8.25-0.71-11.25-2.12
				c-3-1.41-4.5-3.76-4.5-7.05c0-4.04,2.13-11.08,6.4-21.12c4.27-10.04,8.22-18.61,11.86-25.7c0.57-1.15,1.01-1.96,1.3-2.42
				l-3.12,0.43c-4.5,0.64-8.64,1.7-12.42,3.2c-3.78,1.5-6.33,3.38-7.66,5.63c-0.06,0.17-0.2,0.26-0.43,0.26
				c-0.23,0-0.35-0.16-0.35-0.48c0-0.32,0.03-0.53,0.09-0.65c2.19-6,6.2-9.66,12.03-10.99c2.65-0.58,6.2-0.87,10.64-0.87h17.05
				c5.25,0,9.22,1.12,11.9,3.37c2.68,2.25,4.02,5.08,4.02,8.48V134.29z M171.15,132.04c-0.52-5.08-4.53-7.79-12.03-8.13
				c-2.71,3.52-6.29,10.13-10.73,19.82c-4.44,9.69-7.27,16.69-8.48,20.99c-1.21,4.3-1.82,7.56-1.82,9.78c0,2.22,0.63,3.66,1.9,4.33
				c1.27,0.66,3.38,1,6.32,1c5.48,0,10.27-1.48,14.37-4.46c4.1-2.97,6.14-7.4,6.14-13.28c0-2.88-0.71-5.37-2.12-7.44
				c-1.41-2.08-3.48-3.29-6.19-3.64c-3.58,0.98-7.04,1.47-10.38,1.47c-0.98,0-1.47-0.2-1.47-0.61c0-1.33,0.89-2.24,2.68-2.73
				c1.79-0.49,3.49-0.74,5.11-0.74c1.61,0,3.2,0.12,4.76,0.35c3.75-1.15,6.68-3.23,8.78-6.23c2.11-3,3.16-6.11,3.16-9.35V132.04z"/>
			<path class="st1" d="M214.94,159.21c0.35,0,0.52,0.56,0.52,1.69c0,1.12-0.46,2.47-1.38,4.02c-0.92,1.56-1.83,3.03-2.73,4.41
				c-0.89,1.39-2.09,3-3.59,4.85c-1.5,1.85-2.97,3.32-4.41,4.41c-3.64,2.65-7.28,3.98-10.95,3.98c-3.66,0-6.62-0.94-8.87-2.81
				c-2.25-1.87-3.38-4.74-3.38-8.61c0-5.89,2.16-11.34,6.49-16.36c4.33-5.02,9.38-7.53,15.14-7.53c2.6,0,4.67,0.68,6.23,2.03
				c1.56,1.36,2.34,2.99,2.34,4.89c0,3.23-1.53,5.83-4.59,7.79c-3.06,1.96-6.66,2.94-10.82,2.94c-2.42,0-4.21-0.32-5.37-0.95
				c-1.1,2.94-1.64,5.54-1.64,7.79c0,4.85,2.05,7.27,6.14,7.27c2.42,0,4.92-0.94,7.49-2.81c2.57-1.87,4.76-3.98,6.58-6.32
				c1.82-2.34,3.88-5.7,6.19-10.08C214.56,159.41,214.76,159.21,214.94,159.21z M205.76,152.37c0-1.67-0.81-2.51-2.42-2.51
				c-2.25,0-4.76,1.38-7.53,4.15c-2.77,2.77-4.15,5.02-4.15,6.75c0,1.16,1.1,1.73,3.29,1.73c2.19,0,4.49-1.07,6.88-3.2
				C204.22,157.16,205.53,154.85,205.76,152.37z"/>
			<path class="st1" d="M247.22,164.14c-4.33,7.21-8.25,12.23-11.77,15.06c-3.52,2.83-8.08,4.24-13.67,4.24
				c-3.23,0-5.94-0.62-8.13-1.86c-2.19-1.24-3.29-3.07-3.29-5.5c0-1.38,0.4-2.65,1.21-3.81c0.81-1.15,1.92-1.73,3.33-1.73
				c1.41,0,2.32,0.52,2.73,1.56c-1.1,1.1-1.64,2.37-1.64,3.81c0,2.89,1.61,4.33,4.85,4.33c1.9,0,3.56-0.66,4.98-1.99
				c1.41-1.33,2.12-2.78,2.12-4.37c0-1.59-0.35-2.99-1.04-4.2c-0.69-1.21-1.53-2.28-2.51-3.2c-0.98-0.92-1.96-1.85-2.94-2.77
				c-2.37-2.25-3.55-4.83-3.55-7.74c0-2.91,1.11-5.37,3.33-7.36c2.22-1.99,5.26-2.99,9.13-2.99c2.42,0,4.47,0.43,6.14,1.3
				c1.67,0.87,2.51,2.21,2.51,4.02s-0.55,3.39-1.64,4.72c-1.1,1.33-2.58,1.99-4.46,1.99c-1.87,0-2.81-0.87-2.81-2.6
				c0-0.4,0.66-1.01,1.99-1.82c1.33-0.81,1.99-1.64,1.99-2.51c0-0.87-0.36-1.51-1.08-1.95c-0.72-0.43-1.75-0.65-3.07-0.65
				c-1.33,0-2.61,0.46-3.85,1.38c-1.24,0.92-1.86,2.14-1.86,3.64c0,1.5,0.63,2.91,1.9,4.24c1.27,1.33,2.65,2.45,4.15,3.37
				c1.5,0.92,2.88,2.21,4.15,3.85c1.27,1.64,1.9,3.38,1.9,5.19c0,1.82-0.42,3.45-1.26,4.89c-0.84,1.44-1.83,2.6-2.99,3.46
				c3.23-1.38,6.66-4.85,10.3-10.38c0.35-0.46,0.95-1.41,1.82-2.86c2.02-3.64,3.14-5.45,3.38-5.45c0.35,0,0.52,0.53,0.52,1.6
				C248.08,162.14,247.79,163.16,247.22,164.14z"/>
			<path class="st1" d="M270.84,132.12c-2.83,1.96-6,6.98-9.52,15.06h8.74l0.09,0.09c0,0.29-0.32,0.79-0.95,1.51
				c-0.63,0.72-1.18,1.08-1.64,1.08h-7.44c-4.56,11.31-6.84,18.58-6.84,21.81c0,2.19,0.69,3.29,2.08,3.29c2.02,0,4.38-1.73,7.1-5.19
				c0.63-0.75,1.47-2.02,2.51-3.81c2.65-4.27,4.04-6.4,4.15-6.4c0.35,0,0.52,0.46,0.52,1.39c-0.06,2.19-2.45,6.46-7.18,12.81
				c-1.56,2.08-3.43,4.01-5.63,5.8c-2.19,1.79-4.18,2.68-5.97,2.68c-3.29,0-4.93-2.31-4.93-6.92c0-3.86,0.92-8.31,2.77-13.33v-0.09
				c-1.1,2.02-2.03,3.52-2.81,4.5c-0.78,0.98-1.23,1.47-1.34,1.47c-0.23,0-0.35-0.36-0.35-1.08c0-0.72,0.39-1.89,1.17-3.51
				c0.78-1.61,1.85-3.72,3.2-6.32c1.36-2.6,2.47-4.96,3.33-7.1h-5.8c-0.17,0-0.26-0.13-0.26-0.39c0-0.26,0.22-0.71,0.65-1.34
				c0.43-0.63,0.77-0.95,1-0.95h6.58c4.15-9.98,8.36-14.97,12.64-14.97C269.17,132.21,270.55,132.18,270.84,132.12z"/>
		</g>
		<g>
			<path class="st1" d="M139.58,198.41c5.62,0,9.65,0.91,12.08,2.74c2.43,1.82,3.65,4.03,3.65,6.61c0,2.58-0.87,4.99-2.6,7.2
				c-1.73,2.22-4.15,3.33-7.25,3.33c-3.1,0-4.65-1.31-4.65-3.92c0-0.24,0.06-0.73,0.18-1.46c1.64,0,3.07-0.64,4.29-1.92
				c1.22-1.28,1.82-2.67,1.82-4.2c0-1.52-0.73-2.77-2.19-3.74c-1.46-0.97-3.22-1.46-5.29-1.46c-3.53,0-6.45,1.06-8.75,3.19
				c-2.31,2.13-3.47,4.62-3.47,7.48c0,1.52,0.55,3.19,1.64,5.02c1.09,1.82,2.14,3.27,3.15,4.33c1,1.06,2.64,2.65,4.92,4.74
				c2.28,2.1,3.63,3.36,4.06,3.78c4.62,4.62,6.93,9.65,6.93,15.09c0,5.44-2.46,10.18-7.39,14.23c-4.93,4.04-10.82,6.07-17.69,6.07
				c-5.59,0-10.11-0.91-13.54-2.74c-3.44-1.82-5.15-4.68-5.15-8.57c0-2.13,0.7-4.07,2.1-5.84c1.4-1.76,3.39-2.64,5.97-2.64
				c2.58,0,4.33,0.91,5.24,2.74c-2.13,1.7-3.19,3.75-3.19,6.16c0,2.4,0.81,4.26,2.42,5.56c1.61,1.31,3.72,1.96,6.34,1.96
				c3.65,0,6.85-1.31,9.62-3.92c2.77-2.61,4.15-5.91,4.15-9.89c0-3.98-2.61-8.74-7.84-14.27c-0.06-0.12-1.13-1.26-3.19-3.42
				c-2.07-2.16-3.78-4.36-5.15-6.61c-1.37-2.25-2.05-4.92-2.05-8.03c0-5.29,2.07-9.54,6.2-12.77
				C129.08,200.02,133.96,198.41,139.58,198.41z"/>
			<path class="st1" d="M187.05,240c0.36,0,0.55,0.59,0.55,1.78c0,1.19-0.49,2.6-1.46,4.24c-0.97,1.64-1.93,3.19-2.87,4.65
				c-0.94,1.46-2.21,3.16-3.79,5.11c-1.58,1.95-3.13,3.5-4.65,4.65c-3.83,2.8-7.68,4.2-11.54,4.2c-3.86,0-6.98-0.99-9.35-2.96
				c-2.37-1.98-3.56-5-3.56-9.07c0-6.2,2.28-11.95,6.84-17.24c4.56-5.29,9.88-7.93,15.96-7.93c2.74,0,4.93,0.72,6.57,2.14
				c1.64,1.43,2.46,3.15,2.46,5.15c0,3.41-1.61,6.14-4.83,8.21c-3.22,2.07-7.02,3.1-11.4,3.1c-2.55,0-4.44-0.33-5.65-1
				c-1.16,3.1-1.73,5.84-1.73,8.21c0,5.11,2.16,7.66,6.47,7.66c2.55,0,5.18-0.99,7.89-2.96c2.7-1.97,5.02-4.2,6.93-6.66
				c1.91-2.46,4.09-6,6.52-10.62C186.66,240.21,186.87,240,187.05,240z M177.39,232.79c0-1.76-0.85-2.65-2.55-2.65
				c-2.37,0-5.02,1.46-7.93,4.38c-2.92,2.92-4.38,5.29-4.38,7.11c0,1.22,1.15,1.82,3.47,1.82c2.31,0,4.73-1.12,7.25-3.37
				C175.76,237.84,177.14,235.41,177.39,232.79z"/>
			<path class="st1" d="M217.79,208.08c-2.19,4.44-5.53,9.47-10.03,15.09c-4.5,5.62-8.54,10.14-12.13,13.54l-1.46,4.19
				c-0.73,2.13-1.43,4.71-2.1,7.75c-0.67,3.04-0.97,5.2-0.91,6.47c0,1.82,0.67,2.74,2.01,2.74c1.34,0,2.93-0.76,4.79-2.28
				c1.85-1.52,3.21-2.84,4.06-3.97c0.85-1.12,1.84-2.6,2.96-4.42c1.12-1.82,2.1-3.41,2.92-4.74c0.82-1.34,1.29-2.01,1.41-2.01
				c0.36,0,0.55,0.56,0.55,1.69c0,1.13-0.3,2.2-0.91,3.24c-3.35,5.65-6.05,9.64-8.12,11.95c-4.2,4.62-8.51,6.93-12.95,6.93
				c-3.41,0-5.11-2.31-5.11-6.93c0-4.56,2.04-12.52,6.11-23.89c0.3-0.97,1-3.01,2.1-6.11c1.09-3.1,2.04-5.52,2.83-7.25
				c0.79-1.73,1.85-4.03,3.19-6.89c1.34-2.86,2.63-5.14,3.88-6.84c1.25-1.7,2.63-3.43,4.15-5.2c2.98-3.53,6.2-5.29,9.67-5.29
				c3.47,0,5.2,1.58,5.2,4.74C219.88,203.03,219.18,205.52,217.79,208.08z M215.87,198.14h-0.64c-3.71,0-9.64,11.13-17.78,33.38
				c8.33-9.79,14.01-17.81,17.05-24.08c1.7-3.83,2.55-6.34,2.55-7.52S216.66,198.14,215.87,198.14z"/>
			<path class="st1" d="M240.22,208.08c-2.19,4.44-5.53,9.47-10.03,15.09c-4.5,5.62-8.54,10.14-12.13,13.54l-1.46,4.19
				c-0.73,2.13-1.43,4.71-2.1,7.75c-0.67,3.04-0.97,5.2-0.91,6.47c0,1.82,0.67,2.74,2.01,2.74c1.34,0,2.93-0.76,4.79-2.28
				c1.85-1.52,3.21-2.84,4.06-3.97c0.85-1.12,1.84-2.6,2.96-4.42c1.13-1.82,2.1-3.41,2.92-4.74c0.82-1.34,1.29-2.01,1.41-2.01
				c0.36,0,0.55,0.56,0.55,1.69c0,1.13-0.3,2.2-0.91,3.24c-3.35,5.65-6.05,9.64-8.12,11.95c-4.19,4.62-8.51,6.93-12.95,6.93
				c-3.41,0-5.11-2.31-5.11-6.93c0-4.56,2.04-12.52,6.11-23.89c0.3-0.97,1-3.01,2.1-6.11c1.09-3.1,2.04-5.52,2.83-7.25
				c0.79-1.73,1.85-4.03,3.19-6.89c1.34-2.86,2.63-5.14,3.88-6.84c1.25-1.7,2.63-3.43,4.15-5.2c2.98-3.53,6.2-5.29,9.67-5.29
				c3.47,0,5.2,1.58,5.2,4.74C242.32,203.03,241.62,205.52,240.22,208.08z M238.3,198.14h-0.64c-3.71,0-9.64,11.13-17.78,33.38
				c8.33-9.79,14.01-17.81,17.06-24.08c1.7-3.83,2.55-6.34,2.55-7.52S239.09,198.14,238.3,198.14z"/>
			<path class="st1" d="M264.57,240c0.37,0,0.55,0.59,0.55,1.78c0,1.19-0.49,2.6-1.46,4.24c-0.97,1.64-1.93,3.19-2.87,4.65
				c-0.94,1.46-2.2,3.16-3.79,5.11c-1.58,1.95-3.13,3.5-4.65,4.65c-3.83,2.8-7.68,4.2-11.54,4.2c-3.86,0-6.98-0.99-9.35-2.96
				c-2.37-1.98-3.56-5-3.56-9.07c0-6.2,2.28-11.95,6.84-17.24c4.56-5.29,9.88-7.93,15.96-7.93c2.74,0,4.92,0.72,6.57,2.14
				c1.64,1.43,2.46,3.15,2.46,5.15c0,3.41-1.61,6.14-4.83,8.21c-3.22,2.07-7.02,3.1-11.4,3.1c-2.55,0-4.44-0.33-5.65-1
				c-1.16,3.1-1.73,5.84-1.73,8.21c0,5.11,2.16,7.66,6.47,7.66c2.55,0,5.18-0.99,7.89-2.96c2.7-1.97,5.02-4.2,6.93-6.66
				c1.91-2.46,4.09-6,6.52-10.62C264.17,240.21,264.38,240,264.57,240z M254.9,232.79c0-1.76-0.85-2.65-2.55-2.65
				c-2.37,0-5.02,1.46-7.93,4.38c-2.92,2.92-4.38,5.29-4.38,7.11c0,1.22,1.15,1.82,3.47,1.82c2.31,0,4.73-1.12,7.25-3.37
				C253.27,237.84,254.66,235.41,254.9,232.79z"/>
			<path class="st1" d="M285.18,227.05l4.65,0.09h0.91c-0.91,0.67-2.2,2.65-3.88,5.93c-1.67,3.28-2.92,5.76-3.74,7.43
				c-0.82,1.67-1.73,3.92-2.74,6.75c-1,2.83-1.51,5.12-1.51,6.89c0,1.76,0.61,2.64,1.82,2.64c0.79-0.06,1.9-0.62,3.33-1.69
				c1.43-1.06,2.61-2.19,3.56-3.37c0.94-1.19,1.98-2.7,3.1-4.56c1.12-1.85,2.1-3.47,2.92-4.83c0.82-1.37,1.29-2.05,1.41-2.05
				c0.42,0,0.64,0.56,0.64,1.69c0,1.13-0.3,2.2-0.91,3.24c-2.61,4.32-4.77,7.63-6.48,9.94c-1.7,2.31-3.75,4.42-6.16,6.34
				c-2.4,1.92-4.58,2.87-6.52,2.87c-3.47,0-5.2-2.55-5.2-7.66c0-3.47,0.67-7.39,2.01-11.76c1.34-4.38,3.31-8.6,5.93-12.68
				c-2.13,1.7-4.26,2.55-6.38,2.55c-0.67,0-1.37-0.15-2.1-0.46c-4.32,8.51-6.64,12.77-6.98,12.77c-0.33,0-0.5-0.5-0.5-1.5
				c0-1,0.38-2.4,1.14-4.2c0.76-1.79,1.58-3.51,2.46-5.15c0.88-1.64,1.35-2.55,1.41-2.74c-2.19-1.09-3.28-2.86-3.28-5.29
				c0-1.22,0.38-2.31,1.14-3.28c0.76-0.97,1.81-1.46,3.15-1.46c1.34,0,2.43,0.43,3.28,1.28c-0.12,0.36-0.18,0.91-0.18,1.64
				c0,1.64,0.59,2.93,1.78,3.88c1.19,0.94,2.63,1.41,4.33,1.41c0.48,0,0.85-0.03,1.09-0.09
				C280.83,228.57,282.99,227.05,285.18,227.05z"/>
		</g>
	</g>
	<g>
		<g>
			<rect x="123.5" y="111.17" class="st1" width="63.28" height="1.41"/>
		</g>
		<g>
			<rect x="215.89" y="111.17" class="st1" width="60.61" height="1.41"/>
		</g>
	</g>
	<g>
		<g>
			<rect x="99.96" y="273.77" class="st1" width="88.09" height="1.41"/>
		</g>
		<g>
			<rect x="216.26" y="273.77" class="st1" width="83.78" height="1.41"/>
		</g>
	</g>
	<path class="st1" d="M203.52,111.47c0,1.94-1.58,3.52-3.52,3.52c-1.94,0-3.52-1.57-3.52-3.52c0-1.94,1.57-3.52,3.52-3.52
		C201.94,107.95,203.52,109.52,203.52,111.47z"/>
	<path class="st1" d="M203.52,274.06c0,1.94-1.58,3.52-3.52,3.52c-1.94,0-3.52-1.57-3.52-3.52c0-1.94,1.57-3.52,3.52-3.52
		C201.94,270.54,203.52,272.12,203.52,274.06z"/>
</g>
</svg>
