<?xml version="1.0" encoding="utf-8"?>
<!-- Generator: Adobe Illustrator 25.1.0, SVG Export Plug-In . SVG Version: 6.00 Build 0)  -->
<svg version="1.1" id="Layer_1" xmlns="http://www.w3.org/2000/svg" xmlns:xlink="http://www.w3.org/1999/xlink" x="0px" y="0px"
	 viewBox="0 0 100 100" style="enable-background:new 0 0 100 100;" xml:space="preserve">
<style type="text/css">
	.st0{fill:#F9A332;}
	.st1{opacity:0.3;}
	.st2{fill:#6D184E;}
	.st3{fill:#48C75A;}
	.st4{opacity:0.6;}
	.st5{fill:#FFFFFF;}
	.st6{fill:#DB2839;}
	.st7{opacity:0.45;}
	.st8{fill:#FCAF15;}
	.st9{fill:#F8CE36;}
	.st10{opacity:0.5;}
	.st11{fill:#FCE69F;}
	.st12{opacity:0.39;}
	.st13{fill:#E5525F;}
</style>
<g>
	<g>
		<g>
			<path class="st0" d="M88.95,51.33c0,0,8.18,10.67-12.89,24.63s-50.43,18.58-56.28,3.55S19.4,68.92,41.85,66.35
				s37.4-25.92,41.02-23.38C86.48,45.52,88.95,51.33,88.95,51.33z"/>
		</g>
	</g>
	<g>
		<g class="st1">
			<g>
				<path class="st2" d="M17.69,70.71c0.23,1.65,0.94,3.86,2.09,6.83C25.63,92.58,55,87.96,76.06,74
					c11.01-7.3,14.03-13.7,14.41-18.14c0.01,0.07,0.01,0.13,0.02,0.2c-0.04-0.59-0.12-1.13-0.23-1.62
					c-0.9,4.33-4.36,10.13-14.19,16.64c-7.84,5.2-16.77,9.09-25.28,11.17c-2.57,0.61-9.13,1.92-10.94,0.06
					c-2.26-2.33,1.6-5.11,5.14-2.88c7.17,4.52,11.5-0.58,13.1-2.47c1.6-1.89,3.57-2.81,8.23-3.36c4.66-0.55,6.86-3.29,9.33-7.2
					c2.47-3.91,6.82,0.17,9.63-4.9c2.81-5.07,0.41-5.79,4.63-6.69l-0.45-2.01c0,0-3.66,0.53-3.91,2.18c-0.24,1.64,0.96,6-2.85,7.37
					c-3.81,1.37-7.37-0.71-9.36,2.37c-1.99,3.08-3.84,6.68-10.6,7.32c-6.75,0.63-6.82,8.93-16.42,5.26
					c-9.6-3.67-8.76,4.75-12.52,4.21c-3.76-0.54-1.88-3.73-4.79-3.18c-1.71,0.32-3.15,1.55-4.04,2.51
					c-2.35-1.49-4.15-3.54-5.19-6.22c-0.76-1.96-1.33-3.59-1.7-4.95c-0.24,0.37-0.39,0.82-0.45,1.35
					C17.65,70.92,17.67,70.81,17.69,70.71z"/>
			</g>
		</g>
	</g>
	<g>
		<g>
			<path class="st2" d="M37.93,89.75c-3.4,0-6.47-0.42-9.15-1.28c-4.92-1.56-8.24-4.47-9.86-8.64c-2.07-5.33-2.94-8.61-1.6-10.68
				c1.45-2.24,4.98-2.42,11.37-2.73c3.47-0.17,7.79-0.39,13.05-0.99c13.97-1.6,24.94-11.38,32.2-17.85
				c4.86-4.33,7.53-6.71,9.45-5.36c3.57,2.51,6,7.84,6.36,8.66c0.41,0.59,2.26,3.55,1.5,8.1c-1,5.99-5.94,11.96-14.68,17.75
				c-7.6,5.04-16.52,9.01-25.11,11.17C46.59,89.14,42.03,89.75,37.93,89.75z M82.21,43.71c-0.21,0-0.74,0.12-1.9,0.93
				c-1.35,0.95-3.1,2.51-5.13,4.32C67.74,55.59,56.5,65.6,41.95,67.27c-5.32,0.61-9.67,0.83-13.17,1c-5.4,0.27-8.97,0.45-9.91,1.89
				c-0.9,1.38,0.06,4.6,1.77,9.01c1.41,3.62,4.33,6.16,8.69,7.54c11.29,3.58,30.72-1.26,46.21-11.52
				c8.15-5.4,12.94-11.09,13.87-16.45c0.73-4.2-1.13-6.74-1.21-6.84c-0.04-0.06-0.09-0.13-0.11-0.2c-0.03-0.08-2.42-5.61-5.76-7.96
				C82.33,43.73,82.3,43.71,82.21,43.71z"/>
		</g>
	</g>
	<g>
		<g>
			<path class="st3" d="M15.91,70.04c0,0-5.35-0.82-5.83,2.81c-0.48,3.63,5.42,2.19,5.35,5.01c-0.07,2.81-0.14,6.51,5.9,3.98
				c6.03-2.54,7.68-5.75,9.6-2.5c1.92,3.25,5.01,2.7,6.45-0.38c1.44-3.09,4.27-3.67,9.82-0.5c5.54,3.17,6.35-8.02,13.91-6.74
				s7.89-2.37,11.93-6.69c4.05-4.32,12.55,0.41,12.27-5.83c-0.27-6.24,0.38-3.89,4.13-6.62s3.7-9.1-3.65-8.54
				C78.44,44.62,60.14,71,15.91,70.04z"/>
		</g>
	</g>
	<g class="st4">
		<g>
			<g>
				<path class="st5" d="M89.73,49.99c-3.65,2.84-4.79,3.15-4.3,5.34c0.39-1.36,1.51-0.92,4.02-2.74c1.85-1.35,2.78-3.58,2.35-5.43
					C91.35,48.03,90.54,49.36,89.73,49.99z"/>
			</g>
		</g>
		<g>
			<g>
				<path class="st5" d="M85.3,58.85c-1.3,4.37-9.05,0.43-12.94,4.88c-4.33,4.95-4.67,9.14-12.76,7.66
					c-5.85-1.07-7.92,5.36-10.86,7.61c4.23,0.49,5.57-8.44,12.37-7.28c7.56,1.29,7.89-2.37,11.93-6.69
					c4.05-4.32,12.55,0.41,12.27-5.83C85.31,59.08,85.3,58.96,85.3,58.85z"/>
			</g>
		</g>
	</g>
	<g class="st1">
		<g>
			<path class="st2" d="M67.14,64.76c3.29-3.36,10.56-4.94,17.01-10.83c3.92-3.59,3.66-7.44,2.85-9.9c-0.38-0.01-0.77,0-1.2,0.03
				C78.44,44.62,60.14,71,15.91,70.04c0,0-5.35-0.82-5.83,2.81c-0.48,3.63,5.42,2.19,5.35,5.01c-0.07,2.81-0.14,6.51,5.9,3.98
				c6.03-2.54,7.68-5.75,9.6-2.5c1.92,3.25,5.01,2.7,6.45-0.38c1.44-3.09,4.27-3.67,9.82-0.5c5.54,3.17,6.35-8.02,13.91-6.74
				c1.67,0.28,2.99,0.33,4.07,0.17C64.92,70.23,64.84,67.11,67.14,64.76z"/>
		</g>
	</g>
	<g>
		<g>
			<path class="st2" d="M18.01,83.46c-0.75,0-1.38-0.17-1.89-0.52c-1.56-1.06-1.51-3.3-1.46-5.1c0.01-0.61-0.48-0.87-1.97-1.33
				c-1.48-0.46-3.71-1.15-3.37-3.76c0.14-1.06,0.62-1.9,1.44-2.51c1.84-1.38,4.78-1.04,5.23-0.98c31.74,0.67,49.72-12.64,60.46-20.6
				c4.24-3.14,7.04-5.22,9.29-5.39c4.83-0.37,6.27,2.08,6.67,3.16c0.84,2.28-0.21,5.14-2.5,6.8c-1.17,0.85-2.05,1.23-2.7,1.52
				c-0.75,0.33-0.89,0.41-1,0.72c-0.2,0.58-0.19,1.85-0.11,3.71c0.06,1.34-0.24,2.34-0.9,3.06c-1.15,1.26-3.11,1.34-5.18,1.43
				c-2.36,0.1-4.81,0.2-6.41,1.91c-0.88,0.94-1.58,1.84-2.24,2.71c-2.27,2.95-4.07,5.29-10.39,4.21c-3.38-0.58-5.25,1.7-7.05,3.89
				c-1.79,2.18-3.81,4.64-7.12,2.75c-2.98-1.7-5.23-2.33-6.7-1.86c-0.85,0.27-1.51,0.93-2.01,2.01c-0.85,1.82-2.29,2.95-3.85,3.03
				c-1.54,0.08-2.96-0.84-3.99-2.58c-0.34-0.58-0.65-0.89-0.94-0.97c-0.55-0.14-1.55,0.47-2.82,1.23c-1.24,0.75-2.79,1.69-4.86,2.56
				C20.2,83.16,18.99,83.46,18.01,83.46z M14.7,70.74c-0.96,0-2.22,0.15-3.01,0.75c-0.47,0.35-0.74,0.83-0.82,1.46
				c-0.16,1.18,0.54,1.51,2.28,2.05c1.32,0.41,3.12,0.97,3.08,2.87c-0.03,1.42-0.08,3.18,0.78,3.77c0.69,0.47,2.08,0.29,4.03-0.53
				c1.97-0.83,3.46-1.73,4.65-2.45c1.64-0.99,2.83-1.71,4.02-1.41c0.73,0.18,1.34,0.72,1.91,1.69c0.72,1.21,1.62,1.85,2.56,1.81
				c0.97-0.05,1.9-0.84,2.5-2.13c0.69-1.48,1.69-2.43,2.96-2.84c1.93-0.61,4.54,0.04,7.96,1.99c2.06,1.18,3.18-0.01,5.13-2.39
				c1.89-2.31,4.24-5.17,8.53-4.45c5.39,0.92,6.63-0.7,8.89-3.62c0.66-0.86,1.4-1.82,2.34-2.83c2.04-2.17,4.93-2.3,7.49-2.4
				c1.74-0.07,3.38-0.14,4.09-0.92c0.37-0.4,0.53-1.04,0.49-1.93c-0.19-4.4,0.04-5.06,2.05-5.94c0.61-0.27,1.38-0.6,2.41-1.35
				c1.7-1.23,2.54-3.38,1.95-4.99c-0.58-1.58-2.38-2.34-5.08-2.13c-1.8,0.14-4.75,2.32-8.48,5.09c-5.3,3.93-12.57,9.31-22.58,13.65
				c-11.82,5.12-24.9,7.56-38.89,7.26c-0.03,0-0.07,0-0.1-0.01l0,0C15.55,70.78,15.16,70.74,14.7,70.74z"/>
		</g>
	</g>
	<g>
		<g>
			<path class="st6" d="M73.19,31.09c-0.95,0.38-1.77,0.98-2.45,1.75c-4.1,2.82-13.02,8.5-24.33,12.97
				c-11.28,4.57-21.65,6.62-26.56,7.4c-1.02-0.09-2.03,0.04-2.98,0.42c-4.35,1.74-5.91,8.06-3.49,14.11
				c2.42,6.05,7.23,8.4,12.26,7.8c11.19-1.53,21.2-4.75,29.38-8.22c8.31-3.14,17.78-7.71,26.94-14.33
				c4.06-3.03,5.91-8.06,3.49-14.11C83.03,32.84,77.54,29.35,73.19,31.09z"/>
		</g>
	</g>
	<g class="st7">
		<g>
			<path class="st2" d="M86.53,46.45l0.84-3.22c0,0-24.58,2.19-27.57,20.17c-5.83,2.43-12.55,4.71-19.93,6.35l-2.46-2.89
				c0,0-4.38-0.39-6.38-3.01c-2.01-2.62-5.37-3.46-7.1,0.62c-0.73,1.73-1.67,2.71-2.51,3.27c-1-1.13-1.86-2.53-2.54-4.21
				c-1.48-3.71-1.47-7.52-0.23-10.31c-0.61,0.05-1.2,0.19-1.78,0.42c-4.35,1.74-5.91,8.06-3.49,14.11c2.42,6.05,7.23,8.4,12.26,7.8
				c11.19-1.53,21.2-4.75,29.38-8.22c8.31-3.14,17.78-7.71,26.94-14.33c0.68-0.51,1.3-1.08,1.85-1.69
				c-4.55,3.01-9.13,5.53-13.57,7.65c-0.95,0.45-1.87-0.66-1.25-1.51C72.12,53.13,78.37,46.36,86.53,46.45z M25.54,70.66
				c-0.72-0.28-0.9-1.22-0.31-1.73c0.89-0.77,1.74-1.57,2.13-2.15c0.6-0.88,1.49,1.19,4.15,2.62c0.87,0.47,0.64,1.78-0.34,1.91
				c-0.02,0-0.03,0-0.05,0.01C29.19,71.55,27.29,71.35,25.54,70.66z"/>
		</g>
	</g>
	<g>
		<g>
			<path class="st2" d="M24.12,76.41c-5.13,0-9.34-3.04-11.48-8.38c-1.23-3.08-1.53-6.33-0.83-9.15c0.72-2.92,2.41-5.04,4.76-5.98
				c1.02-0.41,2.11-0.57,3.24-0.48c5.12-0.82,15.25-2.86,26.3-7.34c11.09-4.38,19.83-9.9,24.11-12.83c0.76-0.85,1.66-1.48,2.68-1.89
				c0,0,0,0,0,0c4.74-1.9,10.7,1.8,13.28,8.24c2.36,5.89,0.95,11.51-3.75,15.03C74.36,59.45,65.24,64.3,55.3,68.05
				c-9.78,4.14-19.73,6.92-29.57,8.27C25.19,76.38,24.65,76.41,24.12,76.41z M19.21,53.97c-0.72,0-1.41,0.13-2.06,0.39
				c-1.86,0.75-3.22,2.49-3.82,4.9c-0.62,2.51-0.35,5.41,0.76,8.19c2.11,5.27,6.28,7.93,11.44,7.31c9.69-1.33,19.51-4.07,29.17-8.16
				c0.01,0,0.02-0.01,0.03-0.01c9.81-3.7,18.82-8.49,26.76-14.23c4.15-3.11,5.33-7.91,3.22-13.18c-2.26-5.64-7.3-8.94-11.24-7.36
				l-0.29-0.73l0.29,0.73c-0.82,0.33-1.54,0.85-2.15,1.54c-0.04,0.05-0.09,0.09-0.15,0.13c-4.3,2.96-13.19,8.59-24.49,13.05
				c-11.25,4.56-21.58,6.63-26.73,7.45C19.9,54,19.84,54,19.77,54C19.58,53.98,19.4,53.97,19.21,53.97z"/>
		</g>
	</g>
	<g>
		<g>
			<path class="st8" d="M14.82,60.23c0,0-5.28,2.13-6.58,5.76c-1.3,3.63,5.9-2.26,12.82-1.65c6.93,0.62,2.33-6.03,12-0.34
				c9.67,5.69,10.56,15.15,17.14,15.33c6.58,0.17,6.17-5.38,8.64-2.37c2.47,3.02,7.15,2.47,4.58-2.98
				c-2.57-5.45-0.94-17.45,10.71-24.1s17.9-5.21,18.45-6.17c0.55-0.96-2.06-5.9-10.35-6.03C73.93,37.54,53.08,58.72,14.82,60.23z"/>
		</g>
	</g>
	<g class="st1">
		<g>
			<path class="st2" d="M63.65,74.52c-1.02,1.08-3.32,0.57-4.81-1.26c-2.47-3.02-1.89,3.12-8.48,2.95c-3.73-0.1-5.38-3.2-8.09-6.88
				c0.91-0.51,2.4-2.17,3.92-3.83c2.62-2.88,9.36,5.09,16.47-0.1l0.3-1.39c0,0-1.24,3.34-7.72,1.19c-6.48-2.15-8.9-3.59-10.98-1.19
				c-1.28,1.48-2.8,2.44-3.77,2.96c-1.84-2.31-4.12-4.71-7.44-6.66c-1.36-0.8-2.44-1.36-3.31-1.72c-1.43,0.26-2.89,0.5-4.39,0.71
				c-0.72,0.78-1.69,1.59-4.31,1.35c-4.08-0.36-8.25,1.53-10.72,2.41c-0.9,0.82-1.69,1.81-2.1,2.94c-1.3,3.63,5.9-2.26,12.82-1.65
				c6.93,0.62,2.33-6.03,12-0.34c9.67,5.69,10.56,15.15,17.14,15.33c6.58,0.17,6.17-5.38,8.64-2.37
				C61.23,79.88,65.67,79.47,63.65,74.52z"/>
		</g>
	</g>
	<g>
		<g>
			<g>
				<path class="st9" d="M21.15,64.36c4.2,0.34,4.08-2.05,5.65-2.57C23.82,61.12,24.62,64.01,21.15,64.36z"/>
			</g>
		</g>
		<g>
			<g>
				<path class="st9" d="M8.16,66.99c0.67,1.03,5.74-2.37,11.11-2.67C14.87,64.06,10.43,66.3,8.16,66.99z"/>
			</g>
		</g>
		<g class="st10">
			<g>
				<path class="st5" d="M62.37,64.43C61.87,64.5,62.87,64.41,62.37,64.43c-2.24,3.46-1.99,7.27-0.91,9.55
					c1.33,2.81,0.72,4.32-0.51,4.7c2.05,0.51,3.78-0.9,1.99-4.7C61.84,71.67,61.51,68.19,62.37,64.43z"/>
			</g>
		</g>
	</g>
	<g class="st1">
		<g>
			<path class="st2" d="M65.12,58.04l-1.52,3.9c0,0,0.8-3.69,0-5.8c-0.8-2.11-0.51-4.13,2.14-3c2.64,1.13,2.92,0.92,2.92,0.92
				S66.32,56.4,65.12,58.04z"/>
		</g>
	</g>
	<g>
		<g>
			<path class="st2" d="M50.49,80.12c-0.1,0-0.21,0-0.31,0c-3.81-0.1-5.88-2.96-8.29-6.28c-2.21-3.05-4.72-6.5-9.23-9.16
				c-2.45-1.44-4.12-2.17-5.1-2.21c-0.63-0.02-0.87,0.21-1.4,0.8c-0.8,0.91-1.9,2.14-5.18,1.85c-3.31-0.3-6.71,0.99-9.2,1.93
				c-2.19,0.83-3.4,1.28-4.13,0.56c-0.62-0.61-0.27-1.57-0.16-1.88c1.41-3.92,6.8-6.13,7.03-6.22c0.08-0.03,0.17-0.05,0.26-0.06
				c25.49-1,43.02-10.71,54.62-17.13c5.74-3.18,9.89-5.47,12.83-5.43c5.89,0.1,9.38,2.58,10.68,4.87c0.31,0.55,0.77,1.58,0.34,2.33
				c-0.36,0.62-1.08,0.71-2.52,0.88c-2.63,0.31-8.1,0.95-16.22,5.59c-10.8,6.16-13,17.56-10.39,23.09c1.73,3.67,0.32,5.07-0.37,5.51
				c-1.53,0.97-3.95,0.22-5.52-1.69c-0.48-0.58-0.68-0.61-0.68-0.61c-0.13,0.01-0.53,0.4-0.8,0.65
				C55.74,78.49,54.06,80.12,50.49,80.12z M27.45,60.91c1.22,0,3.01,0.66,6.01,2.42c4.79,2.82,7.51,6.57,9.7,9.59
				c2.34,3.22,4.03,5.55,7.06,5.63c3.12,0.08,4.46-1.22,5.44-2.17c0.61-0.59,1.18-1.14,1.98-1.09c0.78,0.05,1.37,0.66,1.8,1.18
				c1.13,1.38,2.73,1.82,3.47,1.36c0.69-0.43,0.61-1.78-0.21-3.51c-1.49-3.17-1.5-7.84-0.01-12.19c1.28-3.76,4.24-9.05,11.05-12.93
				c8.4-4.79,14.08-5.46,16.82-5.78c0.47-0.06,1-0.12,1.28-0.18c-0.06-0.27-0.27-0.8-0.86-1.49c-0.83-0.96-3.33-3.19-8.77-3.28
				c-2.52-0.05-6.52,2.17-12.05,5.23c-11.71,6.48-29.39,16.27-55.17,17.32c-0.76,0.33-4.95,2.28-6.02,5.25
				c-0.01,0.04-0.03,0.07-0.04,0.11c0.54-0.12,1.5-0.48,2.3-0.78c2.63-0.99,6.23-2.34,9.89-2.02c2.49,0.22,3.16-0.53,3.86-1.33
				C25.67,61.47,26.31,60.91,27.45,60.91z M91.86,43.4L91.86,43.4L91.86,43.4z"/>
		</g>
	</g>
	<g>
		<g>
			<path class="st9" d="M56.3,70.36c0,0-2.39,4.45-5.93,3.91c-2.68-0.41,1.8,0.11,2.97-3.14C54.68,67.37,56.99,69.33,56.3,70.36z"/>
		</g>
	</g>
	<g>
		<g>
			<path class="st3" d="M18.11,52.18c0,0-9.46,0.51-10.59,5.76s3.81,4.22,7.61,4.01c3.81-0.21-3.6,7.1,2.98,7.71
				c6.58,0.62,7.92-9.26,11.93-4.53s10.29,4.22,13.37-0.1c3.09-4.32,5.66-1.54,11.73,0.41c6.07,1.95,10.18-3.19,8.23-9.46
				c-1.95-6.27,8.54,1.85,11.52-4.63c2.98-6.48-3.39-7.61,4.22-9.15c7.61-1.54,10.9-2.06,9.67-6.22c-1.23-4.17-4.11-7.25-13.78-3.14
				S56.58,54.95,18.11,52.18z"/>
		</g>
	</g>
	<g class="st1">
		<g>
			<path class="st2" d="M84.33,31.67c-0.06-0.21-0.13-0.42-0.2-0.63c-2.06-0.41-4.96,0.02-9.13,1.79
				c-9.67,4.11-18.41,22.11-56.88,19.34c0,0-9.35,0.51-10.57,5.67c1.04-0.04,2.13-0.15,3.14-0.2c2.23-0.12,0.61,2.33,0.21,4.51
				c1.33,0.05,2.86-0.13,4.23-0.21c1.81-0.1,1.09,1.5,0.54,3.26c4.91-1.24,6.36-8.59,9.93-4.38c4.01,4.73,10.29,4.22,13.37-0.1
				c3.09-4.32,5.66-1.54,11.73,0.41s10.18-3.19,8.23-9.46c-1.95-6.27,8.54,1.85,11.52-4.63c2.98-6.48-3.39-7.61,4.22-9.15
				C82.27,36.35,85.56,35.84,84.33,31.67z"/>
		</g>
	</g>
	<g class="st10">
		<g>
			<g>
				<path class="st5" d="M10.35,61.49c-0.46,0.02-0.93,0.06-1.4,0.1c0.71,0.2,1.56,0.24,2.45,0.22"/>
			</g>
		</g>
		<g>
			<g>
				<path class="st5" d="M40.33,64.76c-1.19,1.67-2.84,2.8-4.65,3.33c2.82,0.28,5.62-0.95,7.38-3.41c0.86-1.21,1.68-1.86,2.55-2.13
					C43.59,62.03,42.04,62.37,40.33,64.76z"/>
			</g>
		</g>
		<g>
			<g>
				<path class="st5" d="M88.58,36.31c-0.57,2.35-4.08,2.97-10.43,4.25c-8.07,1.64-1.31,2.83-4.47,9.7
					c-3.16,6.87-13.33-0.83-12.21,4.91c1.03,5.24-0.61,9.48-4.61,10.32c4.88,0.3,7.86-4.34,6.14-9.87
					c-1.95-6.27,8.54,1.85,11.52-4.63c2.98-6.48-3.39-7.61,4.22-9.15C85.91,40.39,89.25,39.84,88.58,36.31z"/>
			</g>
		</g>
	</g>
	<g>
		<g>
			<path class="st2" d="M18.69,70.47c-0.21,0-0.43-0.01-0.66-0.03c-1.53-0.14-2.54-0.63-3.11-1.48c-0.88-1.33-0.3-3.1,0.16-4.53
				c0.18-0.56,0.45-1.39,0.41-1.69c-0.05-0.01-0.15-0.03-0.33-0.02c-0.42,0.02-0.85,0.06-1.3,0.09c-2.54,0.19-5.17,0.39-6.52-1.16
				c-0.77-0.89-0.97-2.16-0.6-3.89c1.24-5.76,10.91-6.36,11.32-6.38c0.03,0,0.07,0,0.1,0c28.65,2.07,40.34-7.27,48.87-14.1
				c2.77-2.21,5.16-4.12,7.65-5.18c4.94-2.1,8.57-2.54,11.11-1.35c1.79,0.84,2.98,2.43,3.74,4.99c0.43,1.45,0.37,2.59-0.18,3.5
				c-1.15,1.9-4.23,2.53-9.35,3.56l-0.74,0.15c-1.92,0.39-3.01,0.77-3.24,1.15c-0.11,0.18-0.02,0.56,0.13,1.18
				c0.34,1.33,0.85,3.34-0.56,6.39c-1.8,3.91-5.99,3.23-8.77,2.79c-1.03-0.17-2.59-0.42-2.86-0.11c-0.01,0.01-0.21,0.26,0.14,1.39
				c1.1,3.52,0.48,6.88-1.66,8.99c-1.88,1.86-4.64,2.39-7.56,1.45c-1.46-0.47-2.71-0.98-3.82-1.44c-3.56-1.46-5.03-2.06-7.03,0.73
				c-1.63,2.28-4.13,3.66-6.86,3.77c-2.92,0.12-5.66-1.16-7.74-3.62c-0.56-0.66-1.06-1-1.48-1.01c-0.01,0-0.01,0-0.02,0
				c-0.72,0-1.6,0.96-2.52,1.97C23.91,68.25,21.86,70.47,18.69,70.47z M15.27,61.16c0.67,0,1.16,0.2,1.47,0.61
				c0.6,0.78,0.25,1.88-0.16,3.15c-0.38,1.16-0.8,2.48-0.34,3.18c0.28,0.43,0.93,0.69,1.94,0.78c2.77,0.26,4.53-1.65,6.08-3.34
				c1.18-1.29,2.29-2.51,3.73-2.47c0.9,0.02,1.77,0.53,2.65,1.56c1.76,2.08,4.06,3.16,6.48,3.06c2.24-0.09,4.3-1.23,5.65-3.11
				c2.72-3.81,5.31-2.74,8.9-1.28c1.08,0.44,2.3,0.94,3.71,1.4c2.38,0.77,4.5,0.39,5.98-1.07c1.68-1.67,2.17-4.51,1.26-7.41
				c-0.26-0.85-0.53-2.07,0.17-2.88c0.84-0.97,2.44-0.71,4.29-0.41c3.28,0.53,5.89,0.72,7.09-1.89c1.17-2.55,0.78-4.1,0.46-5.35
				c-0.21-0.84-0.42-1.64,0.06-2.4c0.52-0.82,1.67-1.33,4.26-1.85l0.74-0.15c4.53-0.92,7.52-1.52,8.31-2.83
				c0.2-0.33,0.41-0.92,0.02-2.25c-0.62-2.1-1.54-3.38-2.9-4.01c-2.08-0.98-5.38-0.51-9.82,1.38c-2.29,0.97-4.6,2.82-7.28,4.96
				c-4.18,3.34-9.38,7.5-17.18,10.54c-9.12,3.55-19.83,4.83-32.73,3.9c-0.69,0.05-8.87,0.71-9.82,5.14
				c-0.26,1.2-0.18,2.05,0.25,2.53c0.83,0.96,3.17,0.78,5.22,0.62c0.44-0.03,0.9-0.07,1.33-0.09
				C15.15,61.16,15.21,61.16,15.27,61.16z"/>
		</g>
	</g>
	<g>
		<g>
			<g>
				<path class="st0" d="M52.46,55.78c12.69-5.3,22.81-13.42,27.97-23.46C74.7,19.92,62.25,11.27,47.75,11.04
					c-20.14-0.32-36.9,15.86-37.25,36c-0.06,3.47,0.36,6.83,1.21,10.02C23.12,62.83,37.8,61.91,52.46,55.78z"/>
			</g>
		</g>
		<g class="st10">
			<g>
				<path class="st5" d="M79.3,30.08c-6.14-11.19-17.94-18.82-31.55-19.04c-0.24,0-0.47-0.01-0.7,0c-0.01,0-0.02,0-0.03,0
					c-0.09,0-0.19,0-0.28,0C32.51,11.2,20.1,19.59,14.18,31.71c6.1-9.44,16.12-16.11,27.67-17.72c0.3,1.31,2.5,2.33,5.16,2.33
					c2.71,0,4.94-1.06,5.18-2.41C63.35,15.3,73.06,21.36,79.3,30.08z"/>
			</g>
		</g>
		<g>
			<g class="st1">
				<g>
					<path class="st2" d="M61.7,46.54c-10.91,4.56-21.82,6.24-31.4,4.43c-6.16-1.17-10.62-6.56-10.57-12.83c0-0.11,0-0.22,0-0.34
						c0.1-6,1.67-11.65,4.34-16.61c0,0,0,0,0,0c-7.1,6.56-11.63,15.87-11.81,26.24c-0.04,2.14,0.11,4.23,0.42,6.27
						c0.37,2.41,2.01,4.44,4.29,5.28c1.24,0.46,2.51,0.84,3.81,1.17c9.64,1.9,20.65,0.23,31.67-4.37
						c10.29-4.3,18.89-10.45,24.52-17.98C72.55,41.22,67.38,44.17,61.7,46.54z"/>
				</g>
			</g>
		</g>
		<g>
			<g>
				<g>
					<path class="st11" d="M29.17,25.04c-0.38,1.19-1.04,2.07-1.45,1.93c-0.42-0.13-0.45-1.22-0.07-2.42
						c0.38-1.19,1.04-2.07,1.45-1.93c0.39,0.12,0.45,1.09,0.13,2.22L29.17,25.04z"/>
				</g>
			</g>
			<g>
				<g>
					<path class="st11" d="M35.36,25.81c-0.21,1.23-0.75,2.19-1.18,2.11c-0.43-0.07-0.61-1.15-0.4-2.39
						c0.21-1.23,0.75-2.19,1.18-2.11c0.4,0.07,0.59,1.02,0.43,2.18L35.36,25.81z"/>
				</g>
			</g>
			<g>
				<g>
					<path class="st11" d="M43.37,25.56c0.17,1.24-0.04,2.31-0.47,2.37c-0.43,0.06-0.93-0.91-1.11-2.15
						c-0.17-1.24,0.04-2.31,0.47-2.37c0.41-0.06,0.88,0.79,1.08,1.94L43.37,25.56z"/>
				</g>
			</g>
			<g>
				<g>
					<path class="st11" d="M50.06,23c0.66,1.06,0.9,2.13,0.53,2.36c-0.37,0.23-1.22-0.45-1.89-1.52c-0.66-1.06-0.9-2.13-0.53-2.36
						c0.35-0.22,1.12,0.37,1.77,1.34L50.06,23z"/>
				</g>
			</g>
			<g>
				<g>
					<path class="st11" d="M55.19,18.74c0.89,0.88,1.36,1.87,1.06,2.18s-1.29-0.16-2.18-1.05c-0.89-0.88-1.36-1.87-1.06-2.18
						c0.29-0.29,1.18,0.1,2.03,0.9L55.19,18.74z"/>
				</g>
			</g>
		</g>
		<g>
			<g>
				<g>
					<g class="st1">
						<g>
							<circle class="st2" cx="29.99" cy="44.55" r="0.75"/>
						</g>
					</g>
				</g>
			</g>
			<g>
				<g>
					<g class="st1">
						<g>
							<circle class="st2" cx="42.16" cy="37.38" r="0.75"/>
						</g>
					</g>
				</g>
			</g>
			<g class="st12">
				<g>
					<g class="st1">
						<g>
							<circle class="st2" cx="44.65" cy="45.23" r="0.75"/>
						</g>
					</g>
				</g>
			</g>
			<g class="st12">
				<g>
					<g class="st1">
						<g>
							<circle class="st2" cx="51.93" cy="36" r="0.75"/>
						</g>
					</g>
				</g>
			</g>
			<g>
				<g>
					<g class="st1">
						<g>
							<circle class="st2" cx="59.72" cy="42.17" r="0.75"/>
						</g>
					</g>
				</g>
			</g>
			<g>
				<g>
					<g class="st1">
						<g>
							<circle class="st2" cx="60.73" cy="30.76" r="0.75"/>
						</g>
					</g>
				</g>
			</g>
			<g>
				<g>
					<g class="st1">
						<g>
							<circle class="st2" cx="66.15" cy="24.3" r="0.75"/>
						</g>
					</g>
				</g>
			</g>
			<g class="st12">
				<g>
					<g class="st1">
						<g>
							<circle class="st2" cx="30.14" cy="36.72" r="0.75"/>
						</g>
					</g>
				</g>
			</g>
			<g>
				<g>
					<g class="st1">
						<g>
							<circle class="st2" cx="73.55" cy="31.4" r="0.75"/>
						</g>
					</g>
				</g>
			</g>
			<g class="st12">
				<g>
					<g class="st1">
						<g>
							<circle class="st2" cx="68.66" cy="39.64" r="0.75"/>
						</g>
					</g>
				</g>
			</g>
		</g>
		<g>
			<g>
				<path class="st2" d="M28.95,61.7c-5.05,0-9.76-0.8-14.05-2.4c-2.51-0.93-4.32-3.16-4.74-5.83c-0.33-2.12-0.48-4.3-0.44-6.46
					c0.17-9.95,4.24-19.26,11.44-26.22c7.2-6.96,16.65-10.71,26.6-10.54c6.45,0.1,12.78,1.88,18.32,5.13
					c5.38,3.16,9.92,7.65,13.14,12.99c1.45,2.4,1.38,5.48-0.17,7.83C73.54,44.6,64.45,51.62,52.77,56.5l0,0
					c-6.77,2.83-13.42,4.52-19.78,5.04C31.62,61.65,30.27,61.7,28.95,61.7z M47.15,11.82c-19.49,0-35.52,15.68-35.87,35.23
					c-0.04,2.07,0.11,4.16,0.42,6.19c0.33,2.1,1.76,3.86,3.73,4.6c10.26,3.82,23.3,2.83,36.72-2.78l0,0
					c11.4-4.76,20.24-11.57,25.59-19.7c1.22-1.86,1.27-4.27,0.13-6.16c-6.44-10.67-17.71-17.17-30.14-17.37
					C47.54,11.82,47.35,11.82,47.15,11.82z"/>
			</g>
		</g>
	</g>
	<g>
		<g>
			<g>
				<path class="st8" d="M69.68,84.85c-0.45,2.44-2.8,4.05-5.23,3.6c-2.44-0.45-4.05-2.8-3.6-5.23c0.45-2.44,1.8,0.22,4.3-0.7
					C68.1,81.42,70.13,82.41,69.68,84.85z"/>
			</g>
		</g>
		<g class="st10">
			<g>
				<g>
					<path class="st5" d="M66.88,82.09c0.7,0.45,1.02,1.26,0.81,2.38c-0.39,2.1-2.18,3.58-4.22,3.66c0.31,0.13,0.63,0.24,0.97,0.3
						c2.44,0.45,4.78-1.16,5.23-3.6C70.04,82.92,68.85,81.91,66.88,82.09z"/>
				</g>
			</g>
		</g>
		<g class="st1">
			<g>
				<path class="st2" d="M64.94,85.77c-1.74-0.32-2.97-2.02-3.42-3.61c-0.31,0.04-0.53,0.31-0.67,1.06
					c-0.45,2.44,1.16,4.78,3.6,5.23c2.44,0.45,4.78-1.16,5.23-3.6c0.11-0.57,0.07-1.06-0.08-1.47
					C68.64,84.85,66.78,86.11,64.94,85.77z"/>
			</g>
		</g>
		<g>
			<g>
				<path class="st2" d="M65.28,89.3c-0.32,0-0.65-0.03-0.97-0.09c-1.39-0.26-2.59-1.04-3.39-2.2c-0.8-1.16-1.1-2.56-0.84-3.95
					c0.1-0.54,0.29-1.2,0.86-1.53c0.59-0.34,1.21-0.12,1.76,0.08c0.65,0.23,1.32,0.47,2.19,0.15c1.96-0.72,3.67-0.63,4.7,0.24
					c0.79,0.67,1.1,1.73,0.87,2.98c-0.26,1.39-1.04,2.59-2.2,3.39C67.36,88.99,66.33,89.3,65.28,89.3z M61.73,82.95
					c-0.03,0.07-0.07,0.2-0.1,0.4c-0.18,0.97,0.03,1.96,0.59,2.77c0.56,0.82,1.41,1.36,2.38,1.55c0.97,0.18,1.96-0.03,2.77-0.59
					c0.82-0.56,1.36-1.41,1.55-2.38c0.09-0.48,0.1-1.12-0.34-1.5c-0.57-0.48-1.78-0.47-3.15,0.03c-1.41,0.52-2.52,0.12-3.26-0.15
					C62.02,83.04,61.85,82.98,61.73,82.95z"/>
			</g>
		</g>
	</g>
	<g>
		<g>
			<path class="st13" d="M75.52,53.91c0.32,0.15,0.69,0.11,0.99-0.07c1.24-0.73,5.21-3.14,5.88-4.56
				C83.13,47.7,73.28,52.88,75.52,53.91z"/>
		</g>
	</g>
</g>
</svg>
