<?xml version="1.0" encoding="utf-8"?>
<!-- Generator: Adobe Illustrator 25.1.0, SVG Export Plug-In . SVG Version: 6.00 Build 0)  -->
<svg version="1.1" id="Layer_1" xmlns="http://www.w3.org/2000/svg" xmlns:xlink="http://www.w3.org/1999/xlink" x="0px" y="0px"
	 viewBox="0 0 100 100" style="enable-background:new 0 0 100 100;" xml:space="preserve">
<style type="text/css">
	.st0{fill:#FFFFFF;stroke:#66142E;stroke-width:0;stroke-miterlimit:10;}
	.st1{opacity:0.3;}
	.st2{fill:#6D184E;}
	.st3{fill:#F47516;stroke:#66142E;stroke-width:0;stroke-miterlimit:10;}
	.st4{opacity:0.55;}
	.st5{fill:#FFFFFF;}
	.st6{opacity:0.25;}
	.st7{fill:#792937;stroke:#66142E;stroke-width:0;stroke-miterlimit:10;}
	.st8{fill:#F47516;}
	.st9{fill:#EA4235;stroke:#66142E;stroke-width:0;stroke-miterlimit:10;}
	.st10{fill:#E93B47;}
	.st11{opacity:0.2;}
</style>
<g>
	<g>
		<path class="st0" d="M71.04,58.07c1.02,7.92-45.9,13.95-46.91,6.03C23.34,57.96,70.25,51.93,71.04,58.07z"/>
	</g>
	<g>
		<g class="st1">
			<path class="st2" d="M24.28,64.66c2.98,6.77,44.07,1.62,46.65-5.62C68.41,53.76,27.19,58.93,24.28,64.66z"/>
		</g>
	</g>
	<g class="st1">
		<path class="st2" d="M36.96,28.98c0.25,0.31,0.18,0.75,0.12,1.14c-0.06,0.39-0.09,0.84,0.19,1.12c0.33,0.33,0.89,0.2,1.32,0.38
			c0.37,0.15,0.62,0.53,0.62,0.92c0,0.27-0.1,0.58,0.07,0.79c0.14,0.17,0.4,0.19,0.61,0.14c0.42-0.1,0.79-0.43,0.93-0.84
			c0.15-0.41,0.07-0.9-0.19-1.25c-0.57-0.76-1.98-0.52-2.6-1.25C37.72,29.74,37.42,29.18,36.96,28.98z"/>
	</g>
	<g>
		<path class="st2" d="M24.13,64.61c-0.25,0-0.47-0.19-0.5-0.44c-0.22-1.75,2.14-3.37,7.24-4.95c4.19-1.3,9.89-2.45,16.06-3.24
			c6.17-0.79,11.98-1.12,16.36-0.93c5.33,0.24,8.03,1.21,8.25,2.95c0.04,0.28-0.16,0.53-0.44,0.57c-0.28,0.04-0.53-0.16-0.57-0.44
			c-0.05-0.41-0.74-1.78-7.3-2.07c-4.32-0.2-10.07,0.13-16.19,0.92c-6.12,0.79-11.76,1.93-15.89,3.21
			c-6.27,1.95-6.59,3.44-6.53,3.85c0.04,0.28-0.16,0.53-0.44,0.57C24.17,64.61,24.15,64.61,24.13,64.61z"/>
	</g>
	<g>
		<path class="st3" d="M47.6,18.78c0.35-2.19,2.95-2.93,5.5-0.84c0.79,0.65,1.37,1.54,1.51,2.56c0.2,1.44-0.58,2.16-1.86,2.52
			c-1.45,0.4-2.78,1.14-3.78,2.26c-1.25,1.4-2.13,3.15-2.77,5.11c0,1.83-0.74,3.29-1.88,4.55c-0.3,0.33-0.47,0.76-0.45,1.2
			c0.06,1.25-0.63,2.11-1.92,2.65c-0.39,0.16-0.72,0.42-0.99,0.75c-1.27,1.56-2.73,2.23-4.41,1.89c-0.62-0.12-1.27,0-1.81,0.33
			c-1.16,0.71-2.26,0.69-3.29-0.09c-0.24-0.18-0.54-0.29-0.83-0.36c-0.59-0.14-1.02-0.54-1.29-0.86c-0.22-0.26-0.49-0.48-0.81-0.61
			c-4.43-1.79-4.61-8.56-2.18-10.54c1.09-0.88,2.41-0.93,2.41-0.93c1.17-1.6,2.43-2.81,4.11-2.4c1.28,0.23,2.38-0.14,3.22-1.32
			c0.29-0.41,0.64-0.77,1.08-1.01c0.6-0.34,1.47-0.64,2.42-0.34c1.42,0.44,4.59-0.86,6.74-2.43C47.01,20.38,47.47,19.62,47.6,18.78z
			"/>
	</g>
	<g class="st1">
		<path class="st2" d="M54.61,20.5c0.21,1.44-0.58,2.16-1.86,2.52c-1.45,0.4-2.78,1.15-3.78,2.26c-1.25,1.4-2.12,3.14-2.77,5.11
			c0,1.83-0.74,3.29-1.88,4.55c-0.3,0.33-0.47,0.76-0.45,1.2c0.06,1.25-0.63,2.11-1.92,2.65c-0.39,0.16-0.72,0.42-0.99,0.75
			c-1.27,1.56-2.73,2.23-4.41,1.89c-0.62-0.13-1.27,0-1.81,0.32c-1.16,0.71-2.26,0.69-3.29-0.09c-0.24-0.18-0.54-0.29-0.83-0.36
			c-0.59-0.14-1.02-0.54-1.29-0.86c-0.22-0.26-0.49-0.48-0.81-0.61c-3.06-1.24-4.09-4.85-3.64-7.62c0.37,0.46,0.83,0.87,1.38,1.21
			c0.29,0.18,0.53,0.43,0.69,0.73c0.21,0.36,0.57,0.83,1.13,1.07c0.28,0.12,0.55,0.27,0.76,0.49c0.89,0.94,1.97,1.14,3.23,0.63
			c0.59-0.24,1.25-0.25,1.84-0.02c1.59,0.61,3.15,0.2,4.66-1.14c0.32-0.28,0.69-0.48,1.1-0.58c1.36-0.32,2.18-1.05,2.33-2.3
			c0.05-0.44,0.3-0.84,0.64-1.11c1.33-1.06,2.3-2.38,2.6-4.18c0.97-1.83,2.12-3.42,3.58-4.58c1.17-0.94,2.61-1.45,4.1-1.61
			c0.67-0.07,1.23-0.25,1.63-0.61C54.58,20.33,54.6,20.42,54.61,20.5z"/>
	</g>
	<g class="st4">
		<path class="st5" d="M54.29,19.45c-0.14-0.15-0.3-0.3-0.46-0.43c-2.55-2.1-5.15-1.36-5.5,0.83c-0.13,0.84-0.6,1.59-1.28,2.09
			c-2.14,1.57-5.32,2.87-6.74,2.43c-0.95-0.3-1.82,0.01-2.42,0.34c-0.43,0.25-0.79,0.61-1.08,1.01c-0.84,1.18-1.93,1.55-3.22,1.32
			c-1.68-0.41-2.94,0.8-4.11,2.4c0,0-1.33,0.05-2.41,0.93c-1.73,1.4-2.14,5.2-0.66,7.94c-2.3-2.7-2.04-7.42-0.07-9.01
			c1.09-0.88,2.41-0.93,2.41-0.93c1.17-1.6,2.43-2.81,4.11-2.4c1.28,0.23,2.38-0.14,3.22-1.32c0.29-0.41,0.64-0.77,1.08-1.01
			c0.6-0.34,1.47-0.64,2.42-0.34c1.42,0.44,4.59-0.86,6.74-2.43c0.68-0.5,1.15-1.26,1.28-2.09c0.35-2.2,2.94-2.93,5.5-0.84
			C53.61,18.36,54.02,18.87,54.29,19.45z"/>
	</g>
	<g class="st6">
		<path class="st5" d="M30.84,30.08c0.45,0.18,0.61,0.76,1.03,1.01c0.17,0.11,0.38,0.15,0.58,0.2c0.2,0.05,0.4,0.12,0.55,0.26
			c0.15,0.14,0.21,0.39,0.1,0.56c-0.09,0.14-0.27,0.2-0.43,0.23c-0.56,0.1-1.16,0.01-1.66-0.27c-0.44-0.24-0.96-0.7-1.1-1.21
			C29.78,30.33,30.36,29.89,30.84,30.08z"/>
	</g>
	<g>
		<path class="st2" d="M33.11,42.8c-0.68,0-1.35-0.23-1.97-0.7c-0.16-0.12-0.36-0.2-0.64-0.27c-0.73-0.17-1.25-0.66-1.57-1.04
			c-0.17-0.21-0.38-0.37-0.6-0.46c-2.13-0.86-3.57-2.87-3.97-5.5c-0.36-2.44,0.3-4.82,1.66-5.92c0.92-0.74,1.98-0.96,2.46-1.02
			c1.12-1.49,2.52-2.88,4.49-2.42c1.15,0.2,2.01-0.16,2.69-1.12c0.36-0.51,0.78-0.9,1.24-1.17c0.95-0.54,1.93-0.67,2.83-0.39
			c1.12,0.35,4.11-0.77,6.28-2.35c0.57-0.42,0.97-1.06,1.08-1.76c0,0,0,0,0,0c0.17-1.09,0.84-1.94,1.82-2.31
			c1.33-0.51,3.02-0.07,4.52,1.15c0.94,0.77,1.54,1.79,1.69,2.89c0.15,1.09-0.11,2.5-2.24,3.09c-1.43,0.39-2.65,1.12-3.53,2.11
			c-1.1,1.23-1.96,2.82-2.64,4.85c-0.02,1.75-0.68,3.33-2.01,4.82c-0.22,0.24-0.33,0.54-0.32,0.83c0.05,0.99-0.3,2.34-2.23,3.15
			c-0.3,0.13-0.57,0.33-0.79,0.6c-1.42,1.74-3.07,2.44-4.91,2.07c-0.48-0.1-1.01,0-1.44,0.26C34.38,42.61,33.74,42.8,33.11,42.8z
			 M32.22,26.42c-0.98,0-1.89,0.7-3.04,2.27c-0.09,0.13-0.24,0.21-0.4,0.21c-0.01,0-1.18,0.06-2.11,0.82
			c-1.06,0.86-1.59,2.9-1.29,4.96c0.34,2.26,1.55,3.97,3.33,4.69c0.38,0.15,0.73,0.42,1.01,0.76c0.21,0.26,0.56,0.58,1.01,0.69
			c0.42,0.1,0.76,0.25,1.03,0.45c0.86,0.65,1.72,0.67,2.71,0.06c0.66-0.4,1.44-0.54,2.18-0.39c1.45,0.29,2.73-0.27,3.9-1.71
			c0.32-0.4,0.74-0.71,1.19-0.9c1.14-0.48,1.64-1.16,1.6-2.15c-0.03-0.57,0.18-1.13,0.58-1.57c1.19-1.33,1.75-2.66,1.74-4.21
			c0-0.06,0.01-0.11,0.03-0.16c0.73-2.21,1.67-3.95,2.88-5.3c1.01-1.13,2.41-1.97,4.03-2.42c1.19-0.33,1.64-0.91,1.49-1.95
			c-0.12-0.83-0.59-1.63-1.32-2.23c-1.21-0.99-2.51-1.36-3.49-0.99c-0.64,0.24-1.05,0.78-1.17,1.5v0c-0.15,0.96-0.7,1.85-1.49,2.43
			c-2.24,1.64-5.54,3.02-7.2,2.5c-0.78-0.25-1.53,0.03-2.01,0.3c-0.33,0.19-0.64,0.48-0.91,0.86c-0.91,1.29-2.17,1.81-3.73,1.53
			c-0.01,0-0.02,0-0.03-0.01C32.57,26.44,32.4,26.42,32.22,26.42z"/>
	</g>
	<g>
		<path class="st2" d="M28.49,27.85c0.36-0.03,0.64,0.06,0.9,0.2c0.13,0.07,0.25,0.16,0.36,0.28c0.11,0.11,0.21,0.28,0.25,0.4
			c0.2,0.52,0.15,1,0.14,1.4c-0.02,0.41,0,0.77,0.2,1.1c0.18,0.32,0.5,0.6,0.87,0.72l0,0c0.05,0.02,0.08,0.08,0.07,0.13
			c-0.02,0.05-0.07,0.08-0.11,0.07c-0.45-0.07-0.87-0.32-1.17-0.68c-0.15-0.18-0.27-0.4-0.34-0.63c-0.07-0.23-0.11-0.46-0.14-0.67
			c-0.03-0.22-0.05-0.42-0.09-0.6c-0.04-0.18-0.1-0.35-0.18-0.47c-0.05-0.08-0.06-0.08-0.11-0.12c-0.04-0.03-0.1-0.06-0.16-0.08
			c-0.12-0.04-0.27-0.05-0.33-0.02c-0.27,0.12-0.58,0.01-0.71-0.26c-0.12-0.27-0.01-0.58,0.26-0.71c0.06-0.03,0.12-0.04,0.18-0.05
			L28.49,27.85z"/>
	</g>
	<g>
		<path class="st2" d="M35.78,40.95c0.72,0.05,1.44-0.06,2-0.39c0.54-0.32,0.93-0.95,0.87-1.54c-0.02-0.3-0.17-0.63-0.32-1.01
			c-0.07-0.19-0.15-0.4-0.19-0.62c-0.05-0.22-0.06-0.43-0.07-0.63c-0.01-0.2-0.02-0.39-0.03-0.57c-0.01-0.09-0.02-0.18-0.04-0.26
			c-0.02-0.08-0.05-0.16-0.08-0.23c-0.14-0.3-0.42-0.57-0.76-0.54l0,0c-0.06,0.01-0.11-0.04-0.11-0.09c0-0.05,0.02-0.09,0.07-0.11
			c0.22-0.08,0.48-0.05,0.68,0.06c0.21,0.11,0.37,0.26,0.51,0.45c0.27,0.4,0.32,0.84,0.39,1.22c0.03,0.19,0.07,0.37,0.12,0.53
			c0.05,0.16,0.12,0.32,0.21,0.49c0.16,0.34,0.39,0.71,0.47,1.2c0.08,0.49-0.04,0.99-0.26,1.41c-0.23,0.42-0.55,0.77-0.96,1.02
			c-0.39,0.25-0.84,0.39-1.27,0.45c-0.44,0.06-0.87,0.05-1.3-0.01l0,0c-0.23-0.04-0.38-0.25-0.34-0.48
			C35.37,41.08,35.57,40.93,35.78,40.95z"/>
	</g>
	<g>
		<path class="st2" d="M36.62,28.87c0.12-0.14,0.33-0.2,0.51-0.19c0.19,0.02,0.37,0.08,0.52,0.21c0.29,0.24,0.42,0.57,0.53,0.82
			c0.11,0.25,0.23,0.44,0.34,0.51c0.1,0.07,0.29,0.1,0.57,0.1c0.13,0,0.28,0,0.45,0.01c0.16,0.01,0.35,0.04,0.52,0.1
			c0.34,0.13,0.63,0.36,0.83,0.65c0.2,0.29,0.28,0.66,0.25,0.99c-0.03,0.33-0.17,0.65-0.39,0.87c-0.04,0.04-0.11,0.04-0.15,0
			c-0.03-0.03-0.04-0.07-0.02-0.11l0,0c0.19-0.5,0.09-1.03-0.22-1.34c-0.15-0.16-0.34-0.27-0.54-0.32
			c-0.18-0.05-0.42-0.03-0.72-0.02c-0.15,0-0.32,0-0.5-0.03c-0.18-0.03-0.39-0.1-0.56-0.24c-0.17-0.13-0.29-0.3-0.37-0.46
			c-0.08-0.16-0.13-0.32-0.17-0.46c-0.07-0.28-0.12-0.52-0.23-0.69c-0.04-0.07-0.12-0.15-0.21-0.2c-0.09-0.05-0.19-0.07-0.3-0.04
			l-0.01,0c-0.06,0.02-0.12-0.01-0.13-0.07C36.59,28.94,36.6,28.9,36.62,28.87z"/>
	</g>
	<g>
		<path class="st2" d="M45.44,32.45c0.41-1.32,0.34-2.84-0.27-4.18c-0.02-0.05,0-0.11,0.05-0.14c0.05-0.02,0.1,0,0.13,0.04
			c0.81,1.28,1.15,2.89,0.89,4.46l0,0c-0.04,0.23-0.25,0.38-0.48,0.34c-0.23-0.04-0.38-0.25-0.34-0.48
			C45.43,32.49,45.44,32.47,45.44,32.45z"/>
	</g>
	<g>
		<path class="st2" d="M36.41,25.1c-1.02,0.83-1.76,2.09-1.97,3.48c-0.01,0.07-0.08,0.12-0.15,0.11c-0.06-0.01-0.11-0.06-0.11-0.12
			c-0.04-1.47,0.47-3,1.49-4.2l0.01-0.01c0.19-0.22,0.52-0.24,0.73-0.06c0.22,0.19,0.24,0.52,0.06,0.73
			C36.46,25.06,36.44,25.08,36.41,25.1z"/>
	</g>
	<g>
		<path class="st2" d="M39.68,22.9c0.38,0.12,0.72,0.26,1.06,0.41c0.34,0.15,0.68,0.33,1,0.51c0.32,0.19,0.63,0.4,0.93,0.64
			c0.29,0.24,0.56,0.5,0.8,0.79c0.04,0.04,0.03,0.11-0.02,0.15c-0.04,0.03-0.1,0.03-0.14,0l0,0c-0.26-0.24-0.55-0.45-0.85-0.63
			c-0.31-0.18-0.63-0.33-0.95-0.47c-0.33-0.13-0.66-0.25-1-0.35c-0.34-0.1-0.69-0.18-1.02-0.24l-0.01,0
			c-0.23-0.04-0.38-0.25-0.34-0.48c0.04-0.23,0.25-0.38,0.48-0.34C39.64,22.89,39.66,22.89,39.68,22.9z"/>
	</g>
	<g>
		<path class="st3" d="M30.32,35.54c1.03,2.52,2.45,2.69,4.25,0.51"/>
	</g>
	<g>
		<path class="st2" d="M30.42,35.51c0.3,0.39,0.57,0.79,0.87,1.1c0.15,0.16,0.31,0.29,0.47,0.39c0.16,0.09,0.32,0.15,0.48,0.16
			c0.33,0.03,0.71-0.13,1.09-0.36c0.38-0.23,0.75-0.52,1.16-0.81l0,0c0.05-0.03,0.12-0.02,0.15,0.03c0.02,0.03,0.02,0.07,0.01,0.11
			c-0.21,0.46-0.51,0.88-0.9,1.23c-0.2,0.18-0.42,0.34-0.68,0.46c-0.13,0.06-0.27,0.11-0.42,0.14c-0.15,0.03-0.31,0.04-0.47,0.03
			c-0.32-0.02-0.63-0.16-0.87-0.33c-0.24-0.18-0.42-0.4-0.57-0.62c-0.29-0.45-0.45-0.94-0.52-1.44c-0.01-0.06,0.03-0.11,0.09-0.12
			C30.35,35.46,30.39,35.47,30.42,35.51L30.42,35.51z"/>
	</g>
	<g>
		<path class="st2" d="M48.2,18.18c-0.06,0.29-0.11,0.6-0.15,0.9c-0.04,0.3-0.07,0.61-0.09,0.92c-0.02,0.31-0.03,0.61-0.01,0.92
			c0.02,0.3,0.05,0.61,0.14,0.89l0,0c0.02,0.05-0.01,0.11-0.07,0.13c-0.05,0.01-0.1-0.01-0.12-0.05c-0.15-0.29-0.23-0.61-0.3-0.92
			c-0.07-0.32-0.11-0.63-0.15-0.95c-0.03-0.32-0.05-0.64-0.07-0.96c-0.01-0.32-0.02-0.64,0-0.97c0.01-0.23,0.2-0.41,0.43-0.4
			c0.23,0.01,0.41,0.2,0.4,0.43C48.21,18.14,48.21,18.16,48.2,18.18L48.2,18.18z"/>
	</g>
	<g class="st6">
		<path class="st5" d="M35.12,31.3c0.09-0.03,0.19-0.06,0.28-0.05c0.1,0,0.2,0.04,0.25,0.12c0.09,0.13,0.03,0.32-0.07,0.44
			c-0.18,0.21-0.47,0.29-0.74,0.36c-0.15,0.04-0.3,0.07-0.46,0.05c-0.15-0.03-0.3-0.13-0.33-0.28
			C33.97,31.55,34.88,31.37,35.12,31.3z"/>
	</g>
	<g class="st6">
		<path class="st5" d="M39.13,28.64c0.11,0.06,0.23,0.12,0.36,0.13s0.26-0.03,0.34-0.13c0.11-0.13,0.08-0.32,0.04-0.49
			c-0.13-0.48-0.37-0.92-0.61-1.35c-0.08-0.14-0.16-0.28-0.28-0.39c-0.55-0.51-1.04,0.36-0.99,0.86
			C38.05,27.83,38.68,28.38,39.13,28.64z"/>
	</g>
	<g class="st1">
		<path class="st2" d="M28.74,34.31c0.08,0.11,0.2,0.2,0.34,0.22c0.14,0.02,0.29-0.05,0.34-0.17c0.06-0.15-0.04-0.32-0.16-0.43
			s-0.27-0.2-0.34-0.34c-0.05-0.09-0.08-0.2-0.18-0.21C28.34,33.32,28.66,34.19,28.74,34.31z"/>
	</g>
	<g class="st1">
		<path class="st2" d="M30.55,34.81c0.3-0.1,0.19-0.74-0.2-0.62C29.99,34.31,30.28,34.9,30.55,34.81z"/>
	</g>
	<g class="st1">
		<path class="st2" d="M29.49,33.49c0.01,0.06,0.04,0.12,0.09,0.16c0.02,0.02,0.05,0.03,0.08,0.04c0.03,0.01,0.06,0,0.09-0.01
			c0.07-0.04,0.09-0.12,0.1-0.2C29.88,33.21,29.42,33.17,29.49,33.49z"/>
	</g>
	<g class="st1">
		<path class="st2" d="M43.78,28.74c-0.1,0.27-0.24,0.55-0.49,0.71c-0.08,0.05-0.18,0.09-0.27,0.06c-0.09-0.03-0.15-0.12-0.19-0.22
			c-0.08-0.22-0.05-0.48,0.08-0.68c0.14-0.2,0.56-0.61,0.82-0.61C44.12,28,43.86,28.55,43.78,28.74z"/>
	</g>
	<g class="st1">
		<path class="st2" d="M44.01,27.02c-0.03,0.08-0.05,0.16-0.05,0.24s0.04,0.17,0.11,0.21c0.09,0.05,0.2,0.01,0.28-0.05
			c0.11-0.09,0.17-0.22,0.17-0.36c0-0.13-0.08-0.35-0.23-0.36C44.12,26.69,44.05,26.9,44.01,27.02z"/>
	</g>
	<g class="st1">
		<path class="st2" d="M43.16,26.8c-0.12,0-0.23,0.11-0.24,0.23c0,0.12,0.1,0.24,0.22,0.25c0.12,0.01,0.24-0.09,0.26-0.21
			c0.01-0.12-0.08-0.25-0.2-0.27"/>
	</g>
	<g class="st1">
		<path class="st2" d="M36.96,28.98c0.25,0.31,0.18,0.75,0.12,1.14c-0.06,0.39-0.09,0.84,0.19,1.12c0.33,0.33,0.89,0.2,1.32,0.38
			c0.37,0.15,0.62,0.53,0.62,0.92c0,0.27-0.1,0.58,0.07,0.79c0.14,0.17,0.4,0.19,0.61,0.14c0.42-0.1,0.79-0.43,0.93-0.84
			c0.15-0.41,0.07-0.9-0.19-1.25c-0.57-0.76-1.98-0.52-2.6-1.25C37.72,29.74,37.42,29.18,36.96,28.98z"/>
	</g>
	<g class="st1">
		<path class="st7" d="M30.98,32.01c-0.33,0.2-0.77,0.19-1.09-0.02c-0.29-0.19-0.46-0.53-0.71-0.78c-0.13-0.14-0.29-0.25-0.39-0.42
			c-0.14-0.25-0.1-0.58,0.06-0.81s0.42-0.4,0.69-0.49c-0.05,0.5,0.09,1.02,0.34,1.45C30.14,31.37,30.53,31.8,30.98,32.01z"/>
	</g>
	<g>
		<path class="st3" d="M45.62,77.97c-2.17,0.47-2.77,3.1-0.53,5.54c0.69,0.75,1.62,1.28,2.64,1.37c1.45,0.13,2.13-0.69,2.41-2
			c0.32-1.47,0.99-2.84,2.05-3.9c1.32-1.32,3.02-2.29,4.96-3.05c1.83-0.1,3.24-0.92,4.44-2.12c0.31-0.31,0.73-0.51,1.18-0.51
			c1.26-0.01,2.07-0.75,2.54-2.06c0.14-0.4,0.38-0.74,0.7-1.03c1.49-1.36,2.07-2.85,1.65-4.5c-0.16-0.61-0.07-1.27,0.23-1.83
			c0.64-1.2,0.57-2.29-0.27-3.28c-0.2-0.23-0.32-0.52-0.41-0.81c-0.17-0.58-0.6-0.99-0.93-1.24c-0.27-0.2-0.5-0.46-0.65-0.77
			c-2.03-4.32-8.8-4.14-10.64-1.6c-0.82,1.13-0.8,2.46-0.8,2.46c-1.53,1.25-2.67,2.58-2.17,4.23c0.3,1.27-0.01,2.38-1.15,3.28
			c-0.39,0.31-0.73,0.68-0.95,1.13c-0.3,0.61-0.56,1.5-0.21,2.43c0.52,1.39-0.61,4.63-2.05,6.86
			C47.18,77.29,46.45,77.79,45.62,77.97z"/>
	</g>
	<g class="st1">
		<path class="st2" d="M47.73,84.87c1.45,0.13,2.13-0.69,2.41-2c0.32-1.46,0.99-2.84,2.05-3.9c1.32-1.32,3.02-2.29,4.95-3.05
			c1.83-0.1,3.24-0.92,4.44-2.12c0.31-0.31,0.73-0.51,1.18-0.51c1.26-0.01,2.08-0.75,2.55-2.06c0.14-0.4,0.38-0.74,0.69-1.03
			c1.49-1.36,2.07-2.85,1.64-4.5c-0.16-0.61-0.07-1.27,0.22-1.83c0.64-1.19,0.57-2.29-0.27-3.28c-0.2-0.23-0.32-0.52-0.41-0.81
			c-0.17-0.58-0.6-0.99-0.93-1.24c-0.28-0.2-0.5-0.46-0.65-0.77c-1.4-2.99-5.07-3.82-7.8-3.22c0.48,0.35,0.92,0.78,1.28,1.31
			c0.19,0.28,0.46,0.5,0.77,0.65c0.37,0.19,0.86,0.52,1.13,1.07c0.13,0.28,0.3,0.54,0.54,0.74c0.99,0.84,1.24,1.91,0.81,3.19
			c-0.2,0.6-0.18,1.26,0.08,1.84c0.69,1.56,0.37,3.13-0.88,4.71c-0.26,0.33-0.44,0.71-0.52,1.13c-0.25,1.37-0.93,2.23-2.17,2.45
			c-0.44,0.08-0.82,0.34-1.07,0.7c-0.98,1.39-2.25,2.43-4.03,2.83c-1.78,1.06-3.29,2.3-4.38,3.83c-0.87,1.22-1.31,2.68-1.38,4.18
			c-0.03,0.68-0.19,1.25-0.52,1.66C47.55,84.86,47.64,84.87,47.73,84.87z"/>
	</g>
	<g class="st4">
		<path class="st5" d="M46.66,84.62c-0.16-0.13-0.31-0.28-0.45-0.44c-2.23-2.44-1.64-5.07,0.53-5.54c0.83-0.18,1.56-0.69,2.02-1.4
			c1.45-2.23,2.57-5.47,2.06-6.86c-0.35-0.93-0.09-1.82,0.21-2.43c0.22-0.45,0.56-0.82,0.95-1.13c1.14-0.9,1.44-2.01,1.15-3.28
			c-0.5-1.65,0.64-2.98,2.17-4.23c0,0-0.02-1.33,0.8-2.46c1.3-1.8,5.08-2.42,7.89-1.09c-2.83-2.15-7.52-1.63-9,0.42
			c-0.82,1.13-0.8,2.46-0.8,2.46c-1.53,1.25-2.67,2.58-2.17,4.23c0.3,1.27-0.01,2.38-1.15,3.28c-0.39,0.31-0.73,0.68-0.95,1.13
			c-0.31,0.61-0.56,1.5-0.21,2.43c0.52,1.39-0.61,4.63-2.05,6.86c-0.46,0.71-1.19,1.22-2.02,1.4c-2.17,0.47-2.77,3.1-0.53,5.54
			C45.53,83.99,46.06,84.38,46.66,84.62z"/>
	</g>
	<g class="st6">
		<path class="st5" d="M55.98,60.62c0.2,0.44,0.79,0.57,1.06,0.97c0.12,0.17,0.17,0.37,0.23,0.57c0.06,0.2,0.14,0.4,0.29,0.53
			c0.15,0.14,0.4,0.19,0.56,0.07c0.14-0.1,0.18-0.28,0.2-0.44c0.07-0.57-0.06-1.16-0.36-1.64c-0.27-0.43-0.76-0.92-1.27-1.03
			C56.18,59.54,55.77,60.14,55.98,60.62z"/>
	</g>
	<g>
		<path class="st2" d="M48,85.41c-0.11,0-0.21-0.01-0.32-0.01c-1.1-0.09-2.15-0.64-2.97-1.53c-1.31-1.43-1.83-3.09-1.4-4.45
			c0.32-1,1.12-1.71,2.21-1.95c0.69-0.15,1.31-0.58,1.69-1.17c1.46-2.25,2.42-5.29,2-6.4c-0.33-0.88-0.25-1.87,0.23-2.84
			c0.24-0.48,0.61-0.92,1.1-1.31c0.92-0.73,1.23-1.6,0.97-2.75c-0.57-1.94,0.74-3.42,2.17-4.62c0.04-0.48,0.2-1.55,0.89-2.51
			c1.02-1.41,3.36-2.21,5.82-1.98c2.65,0.25,4.73,1.58,5.71,3.66c0.1,0.22,0.27,0.42,0.49,0.58c0.39,0.29,0.91,0.79,1.12,1.51
			c0.08,0.28,0.18,0.48,0.31,0.63c0.96,1.14,1.08,2.48,0.33,3.86c-0.24,0.45-0.31,0.97-0.18,1.45c0.47,1.82-0.13,3.51-1.8,5.02
			c-0.25,0.23-0.45,0.51-0.56,0.82c-0.71,1.97-2.04,2.39-3.03,2.4c-0.29,0-0.59,0.13-0.82,0.36c-1.41,1.41-2.95,2.16-4.7,2.27
			c-2,0.79-3.54,1.74-4.7,2.9c-0.94,0.93-1.6,2.19-1.91,3.64C50.22,84.94,49.03,85.41,48,85.41z M45.62,77.97l0.11,0.51
			c-0.72,0.16-1.23,0.6-1.44,1.25c-0.32,1,0.12,2.28,1.18,3.43c0.64,0.7,1.46,1.13,2.3,1.2c1.04,0.09,1.6-0.39,1.86-1.59
			c0.36-1.64,1.12-3.08,2.19-4.15c1.28-1.28,2.96-2.32,5.13-3.17c0.05-0.02,0.11-0.03,0.16-0.03c1.54-0.08,2.84-0.71,4.1-1.97
			c0.42-0.42,0.98-0.66,1.54-0.67c0.99-0.01,1.64-0.55,2.06-1.71c0.17-0.46,0.45-0.89,0.83-1.24c1.38-1.25,1.86-2.56,1.49-3.99
			c-0.19-0.74-0.09-1.52,0.27-2.2c0.55-1.02,0.48-1.88-0.21-2.7c-0.22-0.26-0.38-0.59-0.51-1c-0.13-0.44-0.48-0.77-0.74-0.97
			c-0.36-0.26-0.64-0.6-0.81-0.97c-0.82-1.74-2.59-2.85-4.87-3.07c-2.07-0.19-4.08,0.45-4.88,1.55c-0.7,0.97-0.7,2.14-0.7,2.15
			c0,0.16-0.07,0.31-0.19,0.41c-1.78,1.45-2.36,2.52-2.01,3.68c0,0.01,0.01,0.02,0.01,0.03c0.36,1.54-0.09,2.83-1.33,3.81
			c-0.37,0.29-0.64,0.61-0.81,0.95c-0.25,0.5-0.48,1.25-0.19,2.02c0.61,1.62-0.59,5-2.1,7.32c-0.54,0.82-1.39,1.42-2.35,1.62
			L45.62,77.97z"/>
	</g>
	<g>
		<path class="st2" d="M54.66,58.5c-0.02,0.06-0.01,0.21,0.04,0.32c0.02,0.06,0.06,0.11,0.09,0.15c0.04,0.04,0.04,0.06,0.12,0.1
			c0.13,0.07,0.3,0.12,0.48,0.15c0.19,0.03,0.39,0.04,0.61,0.06c0.22,0.02,0.45,0.04,0.68,0.1c0.23,0.06,0.46,0.17,0.65,0.31
			c0.38,0.28,0.65,0.69,0.75,1.13c0.01,0.06-0.02,0.11-0.08,0.12c-0.05,0.01-0.1-0.02-0.12-0.06l0,0c-0.15-0.37-0.43-0.67-0.77-0.83
			c-0.34-0.17-0.69-0.18-1.1-0.14c-0.4,0.03-0.88,0.11-1.41-0.06c-0.12-0.03-0.3-0.12-0.41-0.23c-0.12-0.1-0.22-0.22-0.3-0.35
			c-0.15-0.25-0.26-0.53-0.25-0.89l0-0.11c0.01-0.29,0.26-0.52,0.55-0.51c0.29,0.01,0.52,0.26,0.51,0.55
			C54.69,58.38,54.68,58.45,54.66,58.5z"/>
	</g>
	<g>
		<path class="st2" d="M67.92,64.81c0.09,0.42,0.12,0.85,0.08,1.29c-0.04,0.44-0.16,0.89-0.38,1.3c-0.23,0.42-0.56,0.76-0.96,1.01
			c-0.4,0.25-0.9,0.38-1.39,0.34c-0.49-0.06-0.88-0.26-1.23-0.4c-0.17-0.08-0.34-0.14-0.5-0.18c-0.16-0.04-0.35-0.07-0.54-0.09
			c-0.38-0.05-0.83-0.07-1.24-0.32c-0.19-0.12-0.36-0.28-0.48-0.48c-0.12-0.2-0.17-0.45-0.1-0.67c0.02-0.05,0.08-0.09,0.13-0.07
			c0.05,0.01,0.08,0.06,0.07,0.1l0,0c-0.02,0.34,0.27,0.61,0.58,0.73c0.08,0.03,0.16,0.06,0.24,0.07c0.08,0.01,0.17,0.02,0.26,0.03
			c0.18,0.01,0.37,0.01,0.57,0c0.2,0,0.41,0,0.64,0.03c0.23,0.03,0.44,0.09,0.63,0.16c0.39,0.13,0.73,0.26,1.03,0.27
			c0.59,0.03,1.19-0.4,1.49-0.96c0.31-0.57,0.37-1.3,0.28-2.02c-0.03-0.23,0.14-0.43,0.36-0.46C67.68,64.46,67.88,64.6,67.92,64.81
			L67.92,64.81z"/>
	</g>
	<g>
		<path class="st2" d="M55.27,66.57c-0.03,0.11,0,0.21,0.05,0.3c0.05,0.09,0.13,0.16,0.21,0.2c0.18,0.1,0.41,0.14,0.7,0.19
			c0.15,0.03,0.3,0.07,0.47,0.14c0.16,0.07,0.34,0.18,0.48,0.34c0.14,0.16,0.23,0.37,0.27,0.55c0.04,0.18,0.05,0.35,0.06,0.5
			c0.01,0.3,0,0.54,0.06,0.72c0.06,0.19,0.18,0.38,0.35,0.52c0.32,0.29,0.86,0.36,1.35,0.14l0,0c0.05-0.02,0.12,0,0.14,0.05
			c0.02,0.04,0.01,0.08-0.02,0.11c-0.21,0.23-0.52,0.39-0.84,0.44c-0.33,0.05-0.7-0.02-1-0.2c-0.3-0.18-0.55-0.46-0.7-0.79
			c-0.07-0.17-0.11-0.36-0.13-0.52c-0.02-0.16-0.02-0.31-0.03-0.45c-0.01-0.27-0.05-0.46-0.13-0.56c-0.07-0.11-0.27-0.22-0.53-0.31
			c-0.25-0.1-0.59-0.21-0.85-0.49c-0.14-0.15-0.21-0.32-0.24-0.51c-0.02-0.18,0.03-0.39,0.16-0.52c0.04-0.04,0.11-0.04,0.15,0.01
			c0.02,0.03,0.03,0.06,0.02,0.1L55.27,66.57z"/>
	</g>
	<g>
		<path class="st2" d="M59.38,75.86c-1.55,0.34-3.18,0.09-4.5-0.65c-0.05-0.03-0.07-0.09-0.04-0.14c0.03-0.05,0.08-0.06,0.13-0.05
			c1.36,0.53,2.89,0.52,4.18,0.04c0.22-0.08,0.45,0.03,0.54,0.24c0.08,0.21-0.03,0.45-0.24,0.54
			C59.42,75.85,59.41,75.86,59.38,75.86L59.38,75.86z"/>
	</g>
	<g>
		<path class="st2" d="M50.54,65.76c1.14-1.08,2.64-1.69,4.11-1.72c0.07,0,0.13,0.06,0.13,0.13c0,0.06-0.04,0.12-0.1,0.13
			c-1.38,0.29-2.6,1.09-3.37,2.15c-0.17,0.23-0.49,0.28-0.73,0.12c-0.23-0.17-0.28-0.49-0.12-0.73
			C50.49,65.81,50.51,65.79,50.54,65.76L50.54,65.76z"/>
	</g>
	<g>
		<path class="st2" d="M50.1,69.6c0.07,0.32,0.18,0.67,0.29,1c0.12,0.33,0.25,0.66,0.4,0.98c0.15,0.32,0.33,0.63,0.52,0.93
			c0.2,0.29,0.42,0.57,0.68,0.81l0,0c0.04,0.04,0.04,0.11,0,0.15c-0.04,0.04-0.09,0.04-0.14,0.01c-0.3-0.22-0.58-0.47-0.84-0.75
			c-0.25-0.28-0.48-0.58-0.69-0.89c-0.21-0.31-0.4-0.64-0.57-0.97c-0.17-0.34-0.33-0.67-0.47-1.04c-0.08-0.21,0.03-0.45,0.24-0.54
			c0.21-0.08,0.45,0.03,0.54,0.24C50.08,69.55,50.09,69.57,50.1,69.6L50.1,69.6z"/>
	</g>
	<g>
		<path class="st8" d="M61.41,59.8c2.58,0.89,2.82,2.3,0.74,4.22"/>
	</g>
	<g>
		<path class="st2" d="M61.45,59.7c0.5,0.04,1,0.18,1.47,0.44c0.23,0.13,0.46,0.3,0.65,0.53c0.19,0.23,0.34,0.53,0.38,0.85
			c0.03,0.16,0.01,0.32,0,0.47c-0.03,0.15-0.06,0.3-0.12,0.43c-0.11,0.27-0.25,0.5-0.42,0.71c-0.33,0.41-0.74,0.73-1.18,0.97
			c-0.05,0.03-0.12,0.01-0.14-0.04c-0.02-0.03-0.02-0.08,0-0.11l0,0c0.26-0.42,0.53-0.81,0.74-1.2c0.21-0.39,0.35-0.79,0.3-1.11
			c-0.02-0.16-0.09-0.32-0.19-0.47c-0.1-0.15-0.25-0.31-0.42-0.45c-0.33-0.29-0.74-0.53-1.15-0.81l0,0
			c-0.05-0.03-0.06-0.1-0.03-0.15C61.37,59.71,61.41,59.7,61.45,59.7z"/>
	</g>
	<g>
		<path class="st2" d="M44.92,77.79c0.33-0.03,0.65-0.04,0.97-0.05c0.32-0.01,0.64,0,0.96,0.01c0.32,0.02,0.64,0.04,0.96,0.1
			c0.32,0.05,0.64,0.12,0.94,0.25c0.05,0.02,0.08,0.08,0.05,0.14c-0.02,0.05-0.07,0.07-0.12,0.06l0,0c-0.29-0.07-0.6-0.09-0.9-0.09
			c-0.3,0-0.61,0.03-0.91,0.06c-0.3,0.03-0.61,0.08-0.91,0.14c-0.3,0.06-0.61,0.12-0.89,0.19l0,0c-0.22,0.06-0.45-0.08-0.51-0.3
			c-0.06-0.22,0.08-0.45,0.3-0.51C44.87,77.79,44.89,77.79,44.92,77.79z"/>
	</g>
	<g class="st6">
		<path class="st5" d="M57.44,64.82c-0.02,0.09-0.05,0.19-0.04,0.29c0.01,0.1,0.05,0.19,0.13,0.25c0.13,0.08,0.32,0.01,0.43-0.1
			c0.2-0.19,0.27-0.48,0.32-0.76c0.03-0.15,0.06-0.31,0.02-0.46c-0.03-0.15-0.14-0.29-0.3-0.32C57.63,63.66,57.5,64.58,57.44,64.82z
			"/>
	</g>
	<g class="st6">
		<path class="st0" d="M55,68.97c0.07,0.11,0.13,0.22,0.15,0.35s-0.01,0.27-0.11,0.35c-0.13,0.11-0.32,0.1-0.48,0.07
			c-0.49-0.1-0.94-0.32-1.38-0.54c-0.14-0.07-0.29-0.14-0.41-0.25c-0.54-0.52,0.31-1.05,0.81-1.03C54.14,67.94,54.72,68.53,55,68.97
			z"/>
	</g>
	<g class="st1">
		<path class="st2" d="M60.09,58.29c0.11,0.08,0.21,0.19,0.24,0.33c0.03,0.14-0.03,0.29-0.16,0.35c-0.15,0.07-0.32-0.02-0.44-0.14
			c-0.12-0.11-0.21-0.26-0.36-0.32c-0.09-0.04-0.21-0.07-0.22-0.17C59.09,57.94,59.97,58.21,60.09,58.29z"/>
	</g>
	<g class="st1">
		<path class="st2" d="M60.7,60.07c-0.09,0.31-0.73,0.23-0.63-0.16C60.16,59.53,60.77,59.79,60.7,60.07z"/>
	</g>
	<g class="st1">
		<path class="st2" d="M59.31,59.08c0.06,0.01,0.12,0.03,0.17,0.08c0.02,0.02,0.04,0.05,0.05,0.08c0.01,0.03,0.01,0.06-0.01,0.09
			c-0.03,0.07-0.12,0.1-0.2,0.11C59.06,59.49,59,59.03,59.31,59.08z"/>
	</g>
	<g class="st1">
		<path class="st7" d="M55.36,73.61c0.27-0.12,0.54-0.27,0.68-0.53c0.05-0.08,0.08-0.18,0.04-0.27c-0.04-0.09-0.13-0.15-0.22-0.17
			c-0.23-0.07-0.49-0.02-0.68,0.12c-0.2,0.15-0.58,0.59-0.56,0.86C54.64,73.99,55.17,73.7,55.36,73.61z"/>
	</g>
	<g class="st1">
		<path class="st7" d="M53.66,73.93c0.08-0.03,0.16-0.06,0.24-0.06c0.08,0,0.17,0.03,0.21,0.1c0.05,0.09,0.02,0.2-0.04,0.29
			c-0.08,0.11-0.21,0.18-0.35,0.19c-0.13,0.01-0.35-0.06-0.37-0.21C53.32,74.07,53.54,73.98,53.66,73.93z"/>
	</g>
	<g class="st1">
		<path class="st7" d="M53.39,73.1c-0.01-0.12,0.1-0.24,0.22-0.25c0.12-0.01,0.24,0.09,0.26,0.21c0.02,0.12-0.08,0.25-0.2,0.27
			c-0.12,0.02-0.25-0.07-0.28-0.19"/>
	</g>
	<g class="st1">
		<path class="st7" d="M55.22,66.78c0.32,0.23,0.76,0.14,1.14,0.06s0.83-0.14,1.12,0.13c0.34,0.31,0.25,0.88,0.45,1.3
			c0.17,0.36,0.56,0.59,0.96,0.57c0.27-0.02,0.57-0.13,0.8,0.02c0.18,0.13,0.21,0.39,0.17,0.6c-0.08,0.43-0.39,0.81-0.79,0.98
			c-0.4,0.17-0.89,0.12-1.25-0.12c-0.79-0.53-0.63-1.95-1.39-2.52C56.02,67.5,55.45,67.23,55.22,66.78z"/>
	</g>
	<g class="st1">
		<path class="st2" d="M57.92,60.65c0.18-0.34,0.15-0.78-0.08-1.09c-0.21-0.28-0.55-0.43-0.81-0.67c-0.14-0.13-0.27-0.28-0.44-0.36
			c-0.26-0.13-0.58-0.07-0.81,0.11c-0.23,0.17-0.37,0.44-0.45,0.71c0.49-0.08,1.02,0.04,1.47,0.26S57.69,60.21,57.92,60.65z"/>
	</g>
	<g>
		<path class="st3" d="M34.87,83.34c-1.41,1.72-0.23,4.15,3.03,4.66c1.01,0.16,2.06-0.01,2.91-0.57c1.21-0.8,1.23-1.87,0.64-3.07
			c-0.66-1.35-0.99-2.84-0.82-4.33c0.21-1.86,0.94-3.68,1.98-5.47c1.37-1.21,1.97-2.74,2.16-4.43c0.05-0.44,0.26-0.86,0.6-1.14
			c0.98-0.79,1.16-1.87,0.71-3.19c-0.14-0.4-0.16-0.82-0.1-1.24c0.32-1.99-0.15-3.52-1.52-4.55c-0.51-0.38-0.85-0.95-0.96-1.57
			c-0.24-1.34-0.99-2.15-2.26-2.4c-0.3-0.06-0.57-0.21-0.82-0.38c-0.49-0.35-1.09-0.4-1.5-0.39c-0.34,0.01-0.68-0.05-0.99-0.2
			c-4.28-2.12-9.46,2.25-9.32,5.38c0.06,1.4,0.91,2.42,0.91,2.42c-0.42,1.93-0.48,3.68,0.94,4.67c1.02,0.81,1.48,1.87,1.15,3.28
			c-0.11,0.49-0.15,0.99-0.04,1.48c0.14,0.67,0.5,1.52,1.35,2.04c1.27,0.76,2.41,4,2.67,6.65C35.66,81.83,35.41,82.68,34.87,83.34z"
			/>
	</g>
	<g class="st1">
		<path class="st2" d="M40.81,87.43c1.21-0.8,1.23-1.87,0.64-3.07c-0.66-1.34-0.99-2.84-0.82-4.33c0.21-1.86,0.94-3.68,1.98-5.47
			c1.37-1.21,1.97-2.74,2.15-4.43c0.05-0.44,0.26-0.86,0.6-1.14c0.98-0.79,1.16-1.88,0.71-3.2c-0.14-0.4-0.16-0.82-0.1-1.24
			c0.32-1.99-0.15-3.52-1.52-4.55c-0.51-0.38-0.85-0.95-0.96-1.57c-0.24-1.33-0.99-2.15-2.26-2.4c-0.3-0.06-0.57-0.21-0.82-0.38
			c-0.49-0.35-1.08-0.4-1.5-0.39c-0.34,0.01-0.68-0.05-0.99-0.2c-2.96-1.46-6.34,0.17-8.11,2.34c0.6-0.03,1.2,0.04,1.82,0.22
			c0.33,0.1,0.67,0.1,1.01,0.03c0.41-0.08,1-0.13,1.55,0.13c0.28,0.13,0.57,0.23,0.88,0.24c1.29,0.04,2.16,0.72,2.62,1.99
			c0.21,0.59,0.65,1.1,1.21,1.39c1.51,0.79,2.24,2.22,2.25,4.24c0,0.42,0.1,0.83,0.3,1.2c0.66,1.23,0.66,2.33-0.17,3.27
			c-0.29,0.33-0.43,0.78-0.4,1.22c0.09,1.7-0.24,3.3-1.39,4.72c-0.73,1.94-1.14,3.85-1.04,5.72c0.08,1.5,0.65,2.91,1.52,4.13
			c0.4,0.55,0.63,1.09,0.63,1.62C40.67,87.52,40.74,87.48,40.81,87.43z"/>
	</g>
	<g class="st4">
		<path class="st5" d="M39.81,87.89c-0.21,0-0.42-0.02-0.63-0.06c-3.26-0.51-4.44-2.95-3.03-4.66c0.54-0.66,0.79-1.51,0.71-2.35
			c-0.25-2.64-1.39-5.88-2.66-6.65c-0.85-0.51-1.21-1.36-1.35-2.03c-0.1-0.49-0.07-0.99,0.04-1.48c0.33-1.41-0.13-2.47-1.15-3.28
			c-1.42-0.98-1.36-2.73-0.94-4.67c0,0-0.84-1.03-0.91-2.42c-0.1-2.22,2.47-5.06,5.5-5.77c-3.55,0.08-6.9,3.41-6.78,5.94
			c0.07,1.4,0.91,2.42,0.91,2.42c-0.42,1.94-0.48,3.68,0.94,4.67c1.02,0.81,1.48,1.87,1.15,3.28c-0.11,0.49-0.15,0.99-0.04,1.48
			c0.14,0.67,0.5,1.52,1.35,2.04c1.27,0.76,2.41,4,2.67,6.65c0.08,0.84-0.17,1.69-0.71,2.35c-1.41,1.72-0.23,4.15,3.03,4.66
			C38.54,88.1,39.2,88.07,39.81,87.89z"/>
	</g>
	<g class="st6">
		<path class="st5" d="M32.17,63.31c0.43,0.22,0.97-0.04,1.44,0.1c0.2,0.06,0.36,0.19,0.53,0.3c0.17,0.12,0.35,0.22,0.56,0.24
			c0.2,0.01,0.43-0.1,0.49-0.29c0.05-0.16-0.03-0.33-0.12-0.47c-0.3-0.49-0.77-0.87-1.3-1.06c-0.48-0.17-1.17-0.25-1.64-0.02
			C31.65,62.34,31.7,63.07,32.17,63.31z"/>
	</g>
	<g>
		<path class="st2" d="M38.63,88.58c-0.27,0-0.54-0.02-0.81-0.06c-1.91-0.3-3.36-1.28-3.86-2.61c-0.37-0.98-0.19-2.04,0.51-2.9
			c0,0,0,0,0,0c0.45-0.55,0.66-1.26,0.6-1.97c-0.26-2.67-1.41-5.65-2.42-6.25c-0.81-0.49-1.36-1.31-1.59-2.37
			c-0.11-0.52-0.1-1.09,0.04-1.7c0.27-1.14-0.04-2.02-0.95-2.75c-1.66-1.16-1.55-3.14-1.18-4.96c-0.27-0.4-0.82-1.34-0.87-2.52
			c-0.08-1.74,1.25-3.82,3.32-5.17c2.23-1.46,4.69-1.71,6.75-0.69c0.21,0.11,0.47,0.16,0.74,0.15c0.49-0.02,1.2,0.05,1.82,0.48
			c0.24,0.17,0.44,0.26,0.63,0.3c1.46,0.29,2.38,1.27,2.66,2.82c0.09,0.5,0.36,0.95,0.76,1.25c1.5,1.13,2.08,2.83,1.72,5.05
			c-0.06,0.34-0.03,0.68,0.07,0.99c0.67,1.98-0.1,3.14-0.87,3.76c-0.23,0.18-0.38,0.47-0.41,0.79c-0.22,1.98-0.96,3.52-2.26,4.7
			c-1.07,1.86-1.68,3.56-1.87,5.2c-0.15,1.31,0.12,2.71,0.77,4.04c0.98,1.98,0.09,3.12-0.82,3.73
			C40.39,88.33,39.53,88.58,38.63,88.58z M35.27,83.66c-0.47,0.57-0.59,1.23-0.35,1.87c0.37,0.98,1.52,1.71,3.06,1.95
			c0.94,0.15,1.85-0.03,2.55-0.49c0.87-0.58,1.01-1.3,0.46-2.41c-0.74-1.51-1.04-3.1-0.87-4.62c0.21-1.8,0.88-3.66,2.04-5.67
			c0.03-0.05,0.06-0.09,0.1-0.13c1.15-1.02,1.78-2.33,1.98-4.1c0.07-0.59,0.35-1.13,0.79-1.48c0.77-0.62,0.94-1.46,0.54-2.62
			c-0.16-0.47-0.2-0.98-0.12-1.49c0.3-1.83-0.13-3.16-1.32-4.05c-0.61-0.46-1.02-1.13-1.16-1.89c-0.21-1.14-0.8-1.77-1.85-1.99
			c-0.33-0.07-0.67-0.22-1.02-0.47c-0.38-0.26-0.85-0.31-1.18-0.29c-0.44,0.02-0.87-0.07-1.24-0.25c-1.72-0.85-3.8-0.62-5.72,0.63
			c-1.74,1.14-2.91,2.89-2.85,4.26c0.06,1.2,0.78,2.11,0.79,2.12c0.1,0.12,0.14,0.28,0.1,0.44c-0.49,2.24-0.28,3.44,0.72,4.13
			c0.01,0.01,0.02,0.01,0.03,0.02c1.24,0.98,1.69,2.26,1.33,3.81c-0.11,0.46-0.12,0.88-0.04,1.25c0.12,0.54,0.4,1.28,1.11,1.7
			c1.49,0.89,2.65,4.28,2.91,7.04C36.19,81.92,35.89,82.91,35.27,83.66L35.27,83.66z"/>
	</g>
	<g>
		<path class="st2" d="M29.81,62.47c0.02,0.06,0.12,0.17,0.23,0.23c0.06,0.03,0.11,0.05,0.16,0.07c0.05,0.01,0.07,0.02,0.16,0
			c0.15-0.02,0.31-0.09,0.47-0.18c0.16-0.09,0.33-0.21,0.51-0.33c0.18-0.12,0.38-0.25,0.6-0.34c0.22-0.1,0.46-0.15,0.7-0.16
			c0.47-0.02,0.94,0.13,1.29,0.42c0.04,0.04,0.05,0.1,0.01,0.15c-0.03,0.04-0.09,0.05-0.13,0.02l0,0c-0.34-0.2-0.75-0.25-1.12-0.17
			c-0.37,0.07-0.65,0.3-0.95,0.58c-0.3,0.28-0.62,0.63-1.14,0.83c-0.11,0.05-0.31,0.09-0.47,0.08c-0.16-0.01-0.31-0.04-0.45-0.08
			c-0.28-0.1-0.53-0.25-0.75-0.54l-0.07-0.09c-0.18-0.24-0.13-0.57,0.11-0.75c0.24-0.18,0.57-0.13,0.75,0.11
			C29.77,62.36,29.8,62.42,29.81,62.47z"/>
	</g>
	<g>
		<path class="st2" d="M44.12,59.15c0.33,0.27,0.62,0.59,0.87,0.96c0.24,0.37,0.43,0.79,0.51,1.25c0.08,0.47,0.04,0.95-0.12,1.39
			c-0.16,0.44-0.46,0.86-0.88,1.13c-0.42,0.26-0.85,0.35-1.21,0.45c-0.18,0.05-0.35,0.1-0.5,0.17c-0.15,0.07-0.31,0.16-0.48,0.27
			c-0.33,0.2-0.69,0.46-1.17,0.52c-0.23,0.02-0.46,0-0.67-0.08c-0.22-0.08-0.41-0.25-0.5-0.47c-0.02-0.05,0.01-0.11,0.06-0.13
			c0.05-0.02,0.1,0,0.12,0.04l0,0c0.2,0.28,0.59,0.31,0.9,0.21c0.08-0.02,0.16-0.05,0.23-0.09c0.07-0.04,0.15-0.09,0.22-0.14
			c0.15-0.11,0.29-0.22,0.45-0.35c0.15-0.13,0.32-0.26,0.52-0.37c0.2-0.12,0.4-0.2,0.59-0.27c0.39-0.14,0.73-0.25,0.97-0.43
			c0.48-0.35,0.68-1.06,0.57-1.68c-0.12-0.64-0.52-1.25-1.03-1.76c-0.16-0.16-0.16-0.42,0-0.59C43.72,59.03,43.96,59.02,44.12,59.15
			L44.12,59.15z"/>
	</g>
	<g>
		<path class="st2" d="M35.32,68.41c0.05,0.1,0.13,0.16,0.23,0.2c0.09,0.04,0.2,0.05,0.29,0.03c0.2-0.03,0.41-0.15,0.67-0.28
			c0.13-0.06,0.28-0.13,0.46-0.18c0.17-0.05,0.38-0.07,0.59-0.03c0.21,0.04,0.41,0.15,0.55,0.26c0.15,0.12,0.26,0.24,0.35,0.36
			c0.19,0.23,0.34,0.42,0.49,0.52c0.17,0.12,0.38,0.18,0.6,0.19c0.43,0.03,0.9-0.25,1.14-0.73l0,0c0.03-0.05,0.09-0.07,0.14-0.05
			c0.04,0.02,0.06,0.06,0.06,0.1c-0.02,0.31-0.16,0.62-0.39,0.87c-0.23,0.24-0.55,0.42-0.9,0.47c-0.35,0.05-0.71-0.01-1.04-0.19
			c-0.16-0.09-0.31-0.21-0.42-0.32c-0.12-0.12-0.21-0.23-0.3-0.33c-0.18-0.2-0.33-0.33-0.45-0.36c-0.13-0.04-0.35,0-0.6,0.09
			c-0.26,0.08-0.59,0.2-0.97,0.15c-0.2-0.03-0.37-0.12-0.5-0.25c-0.13-0.13-0.23-0.32-0.2-0.51c0.01-0.06,0.06-0.1,0.12-0.09
			c0.04,0.01,0.06,0.03,0.08,0.06L35.32,68.41z"/>
	</g>
	<g>
		<path class="st2" d="M44.32,73.12c-1,1.24-2.43,2.05-3.93,2.3c-0.06,0.01-0.11-0.03-0.12-0.09c-0.01-0.05,0.02-0.1,0.07-0.12
			c1.4-0.44,2.58-1.39,3.3-2.58c0.12-0.2,0.37-0.26,0.57-0.14c0.2,0.12,0.26,0.37,0.14,0.57C44.35,73.08,44.33,73.1,44.32,73.12
			L44.32,73.12z"/>
	</g>
	<g>
		<path class="st2" d="M31.12,70.72c0.22-1.56,1.01-2.96,2.14-3.91c0.06-0.05,0.14-0.04,0.18,0.02c0.04,0.05,0.04,0.12,0,0.17
			c-0.9,1.08-1.35,2.47-1.29,3.78c0.01,0.29-0.21,0.53-0.5,0.54c-0.29,0.01-0.53-0.21-0.54-0.5c0-0.03,0-0.06,0-0.09L31.12,70.72z"
			/>
	</g>
	<g>
		<path class="st2" d="M33.15,74c0.26,0.21,0.56,0.42,0.86,0.6c0.3,0.19,0.61,0.36,0.93,0.52c0.32,0.15,0.65,0.29,0.98,0.4
			c0.34,0.1,0.68,0.18,1.04,0.21l0,0c0.06,0.01,0.1,0.06,0.09,0.11c-0.01,0.05-0.05,0.09-0.1,0.09c-0.37,0.02-0.75-0.01-1.12-0.07
			c-0.37-0.07-0.73-0.16-1.09-0.27c-0.36-0.12-0.71-0.25-1.05-0.41c-0.35-0.16-0.67-0.32-1.02-0.52c-0.2-0.12-0.26-0.37-0.15-0.57
			c0.12-0.2,0.37-0.26,0.57-0.15C33.12,73.97,33.13,73.98,33.15,74L33.15,74z"/>
	</g>
	<g>
		<path class="st8" d="M35.91,59.28c2.57-0.91,3.64,0.04,3.21,2.84"/>
	</g>
	<g>
		<path class="st2" d="M35.87,59.18c0.42-0.28,0.89-0.48,1.42-0.57c0.27-0.04,0.55-0.05,0.84,0.01c0.29,0.06,0.59,0.2,0.82,0.43
			c0.12,0.11,0.21,0.24,0.29,0.37c0.07,0.13,0.14,0.27,0.18,0.41c0.08,0.28,0.12,0.55,0.11,0.82c-0.01,0.53-0.12,1.03-0.32,1.49
			c-0.02,0.05-0.09,0.08-0.14,0.06c-0.04-0.02-0.06-0.05-0.06-0.09l0,0c-0.06-0.49-0.09-0.97-0.17-1.4
			c-0.08-0.43-0.22-0.83-0.46-1.05c-0.12-0.12-0.26-0.2-0.44-0.26c-0.18-0.06-0.39-0.08-0.6-0.09c-0.44-0.02-0.91,0.04-1.4,0.08l0,0
			c-0.06,0-0.11-0.04-0.11-0.1C35.82,59.24,35.84,59.2,35.87,59.18z"/>
	</g>
	<g>
		<path class="st2" d="M34.2,83.63c0.24-0.23,0.48-0.43,0.73-0.64c0.25-0.2,0.5-0.4,0.76-0.59c0.26-0.19,0.53-0.37,0.81-0.52
			c0.28-0.16,0.58-0.3,0.89-0.39c0.06-0.02,0.11,0.02,0.13,0.07c0.01,0.05-0.01,0.1-0.06,0.12l0,0c-0.27,0.13-0.52,0.3-0.76,0.49
			c-0.24,0.19-0.46,0.4-0.68,0.62c-0.22,0.22-0.42,0.44-0.63,0.67c-0.2,0.23-0.4,0.47-0.58,0.71l0,0c-0.14,0.18-0.4,0.22-0.58,0.08
			c-0.18-0.14-0.22-0.4-0.08-0.58C34.17,83.66,34.18,83.65,34.2,83.63z"/>
	</g>
	<g class="st6">
		<path class="st5" d="M35.92,65.69c0.04,0.09,0.08,0.18,0.15,0.25c0.07,0.07,0.16,0.12,0.26,0.11c0.16-0.02,0.26-0.19,0.28-0.34
			c0.03-0.28-0.09-0.54-0.22-0.79c-0.07-0.14-0.15-0.28-0.27-0.37s-0.3-0.14-0.43-0.06C35.35,64.66,35.82,65.46,35.92,65.69z"/>
	</g>
	<g class="st6">
		<path class="st0" d="M36.6,70.45c0.12,0.04,0.24,0.09,0.33,0.18c0.09,0.09,0.15,0.22,0.13,0.34c-0.03,0.17-0.19,0.28-0.34,0.35
			c-0.44,0.22-0.93,0.33-1.42,0.44c-0.16,0.03-0.32,0.07-0.48,0.05c-0.74-0.07-0.42-1.01-0.01-1.31
			C35.28,70.18,36.11,70.28,36.6,70.45z"/>
	</g>
	<g class="st1">
		<path class="st2" d="M33.93,58.93c0.14-0.01,0.29,0.02,0.39,0.1c0.11,0.09,0.16,0.25,0.1,0.37c-0.07,0.15-0.27,0.18-0.43,0.17
			c-0.16-0.02-0.33-0.07-0.49-0.03c-0.09,0.02-0.21,0.07-0.28,0.01C32.93,59.28,33.79,58.94,33.93,58.93z"/>
	</g>
	<g class="st1">
		<path class="st2" d="M35.51,59.94c0.13,0.29-0.43,0.63-0.59,0.27C34.76,59.85,35.4,59.67,35.51,59.94z"/>
	</g>
	<g class="st1">
		<path class="st2" d="M33.82,60.03c0.06-0.03,0.12-0.05,0.18-0.04c0.03,0,0.06,0.02,0.09,0.04c0.03,0.02,0.04,0.05,0.05,0.08
			c0.02,0.08-0.03,0.15-0.09,0.21C33.87,60.51,33.54,60.19,33.82,60.03z"/>
	</g>
	<g class="st1">
		<path class="st7" d="M39.77,73.86c0.14-0.26,0.25-0.55,0.2-0.84c-0.02-0.09-0.05-0.19-0.13-0.24c-0.08-0.05-0.19-0.03-0.28,0
			c-0.22,0.09-0.39,0.29-0.45,0.52c-0.06,0.24-0.08,0.82,0.09,1.02C39.44,74.6,39.68,74.05,39.77,73.86z"/>
	</g>
	<g class="st1">
		<path class="st7" d="M38.64,75.17c0.04-0.07,0.08-0.14,0.15-0.2c0.06-0.05,0.15-0.08,0.23-0.06c0.1,0.03,0.14,0.15,0.15,0.25
			c0,0.14-0.06,0.27-0.16,0.36c-0.1,0.08-0.31,0.18-0.43,0.07C38.46,75.48,38.57,75.29,38.64,75.17z"/>
	</g>
	<g class="st1">
		<path class="st7" d="M37.91,74.69c-0.08-0.09-0.07-0.25,0.02-0.33c0.09-0.08,0.25-0.08,0.33,0c0.09,0.09,0.09,0.24,0.01,0.33
			s-0.24,0.1-0.33,0.03"/>
	</g>
	<g class="st1">
		<path class="st7" d="M35.41,68.6c0.39-0.02,0.68-0.36,0.93-0.66c0.25-0.3,0.57-0.63,0.96-0.6c0.46,0.03,0.74,0.53,1.16,0.74
			c0.35,0.18,0.81,0.11,1.1-0.15c0.2-0.18,0.37-0.46,0.64-0.48c0.22-0.01,0.4,0.17,0.51,0.37c0.2,0.39,0.2,0.88-0.01,1.26
			c-0.21,0.38-0.62,0.65-1.06,0.69c-0.95,0.08-1.7-1.13-2.66-1.11C36.48,68.67,35.87,68.82,35.41,68.6z"/>
	</g>
	<g class="st1">
		<path class="st2" d="M33.7,62.13c-0.07-0.38-0.37-0.7-0.74-0.8c-0.34-0.09-0.7,0-1.05-0.01c-0.19-0.01-0.38-0.05-0.57-0.01
			c-0.28,0.06-0.49,0.31-0.57,0.59c-0.07,0.28-0.02,0.57,0.09,0.84c0.34-0.37,0.82-0.61,1.31-0.71
			C32.67,61.92,33.25,61.92,33.7,62.13z"/>
	</g>
	<g>
		<path class="st3" d="M47.27,45.99c0,0,0.5,3.44,3.97,3.03c0,0,2.51,1.64,4.09,0.9c3.58,1.4,7.57-0.37,8.63-3.45
			c3.19-2.39-0.17-7.09-0.17-7.09c1.13-1.26-0.22-2.59-0.22-2.59c0.91-1.63-1.16-4.13-1.16-4.13c3.84-0.73,5.08-3.61,5.48-5.56
			c0.22-1.07,0.18-1.86,0.18-1.86c-2.42,1.86-7.04,1.67-7.04,1.67c-1.56-1.26-2.63,0.15-2.63,0.15s-4.89-0.69-4.44,3.47
			c0,0-1.25,1.42-0.58,3.1c0.46,1.14,1.77,3.07,1.89,5.16c0,0-0.45,1.95-3.34,0.86c-2.9-1.09-6.13-0.17-5.65,2.47
			C45.06,43.64,45.67,44.89,47.27,45.99z"/>
	</g>
	<g class="st4">
		<path class="st5" d="M46.43,45.3c-0.12-0.59,0.06-1.22,0.6-1.92c-0.49-2.64,2.75-3.56,5.65-2.47c2.9,1.09,3.34-0.86,3.34-0.86
			c-0.12-2.09-1.44-4.01-1.89-5.16c-0.67-1.68,0.58-3.1,0.58-3.1c-0.45-4.17,4.44-3.47,4.44-3.47s1.06-1.42,2.63-0.15
			c0,0,3.59,0.15,6.1-1.09c0.22-1.07,0.18-1.86,0.18-1.86c-2.42,1.86-7.04,1.67-7.04,1.67c-1.56-1.26-2.63,0.15-2.63,0.15
			s-4.89-0.69-4.44,3.47c0,0-1.25,1.42-0.58,3.1c0.46,1.14,1.77,3.07,1.89,5.16c0,0-0.45,1.95-3.34,0.86
			c-2.9-1.09-6.13-0.17-5.65,2.47C45.31,43.33,45.5,44.37,46.43,45.3z"/>
	</g>
	<g>
		<path class="st2" d="M57.9,50.92c-0.87,0-1.74-0.15-2.57-0.45c-1.57,0.56-3.6-0.55-4.22-0.92c-2.83,0.24-4.03-1.9-4.31-3.26
			c-0.99-0.72-1.53-1.46-1.65-2.27c-0.1-0.67,0.09-1.36,0.58-2.05c-0.11-0.97,0.21-1.81,0.92-2.41c1.21-1.01,3.4-1.18,5.45-0.41
			c0.91,0.34,1.64,0.39,2.12,0.14c0.34-0.17,0.47-0.46,0.52-0.58c-0.11-1.39-0.78-2.72-1.32-3.79c-0.21-0.42-0.4-0.78-0.53-1.11
			c-0.64-1.6,0.18-2.96,0.53-3.45c-0.08-1.18,0.23-2.12,0.92-2.79c1.18-1.15,3.12-1.12,3.84-1.06c0.24-0.23,0.68-0.56,1.29-0.64
			c0.58-0.07,1.16,0.1,1.72,0.51c0.82,0.01,4.54-0.03,6.55-1.56c0.15-0.12,0.36-0.14,0.53-0.06c0.18,0.08,0.29,0.25,0.3,0.45
			c0,0.06,0.21,6.19-5.31,7.77c0.56,0.86,1.36,2.41,0.89,3.71c0.48,0.62,0.91,1.68,0.25,2.7c1.2,1.86,2.49,5.37-0.03,7.39
			c-0.56,1.47-1.77,2.73-3.34,3.45C60.05,50.69,58.98,50.92,57.9,50.92z M55.32,49.39c0.06,0,0.13,0.01,0.19,0.04
			c1.65,0.65,3.51,0.59,5.1-0.14c1.37-0.63,2.41-1.73,2.85-3c0.03-0.1,0.1-0.18,0.18-0.25c2.75-2.06-0.25-6.34-0.28-6.38
			c-0.14-0.2-0.13-0.47,0.04-0.65c0.77-0.86-0.1-1.78-0.2-1.88c-0.16-0.16-0.2-0.42-0.09-0.62c0.6-1.08-0.59-2.92-1.1-3.54
			c-0.12-0.14-0.15-0.33-0.09-0.51c0.06-0.17,0.21-0.3,0.39-0.33c2.28-0.43,3.85-1.72,4.67-3.81c0.31-0.8,0.45-1.56,0.52-2.13
			c-2.61,1.36-6.32,1.22-6.5,1.22c-0.11,0-0.22-0.04-0.3-0.11c-0.38-0.31-0.74-0.44-1.08-0.4c-0.49,0.06-0.81,0.46-0.81,0.47
			c-0.11,0.15-0.3,0.22-0.48,0.2c-0.02,0-2.18-0.29-3.26,0.76c-0.49,0.48-0.69,1.2-0.59,2.15c0.02,0.15-0.03,0.29-0.13,0.4
			c-0.04,0.05-1.03,1.21-0.49,2.57c0.11,0.28,0.29,0.63,0.49,1.03c0.57,1.12,1.34,2.66,1.44,4.29c0,0.05,0,0.1-0.01,0.15
			c-0.02,0.09-0.22,0.86-1.05,1.31c-0.76,0.41-1.77,0.38-2.99-0.08c-1.68-0.63-3.5-0.54-4.42,0.23c-0.48,0.4-0.66,0.96-0.54,1.66
			c0.03,0.15-0.01,0.3-0.1,0.41c-0.41,0.52-0.58,1-0.51,1.44c0.08,0.55,0.55,1.12,1.39,1.7c0.12,0.08,0.2,0.21,0.22,0.35
			c0.05,0.3,0.53,2.93,3.39,2.59c0.12-0.01,0.24,0.01,0.34,0.08c0.63,0.41,2.51,1.37,3.58,0.87C55.17,49.41,55.24,49.39,55.32,49.39
			z"/>
	</g>
	<g>
		<path class="st2" d="M55.78,38.74c-0.02,0.58-0.13,1.16-0.34,1.7c-0.21,0.54-0.51,1.02-0.87,1.44c-0.07,0.08-0.18,0.09-0.26,0.02
			c-0.07-0.06-0.08-0.15-0.04-0.23l0,0c0.25-0.45,0.42-0.93,0.5-1.41c0.08-0.48,0.07-0.97-0.02-1.45c-0.05-0.28,0.14-0.55,0.42-0.6
			c0.28-0.05,0.55,0.14,0.6,0.42c0.01,0.04,0.01,0.07,0.01,0.11L55.78,38.74z"/>
	</g>
	<g>
		<path class="st2" d="M62.53,33.15c-0.18,0.03-0.33,0.04-0.49,0.06c-0.16,0.01-0.32,0.02-0.47,0.03c-0.31,0.01-0.63,0.01-0.94,0
			c-0.31-0.01-0.62-0.03-0.93-0.06c-0.31-0.03-0.61-0.07-0.92-0.11c-0.1-0.01-0.17-0.11-0.16-0.21c0.01-0.09,0.09-0.16,0.17-0.16
			l0,0c0.3-0.01,0.6-0.03,0.89-0.06c0.3-0.03,0.59-0.07,0.88-0.11c0.29-0.05,0.58-0.1,0.87-0.17c0.14-0.03,0.28-0.07,0.42-0.11
			c0.14-0.04,0.28-0.08,0.4-0.12c0.27-0.1,0.57,0.04,0.67,0.31c0.1,0.27-0.04,0.57-0.31,0.67C62.6,33.13,62.57,33.14,62.53,33.15
			L62.53,33.15z"/>
	</g>
	<g>
		<path class="st2" d="M60.99,39.22c-0.17,0.1-0.23,0.27-0.24,0.43c-0.01,0.08,0,0.16,0.02,0.24c0.02,0.08,0.04,0.17,0.08,0.26
			c0.06,0.19,0.14,0.4,0.19,0.66c0.02,0.13,0.04,0.27,0.01,0.44c-0.02,0.16-0.07,0.33-0.17,0.46c-0.04,0.07-0.1,0.13-0.15,0.19
			c-0.05,0.06-0.13,0.12-0.2,0.17c-0.15,0.09-0.31,0.15-0.47,0.17c-0.31,0.04-0.61-0.03-0.86-0.16c-0.25-0.14-0.43-0.34-0.57-0.54
			c-0.13-0.2-0.24-0.41-0.31-0.62c-0.03-0.08,0.01-0.17,0.1-0.2c0.05-0.02,0.11-0.01,0.15,0.03c0.18,0.14,0.33,0.29,0.49,0.41
			c0.16,0.12,0.32,0.22,0.46,0.26c0.14,0.05,0.3,0.05,0.41,0.03c0.06-0.02,0.11-0.03,0.14-0.06c0.02-0.02,0.03-0.02,0.05-0.04
			c0.02-0.02,0.04-0.04,0.05-0.07c0.06-0.08,0.08-0.18,0.07-0.36c-0.01-0.17-0.05-0.38-0.07-0.62c-0.01-0.12-0.01-0.25,0-0.38
			c0.01-0.13,0.05-0.28,0.12-0.4c0.07-0.12,0.16-0.23,0.27-0.31c0.06-0.04,0.12-0.07,0.19-0.09c0.07-0.02,0.14-0.03,0.2-0.02
			c0.04,0,0.07,0.04,0.07,0.08C61.04,39.19,61.02,39.21,60.99,39.22L60.99,39.22z"/>
	</g>
	<g>
		<path class="st2" d="M51.18,49.39c-0.32-1.04-0.33-2.14-0.06-3.13c0.03-0.1,0.13-0.16,0.23-0.13c0.09,0.02,0.14,0.1,0.14,0.19l0,0
			c-0.04,0.96,0.2,1.89,0.65,2.66c0.15,0.25,0.06,0.57-0.19,0.71c-0.25,0.15-0.57,0.06-0.71-0.19c-0.02-0.03-0.04-0.07-0.05-0.11
			L51.18,49.39z"/>
	</g>
	<g>
		<path class="st2" d="M53.9,44.87c0.1-0.01,0.21,0.02,0.29,0.07c0.09,0.05,0.15,0.12,0.2,0.19c0.1,0.13,0.17,0.27,0.23,0.37
			c0.11,0.2,0.26,0.37,0.42,0.52c0.16,0.15,0.34,0.27,0.53,0.35c0.18,0.08,0.38,0.12,0.52,0.11c0.07-0.01,0.14-0.03,0.2-0.06
			c0.06-0.04,0.13-0.09,0.19-0.17c0.13-0.15,0.22-0.37,0.34-0.61c0.12-0.24,0.26-0.52,0.51-0.73c0.12-0.1,0.26-0.18,0.42-0.22
			c0.15-0.04,0.32-0.04,0.46,0.02c0.04,0.02,0.06,0.06,0.04,0.1c-0.01,0.03-0.04,0.04-0.06,0.05l-0.01,0
			c-0.24,0.02-0.41,0.18-0.53,0.36c-0.11,0.18-0.17,0.4-0.24,0.65c-0.06,0.25-0.14,0.54-0.31,0.82c-0.09,0.14-0.2,0.28-0.36,0.4
			c-0.15,0.12-0.34,0.19-0.53,0.22c-0.38,0.06-0.72-0.03-1.01-0.17c-0.29-0.15-0.53-0.35-0.73-0.59c-0.2-0.24-0.34-0.52-0.41-0.82
			c-0.03-0.14-0.05-0.25-0.08-0.35c-0.01-0.05-0.03-0.09-0.05-0.12c-0.02-0.03-0.03-0.06-0.07-0.08l-0.04-0.02
			c-0.07-0.04-0.09-0.13-0.05-0.2C53.82,44.9,53.86,44.88,53.9,44.87z"/>
	</g>
	<g class="st1">
		<path class="st2" d="M51.23,49.01c0,0,2.51,1.64,4.09,0.9c3.58,1.4,7.57-0.37,8.63-3.45c3.19-2.39-0.17-7.09-0.17-7.09
			c1.13-1.26-0.22-2.59-0.22-2.59c0.91-1.63-1.16-4.13-1.16-4.13c3.84-0.73,5.08-3.61,5.48-5.56c0,0-3.18,4.25-8.71,4.2
			c-0.67-0.01-1.19,0.6-1.06,1.26c0.12,0.58,0.47,1.41,1.26,2.57c2.17,3.19,1.14,5.08,1.14,5.08s0.82,1.52-1,1.6
			c0,0-2.4,0.55-1.64,2.99c0,0-1.16,1.04-1.44,2c-0.28,0.95-1.83-0.73-1.83-0.73s-2.41-0.83-3.15,0.81c0,0-1.75,0.66-4.18-0.89
			C47.27,45.99,47.77,49.43,51.23,49.01z"/>
	</g>
	<g class="st1">
		<path class="st2" d="M59.02,37.75c-0.04,0.13-0.11,0.26-0.23,0.33c-0.12,0.07-0.29,0.07-0.38-0.04c-0.11-0.12-0.08-0.31-0.01-0.46
			c0.07-0.15,0.17-0.28,0.19-0.45c0.01-0.1,0-0.22,0.09-0.26C59.04,36.68,59.06,37.61,59.02,37.75z"/>
	</g>
	<g class="st1">
		<path class="st2" d="M48.8,45.45c0.2,0.22,0.43,0.43,0.72,0.48c0.09,0.02,0.2,0.01,0.27-0.05c0.08-0.06,0.1-0.17,0.09-0.27
			c-0.01-0.24-0.13-0.47-0.33-0.6c-0.2-0.14-0.75-0.36-0.99-0.26C48.21,44.89,48.65,45.31,48.8,45.45z"/>
	</g>
	<g class="st1">
		<path class="st2" d="M50.91,44.78c0.05,0.06,0.11,0.13,0.14,0.21s0.03,0.17-0.03,0.24c-0.07,0.08-0.19,0.09-0.28,0.05
			c-0.13-0.04-0.24-0.15-0.29-0.27c-0.05-0.12-0.06-0.35,0.08-0.42C50.68,44.51,50.82,44.68,50.91,44.78z"/>
	</g>
	<g class="st1">
		<path class="st2" d="M57.81,35.98c0.11-0.04,0.26,0.02,0.31,0.13c0.05,0.11-0.01,0.26-0.12,0.31c-0.11,0.05-0.26,0.01-0.32-0.1
			c-0.06-0.11-0.02-0.26,0.09-0.32"/>
	</g>
	<g class="st6">
		<path class="st5" d="M54.53,44.02c0.05,0.15,0.11,0.29,0.22,0.4c0.11,0.11,0.28,0.16,0.42,0.11c0.21-0.07,0.29-0.32,0.35-0.52
			c0.2-0.6,0.54-1.15,0.99-1.59c0.09-0.08,0.18-0.21,0.12-0.31c-0.05-0.09-0.17-0.09-0.27-0.08c-0.5,0.05-1.34,0.16-1.73,0.52
			C54.28,42.87,54.39,43.61,54.53,44.02z"/>
	</g>
	<g class="st6">
		<path class="st5" d="M56.41,31.66c-0.15-0.01-0.27-0.11-0.3-0.25c-0.1-0.49,0.11-1.04,0.48-1.39c0.37-0.35,0.87-0.54,1.38-0.63
			c0.16-0.03,0.31,0.07,0.36,0.23c0.01,0.03,0.02,0.06,0.03,0.09c0.05,0.16-0.04,0.33-0.2,0.39c-0.33,0.12-0.67,0.26-0.93,0.48
			c-0.25,0.2-0.44,0.5-0.48,0.81C56.73,31.55,56.58,31.66,56.41,31.66C56.41,31.66,56.41,31.66,56.41,31.66z"/>
	</g>
	<g class="st6">
		<path class="st5" d="M56.39,33.33c0.57-0.22,0.06-1.1-0.45-0.98C55.37,32.47,55.9,33.52,56.39,33.33z"/>
	</g>
	<g>
		<path class="st3" d="M34.2,75.93c-2.15,0.57-2.62,3.23-0.27,5.56c0.73,0.72,1.68,1.2,2.7,1.24c1.45,0.06,2.09-0.79,2.32-2.11
			c0.25-1.48,0.86-2.88,1.87-3.99c1.26-1.38,2.91-2.43,4.81-3.28c1.82-0.18,3.2-1.07,4.34-2.33c0.3-0.33,0.71-0.55,1.15-0.57
			c1.25-0.07,2.04-0.84,2.44-2.18c0.12-0.4,0.35-0.76,0.65-1.06c1.43-1.42,1.94-2.95,1.43-4.58c-0.19-0.6-0.13-1.26,0.14-1.84
			c0.58-1.23,0.46-2.32-0.43-3.27c-0.21-0.22-0.34-0.5-0.44-0.79c-0.2-0.57-0.65-0.96-0.99-1.19c-0.28-0.19-0.53-0.44-0.69-0.74
			c-2.24-4.22-8.99-3.71-10.7-1.09c-0.77,1.17-0.68,2.5-0.68,2.5c-1.47,1.32-2.55,2.7-1.97,4.33c0.36,1.25,0.1,2.38-0.99,3.33
			c-0.38,0.33-0.7,0.72-0.9,1.17c-0.28,0.63-0.49,1.53-0.1,2.44c0.59,1.36-0.39,4.66-1.73,6.95C35.72,75.18,35.02,75.72,34.2,75.93z
			"/>
	</g>
	<g class="st1">
		<path class="st2" d="M36.63,82.73c1.45,0.06,2.09-0.79,2.32-2.11c0.25-1.48,0.86-2.88,1.87-3.99c1.26-1.38,2.91-2.43,4.8-3.28
			c1.82-0.18,3.2-1.07,4.34-2.33c0.3-0.33,0.71-0.54,1.15-0.57c1.25-0.07,2.04-0.84,2.45-2.18c0.12-0.4,0.35-0.76,0.65-1.06
			c1.43-1.42,1.94-2.95,1.43-4.58c-0.19-0.6-0.13-1.26,0.14-1.84c0.59-1.22,0.46-2.32-0.42-3.27c-0.21-0.22-0.34-0.5-0.45-0.79
			c-0.2-0.57-0.64-0.96-0.99-1.19c-0.29-0.19-0.53-0.44-0.69-0.74c-1.54-2.92-5.24-3.58-7.95-2.84c0.5,0.33,0.95,0.74,1.34,1.25
			c0.21,0.27,0.49,0.48,0.8,0.62c0.38,0.17,0.88,0.48,1.18,1.01c0.15,0.27,0.33,0.52,0.57,0.71c1.03,0.79,1.33,1.85,0.96,3.15
			c-0.17,0.61-0.12,1.27,0.17,1.83c0.77,1.52,0.52,3.11-0.65,4.75c-0.24,0.34-0.41,0.73-0.46,1.15c-0.18,1.38-0.82,2.27-2.05,2.55
			c-0.43,0.1-0.8,0.38-1.04,0.75c-0.92,1.43-2.13,2.53-3.89,3.01c-1.73,1.15-3.18,2.46-4.19,4.03c-0.81,1.26-1.18,2.74-1.18,4.24
			c0,0.68-0.13,1.25-0.44,1.68C36.46,82.72,36.54,82.72,36.63,82.73z"/>
	</g>
	<g class="st4">
		<path class="st5" d="M35.55,82.52c-0.17-0.13-0.33-0.26-0.48-0.41c-2.35-2.33-1.88-4.99,0.27-5.56c0.82-0.22,1.52-0.76,1.95-1.49
			c1.34-2.29,2.31-5.59,1.73-6.95c-0.39-0.91-0.18-1.81,0.09-2.44c0.2-0.46,0.52-0.85,0.9-1.17c1.09-0.95,1.34-2.08,0.99-3.33
			c-0.57-1.63,0.5-3.01,1.97-4.33c0,0-0.08-1.32,0.68-2.5c1.21-1.86,4.96-2.66,7.83-1.46c-2.92-2.01-7.59-1.27-8.97,0.85
			c-0.76,1.17-0.68,2.5-0.68,2.5c-1.47,1.32-2.55,2.71-1.97,4.33c0.36,1.25,0.1,2.38-0.99,3.33c-0.37,0.33-0.7,0.72-0.9,1.17
			c-0.28,0.63-0.49,1.53-0.1,2.44c0.58,1.36-0.39,4.66-1.73,6.95c-0.43,0.73-1.13,1.27-1.95,1.49c-2.15,0.57-2.62,3.23-0.27,5.56
			C34.39,81.95,34.94,82.31,35.55,82.52z"/>
	</g>
	<g class="st6">
		<path class="st5" d="M43.73,58.11c0.22,0.43,0.81,0.53,1.11,0.92c0.12,0.16,0.19,0.36,0.26,0.56c0.07,0.19,0.16,0.39,0.31,0.52
			c0.16,0.13,0.41,0.17,0.57,0.05c0.13-0.1,0.17-0.28,0.18-0.45c0.04-0.57-0.11-1.15-0.44-1.63c-0.29-0.42-0.8-0.89-1.32-0.97
			C43.87,57.02,43.49,57.65,43.73,58.11z"/>
	</g>
	<g>
		<path class="st2" d="M36.75,83.25c-0.05,0-0.1,0-0.15,0c-1.1-0.04-2.18-0.54-3.04-1.39c-1.37-1.36-1.98-3-1.61-4.38
			c0.27-1.02,1.04-1.76,2.11-2.05c0,0,0,0,0,0c0.68-0.18,1.28-0.64,1.64-1.25c1.35-2.31,2.16-5.4,1.7-6.48
			c-0.37-0.87-0.34-1.85,0.1-2.85c0.21-0.49,0.56-0.94,1.03-1.36c0.89-0.77,1.15-1.66,0.83-2.79c-0.67-1.91,0.57-3.45,1.95-4.72
			c0.01-0.48,0.12-1.56,0.77-2.55c0.95-1.46,3.25-2.37,5.72-2.25c2.66,0.12,4.8,1.35,5.88,3.38c0.11,0.21,0.29,0.4,0.51,0.55
			c0.41,0.27,0.95,0.74,1.19,1.45c0.1,0.27,0.2,0.47,0.33,0.61c1.01,1.09,1.19,2.42,0.51,3.84c-0.22,0.46-0.26,0.98-0.11,1.46
			c0.56,1.79,0.03,3.51-1.56,5.1c-0.24,0.24-0.42,0.54-0.52,0.84c-0.61,2-1.92,2.49-2.91,2.54c-0.29,0.02-0.58,0.16-0.8,0.4
			c-1.34,1.48-2.84,2.29-4.59,2.49c-1.96,0.88-3.45,1.91-4.56,3.12c-0.89,0.98-1.49,2.27-1.74,3.73
			C39.1,82.79,37.82,83.25,36.75,83.25z M34.33,76.43c-0.71,0.19-1.2,0.66-1.38,1.31c-0.27,1.01,0.23,2.27,1.34,3.37
			c0.68,0.67,1.51,1.06,2.35,1.09c1.05,0.04,1.58-0.46,1.78-1.68c0.28-1.66,0.97-3.13,1.99-4.25c1.22-1.34,2.85-2.45,4.98-3.4
			c0.05-0.02,0.1-0.04,0.16-0.04c1.53-0.15,2.81-0.84,4.01-2.16c0.4-0.44,0.94-0.71,1.51-0.74c0.99-0.06,1.62-0.63,1.98-1.81
			c0.14-0.47,0.41-0.91,0.78-1.27c1.32-1.31,1.74-2.64,1.3-4.06c-0.23-0.73-0.17-1.51,0.17-2.21c0.5-1.05,0.39-1.9-0.34-2.69
			c-0.23-0.25-0.41-0.57-0.55-0.98c-0.15-0.44-0.51-0.75-0.79-0.93c-0.37-0.24-0.66-0.57-0.86-0.93c-0.9-1.7-2.72-2.73-5.01-2.83
			c-2.08-0.09-4.05,0.64-4.8,1.78c-0.66,1.02-0.6,2.17-0.6,2.18c0.01,0.16-0.05,0.31-0.17,0.42c-1.7,1.53-2.23,2.62-1.83,3.77
			c0,0.01,0.01,0.02,0.01,0.03c0.43,1.52,0.05,2.83-1.15,3.87c-0.36,0.31-0.61,0.64-0.76,0.99c-0.22,0.51-0.42,1.27-0.09,2.03
			c0.68,1.59-0.36,5.02-1.76,7.42C36.1,75.55,35.28,76.18,34.33,76.43L34.33,76.43z"/>
	</g>
	<g>
		<path class="st2" d="M42.3,56.06c-0.02,0.06,0,0.21,0.05,0.32c0.03,0.06,0.06,0.11,0.09,0.15c0.04,0.04,0.05,0.05,0.13,0.09
			c0.13,0.07,0.3,0.11,0.49,0.13c0.19,0.02,0.39,0.02,0.61,0.03c0.22,0.01,0.45,0.02,0.68,0.07c0.24,0.05,0.47,0.15,0.66,0.28
			c0.39,0.26,0.68,0.66,0.8,1.09c0.01,0.06-0.02,0.11-0.07,0.13c-0.05,0.01-0.1-0.01-0.12-0.06l0,0c-0.16-0.36-0.46-0.64-0.81-0.79
			c-0.34-0.16-0.7-0.14-1.11-0.08c-0.4,0.05-0.87,0.15-1.41,0.01c-0.12-0.03-0.3-0.11-0.42-0.21c-0.13-0.1-0.23-0.21-0.31-0.33
			c-0.17-0.24-0.29-0.52-0.29-0.88l0-0.11c0-0.29,0.23-0.54,0.53-0.54c0.29,0,0.54,0.23,0.54,0.53C42.33,55.94,42.32,56,42.3,56.06z
			"/>
	</g>
	<g>
		<path class="st2" d="M55.85,61.73c0.11,0.41,0.16,0.84,0.15,1.29c-0.02,0.44-0.12,0.9-0.32,1.31c-0.21,0.43-0.53,0.79-0.92,1.06
			c-0.39,0.26-0.88,0.43-1.37,0.4c-0.49-0.03-0.89-0.22-1.24-0.35c-0.18-0.07-0.34-0.13-0.51-0.16c-0.17-0.03-0.35-0.05-0.54-0.06
			c-0.39-0.03-0.83-0.03-1.25-0.26c-0.2-0.11-0.37-0.26-0.5-0.46c-0.13-0.19-0.19-0.44-0.13-0.67c0.01-0.06,0.07-0.09,0.13-0.08
			c0.05,0.01,0.08,0.05,0.08,0.1l0,0.01c0,0.34,0.29,0.59,0.61,0.7c0.08,0.03,0.16,0.05,0.24,0.06c0.08,0.01,0.17,0.02,0.26,0.02
			c0.18,0,0.37-0.01,0.57-0.02c0.2-0.01,0.41-0.02,0.64,0c0.23,0.02,0.44,0.07,0.64,0.13c0.39,0.11,0.74,0.23,1.04,0.22
			c0.59,0,1.17-0.46,1.44-1.03c0.28-0.59,0.31-1.31,0.19-2.03c-0.04-0.23,0.12-0.44,0.34-0.48C55.59,61.39,55.8,61.53,55.85,61.73
			L55.85,61.73z"/>
	</g>
	<g>
		<path class="st2" d="M43.29,64.09c-0.02,0.11,0.01,0.21,0.07,0.29c0.05,0.09,0.14,0.16,0.22,0.19c0.18,0.09,0.42,0.12,0.71,0.16
			c0.15,0.03,0.31,0.06,0.47,0.12c0.17,0.06,0.35,0.16,0.5,0.32c0.15,0.16,0.24,0.36,0.29,0.53c0.05,0.18,0.07,0.35,0.08,0.5
			c0.02,0.3,0.03,0.54,0.1,0.71c0.07,0.19,0.2,0.37,0.37,0.5c0.33,0.27,0.88,0.32,1.35,0.08l0,0c0.05-0.03,0.12-0.01,0.14,0.05
			c0.02,0.04,0.01,0.08-0.01,0.11c-0.2,0.24-0.5,0.41-0.82,0.48c-0.33,0.06-0.7,0.02-1.01-0.15c-0.31-0.16-0.57-0.43-0.73-0.76
			c-0.08-0.16-0.13-0.35-0.15-0.51c-0.03-0.16-0.04-0.31-0.05-0.44c-0.03-0.27-0.07-0.46-0.16-0.55c-0.08-0.1-0.28-0.2-0.54-0.28
			c-0.26-0.09-0.6-0.18-0.87-0.45c-0.14-0.14-0.23-0.31-0.26-0.5c-0.03-0.18,0.01-0.39,0.14-0.53c0.04-0.04,0.11-0.04,0.15,0
			c0.03,0.03,0.04,0.06,0.03,0.09L43.29,64.09z"/>
	</g>
	<g>
		<path class="st2" d="M47.84,73.17c-1.54,0.42-3.17,0.24-4.53-0.43c-0.05-0.03-0.07-0.09-0.05-0.14c0.02-0.05,0.08-0.07,0.13-0.05
			c1.39,0.46,2.91,0.39,4.18-0.16c0.21-0.09,0.46,0.01,0.55,0.22c0.09,0.21-0.01,0.46-0.22,0.55
			C47.88,73.16,47.87,73.17,47.84,73.17L47.84,73.17z"/>
	</g>
	<g>
		<path class="st2" d="M38.54,63.5c1.09-1.14,2.55-1.81,4.03-1.91c0.07-0.01,0.13,0.05,0.14,0.12c0,0.06-0.04,0.12-0.1,0.14
			c-1.36,0.35-2.54,1.21-3.26,2.31c-0.16,0.24-0.48,0.31-0.72,0.15c-0.24-0.16-0.31-0.48-0.15-0.72
			C38.49,63.56,38.51,63.53,38.54,63.5L38.54,63.5z"/>
	</g>
	<g>
		<path class="st2" d="M38.27,67.36c0.09,0.32,0.21,0.66,0.34,0.99c0.13,0.33,0.28,0.65,0.45,0.96c0.17,0.31,0.36,0.61,0.56,0.9
			c0.21,0.28,0.45,0.55,0.72,0.78l0,0c0.04,0.04,0.05,0.1,0.01,0.15c-0.03,0.04-0.09,0.05-0.13,0.02c-0.31-0.21-0.6-0.45-0.87-0.71
			c-0.26-0.27-0.5-0.56-0.73-0.86c-0.22-0.3-0.43-0.62-0.61-0.94c-0.19-0.33-0.36-0.65-0.52-1.02c-0.09-0.21,0-0.46,0.21-0.55
			c0.21-0.09,0.46,0,0.55,0.21C38.26,67.31,38.26,67.33,38.27,67.36L38.27,67.36z"/>
	</g>
	<g>
		<path class="st8" d="M49.11,57.03c2.61,0.77,2.93,2.16,0.94,4.18"/>
	</g>
	<g>
		<path class="st2" d="M49.14,56.93c0.51,0.02,1.01,0.13,1.49,0.37c0.24,0.12,0.48,0.28,0.68,0.5c0.2,0.22,0.36,0.51,0.42,0.83
			c0.03,0.16,0.03,0.32,0.02,0.47c-0.02,0.15-0.05,0.3-0.1,0.44c-0.09,0.27-0.23,0.51-0.39,0.73c-0.31,0.43-0.7,0.76-1.14,1.02
			c-0.05,0.03-0.12,0.01-0.15-0.04c-0.02-0.03-0.02-0.07,0-0.11l0,0c0.24-0.43,0.49-0.84,0.68-1.24c0.19-0.4,0.31-0.8,0.25-1.12
			c-0.02-0.16-0.1-0.31-0.21-0.47c-0.11-0.15-0.26-0.29-0.44-0.43c-0.34-0.27-0.76-0.5-1.18-0.76l0,0c-0.05-0.03-0.07-0.1-0.04-0.15
			C49.07,56.95,49.1,56.93,49.14,56.93z"/>
	</g>
	<g>
		<path class="st2" d="M33.48,75.78c0.33-0.04,0.64-0.07,0.96-0.09c0.32-0.02,0.64-0.03,0.96-0.03c0.32,0,0.64,0.01,0.96,0.05
			c0.32,0.04,0.64,0.09,0.95,0.21c0.05,0.02,0.08,0.08,0.06,0.13c-0.02,0.05-0.07,0.08-0.12,0.07l0,0c-0.29-0.06-0.6-0.06-0.9-0.05
			c-0.3,0.01-0.61,0.05-0.91,0.1c-0.3,0.05-0.6,0.11-0.9,0.18c-0.3,0.07-0.6,0.15-0.88,0.24l0,0c-0.22,0.07-0.45-0.05-0.52-0.27
			c-0.07-0.22,0.05-0.45,0.27-0.52C33.44,75.79,33.46,75.78,33.48,75.78z"/>
	</g>
	<g class="st6">
		<path class="st5" d="M45.38,62.23c-0.02,0.09-0.04,0.19-0.02,0.29c0.01,0.1,0.06,0.19,0.15,0.24c0.14,0.08,0.32,0,0.43-0.12
			c0.19-0.2,0.24-0.49,0.28-0.77c0.02-0.15,0.04-0.31,0-0.46c-0.04-0.15-0.16-0.29-0.31-0.3C45.51,61.07,45.43,61.99,45.38,62.23z"
			/>
	</g>
	<g class="st6">
		<path class="st5" d="M43.14,66.5c0.07,0.1,0.14,0.22,0.17,0.34c0.02,0.13,0,0.27-0.09,0.36c-0.12,0.12-0.31,0.11-0.48,0.09
			c-0.49-0.08-0.95-0.27-1.41-0.47c-0.15-0.06-0.3-0.13-0.42-0.23c-0.56-0.49,0.26-1.07,0.76-1.07
			C42.23,65.51,42.84,66.07,43.14,66.5z"/>
	</g>
	<g class="st1">
		<path class="st2" d="M47.72,55.59c0.12,0.07,0.22,0.18,0.26,0.31c0.04,0.13-0.02,0.3-0.14,0.36c-0.15,0.07-0.32-0.01-0.45-0.12
			c-0.12-0.11-0.23-0.25-0.38-0.31c-0.09-0.04-0.21-0.06-0.23-0.16C46.7,55.28,47.6,55.52,47.72,55.59z"/>
	</g>
	<g class="st1">
		<path class="st2" d="M48.41,57.34c-0.07,0.31-0.72,0.26-0.64-0.13C47.85,56.82,48.47,57.05,48.41,57.34z"/>
	</g>
	<g class="st1">
		<path class="st2" d="M46.98,56.42c0.06,0.01,0.13,0.03,0.17,0.07c0.02,0.02,0.04,0.05,0.05,0.08c0.01,0.03,0.01,0.06,0,0.09
			c-0.03,0.07-0.11,0.1-0.19,0.12C46.74,56.84,46.66,56.38,46.98,56.42z"/>
	</g>
	<g class="st1">
		<path class="st7" d="M43.71,71.11c0.26-0.13,0.53-0.3,0.66-0.56c0.04-0.08,0.07-0.19,0.03-0.27c-0.04-0.09-0.14-0.14-0.23-0.16
			c-0.23-0.06-0.49,0-0.67,0.15c-0.19,0.16-0.55,0.62-0.52,0.88C43.01,71.52,43.54,71.21,43.71,71.11z"/>
	</g>
	<g class="st1">
		<path class="st7" d="M42.03,71.52c0.08-0.03,0.15-0.07,0.24-0.07c0.08-0.01,0.17,0.02,0.22,0.09c0.06,0.08,0.03,0.2-0.03,0.29
			c-0.08,0.11-0.21,0.19-0.34,0.2c-0.13,0.01-0.36-0.04-0.38-0.19C41.71,71.67,41.91,71.57,42.03,71.52z"/>
	</g>
	<g class="st1">
		<path class="st7" d="M41.73,70.7c-0.01-0.12,0.09-0.24,0.21-0.26c0.12-0.02,0.25,0.08,0.27,0.2c0.02,0.12-0.07,0.25-0.18,0.28
			c-0.12,0.03-0.25-0.05-0.29-0.17"/>
	</g>
	<g class="st1">
		<path class="st2" d="M43.26,64.3c0.33,0.21,0.76,0.11,1.14,0c0.38-0.1,0.83-0.18,1.13,0.07c0.36,0.3,0.29,0.86,0.51,1.28
			c0.18,0.35,0.59,0.57,0.98,0.53c0.27-0.03,0.57-0.16,0.8-0.01c0.18,0.12,0.23,0.38,0.2,0.59c-0.06,0.43-0.35,0.83-0.74,1.02
			c-0.39,0.19-0.88,0.16-1.26-0.06c-0.82-0.49-0.72-1.91-1.51-2.45C44.09,64.98,43.5,64.74,43.26,64.3z"/>
	</g>
	<g class="st1">
		<path class="st2" d="M45.66,58.05c0.17-0.35,0.11-0.78-0.13-1.08c-0.22-0.27-0.57-0.41-0.84-0.63c-0.15-0.12-0.28-0.27-0.45-0.34
			c-0.26-0.11-0.58-0.04-0.8,0.14s-0.35,0.45-0.42,0.73c0.49-0.1,1.02-0.01,1.48,0.19C44.94,57.28,45.41,57.62,45.66,58.05z"/>
	</g>
	<g>
		<path class="st3" d="M75.54,12.22c0,0,1.53,3.12-1.56,4.74c0,0-1.15,2.77-2.86,3.06c-2.16,3.18-6.45,3.97-9.07,2.04
			c-3.99-0.16-3.87-5.95-3.87-5.95c-1.65-0.4-1.28-2.26-1.28-2.26c-1.68-0.83-1.38-4.06-1.38-4.06c-3.58,1.57-6.23-0.1-7.66-1.49
			c-0.79-0.76-1.2-1.43-1.2-1.43c3.05,0.16,6.75-2.61,6.75-2.61c0.57-1.93,2.25-1.36,2.25-1.36s3.64-3.34,5.62,0.35
			c0,0,1.84,0.46,2.24,2.23c0.27,1.2,0.28,3.53,1.36,5.32c0,0,1.47,1.36,3.24-1.18c1.77-2.54,4.96-3.61,6.05-1.16
			C76.03,9.04,76.24,10.42,75.54,12.22z"/>
	</g>
	<g class="st4">
		<path class="st5" d="M75.84,11.18c-0.24-0.55-0.74-0.98-1.58-1.24c-1.09-2.45-4.28-1.38-6.05,1.16c-1.77,2.54-3.24,1.18-3.24,1.18
			c-1.08-1.79-1.09-4.12-1.36-5.32c-0.4-1.77-2.24-2.23-2.24-2.23c-1.99-3.69-5.62-0.35-5.62-0.35s-1.68-0.56-2.25,1.36
			c0,0-2.87,2.16-5.65,2.56c-0.79-0.76-1.2-1.43-1.2-1.43c3.05,0.16,6.75-2.61,6.75-2.61c0.57-1.93,2.25-1.36,2.25-1.36
			s3.64-3.34,5.62,0.35c0,0,1.84,0.46,2.24,2.23c0.27,1.2,0.28,3.53,1.36,5.32c0,0,1.47,1.36,3.24-1.18
			c1.77-2.54,4.96-3.61,6.05-1.16C75.65,8.92,76.08,9.9,75.84,11.18z"/>
	</g>
	<g>
		<path class="st2" d="M65.4,23.62c-1.3,0-2.53-0.37-3.53-1.06c-3.22-0.25-4.15-3.87-4.21-6.08c-1.12-0.47-1.36-1.59-1.32-2.37
			c-1.12-0.81-1.34-2.54-1.37-3.56c-0.81,0.27-1.58,0.39-2.3,0.39c-4.06,0-6.45-3.74-6.48-3.79c-0.1-0.16-0.1-0.37-0.01-0.54
			c0.1-0.17,0.28-0.27,0.47-0.25c2.51,0.13,5.62-1.95,6.28-2.42c0.23-0.66,0.61-1.13,1.13-1.4c0.55-0.28,1.1-0.26,1.43-0.21
			c0.56-0.45,2.15-1.57,3.77-1.3c0.96,0.16,1.74,0.76,2.34,1.78c0.57,0.2,2.01,0.87,2.39,2.54c0.08,0.34,0.13,0.75,0.19,1.21
			c0.16,1.19,0.36,2.67,1.06,3.88c0.1,0.07,0.38,0.23,0.76,0.18c0.53-0.07,1.11-0.52,1.66-1.32c1.25-1.79,3.15-2.9,4.72-2.75
			c0.93,0.09,1.67,0.61,2.13,1.46c0.8,0.29,1.35,0.75,1.64,1.36c0.36,0.74,0.33,1.66-0.08,2.81c0.54,1.29,0.76,3.72-1.71,5.13
			c-0.3,0.66-1.34,2.72-2.95,3.15c-1.16,1.6-2.91,2.71-4.85,3.04C66.19,23.59,65.79,23.62,65.4,23.62z M55.51,9.27
			c0.11,0,0.21,0.03,0.3,0.1c0.15,0.11,0.23,0.28,0.21,0.47c-0.07,0.8-0.01,3,1.1,3.54c0.21,0.1,0.32,0.33,0.28,0.56
			c-0.03,0.14-0.22,1.39,0.9,1.66c0.24,0.06,0.4,0.27,0.4,0.51c0,0.05-0.05,5.28,3.38,5.42c0.1,0,0.2,0.04,0.29,0.1
			c1.08,0.8,2.56,1.11,4.05,0.86c1.73-0.3,3.29-1.3,4.29-2.77c0.08-0.12,0.2-0.2,0.34-0.22c1.17-0.19,2.18-2.05,2.46-2.74
			c0.05-0.11,0.13-0.2,0.24-0.26c2.55-1.34,1.46-3.78,1.33-4.05c-0.06-0.13-0.07-0.28-0.02-0.41c0.37-0.95,0.43-1.69,0.19-2.19
			c-0.19-0.4-0.6-0.7-1.24-0.9c-0.14-0.04-0.26-0.15-0.32-0.28c-0.29-0.65-0.75-1.01-1.38-1.06c-1.2-0.11-2.75,0.84-3.77,2.31
			c-0.75,1.07-1.56,1.66-2.42,1.76c-0.94,0.1-1.54-0.43-1.6-0.49c-0.04-0.03-0.07-0.07-0.09-0.11c-0.85-1.4-1.08-3.11-1.24-4.35
			C63.12,6.27,63.07,5.89,63,5.59c-0.32-1.42-1.8-1.82-1.86-1.84C61,3.72,60.88,3.63,60.82,3.5c-0.45-0.84-1.02-1.32-1.7-1.44
			C57.87,1.86,56.45,2.88,56,3.29c-0.14,0.13-0.34,0.17-0.52,0.11c0,0-0.5-0.15-0.93,0.08c-0.3,0.16-0.52,0.47-0.66,0.94
			c-0.03,0.11-0.1,0.2-0.19,0.27c-0.14,0.11-3.13,2.33-6.05,2.68c1.11,1.3,3.79,3.65,7.65,1.96C55.37,9.29,55.44,9.27,55.51,9.27z"
			/>
	</g>
	<g>
		<path class="st2" d="M67.19,12.97c-0.53-0.14-1.06-0.37-1.53-0.69c-0.48-0.32-0.9-0.74-1.24-1.21l-0.01-0.01
			c-0.17-0.23-0.12-0.56,0.11-0.73c0.23-0.17,0.56-0.12,0.73,0.11c0.02,0.03,0.04,0.06,0.06,0.09c0.2,0.44,0.46,0.85,0.8,1.2
			c0.34,0.36,0.75,0.65,1.21,0.88l0,0c0.09,0.05,0.13,0.16,0.08,0.25C67.37,12.95,67.28,12.99,67.19,12.97z"/>
	</g>
	<g>
		<path class="st2" d="M55.34,9.3c0.11-0.03,0.26-0.08,0.39-0.12c0.14-0.05,0.27-0.1,0.41-0.15c0.27-0.11,0.54-0.23,0.81-0.35
			c0.27-0.13,0.53-0.26,0.79-0.41c0.26-0.14,0.52-0.3,0.77-0.46l0,0c0.09-0.05,0.2-0.03,0.25,0.06c0.05,0.08,0.03,0.18-0.03,0.23
			c-0.23,0.21-0.46,0.41-0.69,0.61c-0.24,0.2-0.48,0.39-0.73,0.57c-0.25,0.18-0.51,0.36-0.77,0.53c-0.13,0.08-0.27,0.17-0.41,0.24
			c-0.14,0.08-0.27,0.15-0.44,0.23l-0.01,0c-0.26,0.12-0.57,0.01-0.69-0.25c-0.12-0.26-0.01-0.57,0.25-0.69
			C55.27,9.32,55.31,9.31,55.34,9.3z"/>
	</g>
	<g>
		<path class="st2" d="M60.33,14.29c0.05-0.04,0.11-0.08,0.18-0.1c0.07-0.02,0.14-0.03,0.21-0.03c0.14,0,0.28,0.04,0.4,0.1
			c0.12,0.06,0.24,0.16,0.33,0.27c0.09,0.1,0.16,0.21,0.22,0.32c0.12,0.21,0.2,0.41,0.3,0.55c0.09,0.15,0.17,0.22,0.26,0.25
			c0.02,0.01,0.05,0.02,0.08,0.02c0.03,0.01,0.04,0.01,0.07,0.01c0.04,0,0.09-0.01,0.15-0.03c0.11-0.04,0.24-0.14,0.33-0.25
			c0.09-0.12,0.17-0.29,0.23-0.47c0.07-0.19,0.11-0.4,0.17-0.61c0.03-0.08,0.11-0.13,0.19-0.1c0.05,0.02,0.09,0.06,0.1,0.11
			c0.06,0.22,0.09,0.45,0.1,0.69c0,0.24-0.04,0.5-0.16,0.77c-0.13,0.26-0.33,0.48-0.62,0.62c-0.14,0.07-0.31,0.12-0.48,0.12
			c-0.09,0-0.18-0.01-0.26-0.03c-0.08-0.02-0.15-0.04-0.23-0.07c-0.15-0.06-0.29-0.17-0.4-0.29c-0.11-0.12-0.18-0.25-0.24-0.37
			c-0.11-0.24-0.16-0.46-0.21-0.65c-0.03-0.1-0.05-0.18-0.09-0.26c-0.03-0.08-0.06-0.14-0.12-0.21c-0.11-0.13-0.25-0.23-0.44-0.22
			l-0.01,0c-0.04,0-0.08-0.03-0.08-0.07C60.3,14.32,60.31,14.3,60.33,14.29z"/>
	</g>
	<g>
		<path class="st2" d="M73.25,17.44c-0.07-0.89-0.41-1.8-0.99-2.56l0,0c-0.06-0.08-0.04-0.19,0.03-0.25
			c0.07-0.05,0.16-0.05,0.22,0.01c0.78,0.66,1.39,1.57,1.71,2.61l0,0.01c0.08,0.27-0.07,0.55-0.33,0.63
			c-0.27,0.08-0.55-0.07-0.63-0.33C73.26,17.52,73.25,17.48,73.25,17.44z"/>
	</g>
	<g>
		<path class="st2" d="M69.62,15.3c-0.02,0.04-0.02,0.06-0.01,0.1c0,0.03,0.01,0.08,0.03,0.12c0.03,0.1,0.08,0.2,0.13,0.33
			c0.11,0.29,0.15,0.6,0.12,0.91c-0.03,0.31-0.11,0.62-0.27,0.9c-0.16,0.28-0.39,0.55-0.73,0.71c-0.17,0.08-0.37,0.12-0.56,0.12
			c-0.19-0.01-0.37-0.06-0.52-0.12c-0.3-0.13-0.53-0.33-0.72-0.5c-0.19-0.17-0.37-0.32-0.56-0.4c-0.2-0.08-0.43-0.11-0.64,0l-0.01,0
			c-0.04,0.02-0.08,0.01-0.1-0.03c-0.01-0.03-0.01-0.05,0-0.08c0.08-0.13,0.22-0.23,0.37-0.28c0.15-0.06,0.31-0.07,0.47-0.05
			c0.32,0.03,0.6,0.18,0.83,0.31c0.24,0.14,0.44,0.26,0.63,0.31c0.09,0.03,0.18,0.04,0.25,0.03c0.07,0,0.13-0.03,0.2-0.06
			c0.13-0.07,0.27-0.21,0.37-0.38c0.1-0.18,0.19-0.38,0.23-0.59c0.05-0.21,0.07-0.44,0.05-0.66c-0.01-0.12-0.03-0.27-0.02-0.44
			c0.01-0.08,0.02-0.17,0.06-0.27c0.04-0.09,0.12-0.18,0.2-0.22c0.07-0.04,0.16-0.01,0.2,0.07c0.02,0.04,0.02,0.09,0,0.13
			L69.62,15.3z"/>
	</g>
	<g class="st1">
		<path class="st2" d="M73.98,16.96c0,0-1.15,2.77-2.86,3.06c-2.16,3.18-6.45,3.97-9.07,2.04c-3.99-0.16-3.87-5.95-3.87-5.95
			c-1.65-0.4-1.28-2.26-1.28-2.26c-1.68-0.83-1.38-4.06-1.38-4.06c-3.58,1.57-6.23-0.1-7.66-1.49c0,0,5.03,1.7,9.56-1.46
			c0.55-0.38,1.33-0.18,1.58,0.44c0.23,0.55,0.41,1.43,0.42,2.83c0.02,3.85,1.93,4.84,1.93,4.84s0.18,1.72,1.73,0.76
			c0,0,2.29-0.9,3.05,1.54c0,0,1.55,0.21,2.31,0.83c0.77,0.63,1.1-1.64,1.1-1.64s1.52-2.05,3.06-1.12c0,0,1.82-0.45,2.95-3.1
			C75.54,12.22,77.07,15.34,73.98,16.96z"/>
	</g>
	<g class="st1">
		<path class="st2" d="M61.19,12.09c0.11,0.09,0.24,0.15,0.38,0.14c0.14-0.01,0.28-0.11,0.3-0.25c0.02-0.16-0.11-0.3-0.25-0.39
			c-0.14-0.08-0.3-0.14-0.41-0.26c-0.06-0.07-0.13-0.18-0.22-0.17C60.57,11.22,61.08,12,61.19,12.09z"/>
	</g>
	<g class="st1">
		<path class="st2" d="M73.98,12.65c-0.04,0.29-0.11,0.59-0.32,0.8c-0.07,0.07-0.15,0.12-0.25,0.12c-0.1-0.01-0.18-0.09-0.23-0.17
			c-0.13-0.2-0.15-0.46-0.07-0.68c0.09-0.23,0.41-0.72,0.67-0.78C74.14,11.86,74.01,12.45,73.98,12.65z"/>
	</g>
	<g class="st1">
		<path class="st2" d="M71.86,13.29c-0.01,0.08-0.02,0.17,0,0.25c0.02,0.08,0.08,0.16,0.16,0.18c0.1,0.03,0.2-0.03,0.26-0.12
			c0.08-0.11,0.11-0.26,0.08-0.39c-0.03-0.12-0.15-0.33-0.31-0.3C71.89,12.94,71.87,13.16,71.86,13.29z"/>
	</g>
	<g class="st1">
		<path class="st2" d="M61.18,9.95c-0.12,0.03-0.2,0.16-0.18,0.28c0.02,0.12,0.15,0.21,0.27,0.19c0.12-0.02,0.22-0.14,0.2-0.26
			c-0.01-0.12-0.13-0.22-0.26-0.21"/>
	</g>
	<g class="st6">
		<path class="st5" d="M68.44,14.71c0.04,0.15,0.07,0.3,0.04,0.45c-0.03,0.15-0.13,0.29-0.28,0.33c-0.21,0.06-0.41-0.1-0.59-0.23
			c-0.5-0.38-1.1-0.64-1.72-0.75c-0.12-0.02-0.27-0.07-0.28-0.19c-0.01-0.1,0.09-0.17,0.17-0.22c0.44-0.25,1.2-0.62,1.72-0.55
			C67.99,13.62,68.32,14.3,68.44,14.71z"/>
	</g>
	<g class="st6">
		<path class="st5" d="M59.89,5.59c0.12-0.09,0.16-0.24,0.1-0.38c-0.19-0.46-0.68-0.79-1.18-0.87c-0.51-0.08-1.02,0.05-1.49,0.27
			c-0.15,0.07-0.22,0.24-0.17,0.39c0.01,0.03,0.02,0.06,0.03,0.09c0.05,0.16,0.22,0.25,0.38,0.21c0.34-0.09,0.7-0.16,1.04-0.13
			c0.32,0.03,0.65,0.17,0.86,0.4C59.57,5.68,59.76,5.69,59.89,5.59C59.89,5.59,59.89,5.59,59.89,5.59z"/>
	</g>
	<g class="st6">
		<path class="st5" d="M60.86,6.95c-0.59,0.14-0.67-0.87-0.18-1.07C61.21,5.67,61.37,6.83,60.86,6.95z"/>
	</g>
	<g>
		<path class="st9" d="M26.07,65.36l0.07,0.27C26.11,65.55,26.09,65.46,26.07,65.36z"/>
	</g>
	<g>
		<path class="st9" d="M69.52,59.78c0.01,0.09,0.01,0.19,0,0.28L69.52,59.78z"/>
	</g>
	<g>
		<path class="st9" d="M24.13,64.11l0.16,0.47C24.2,64.42,24.15,64.27,24.13,64.11z"/>
	</g>
	<g>
		<path class="st10" d="M71.05,58.56L69.87,73.2l-1.25,15.65c0.9,6.99-18.23,11.22-28.32,8.95c0,0,0,0,0,0
			c-3.17-0.71-5.44-2.07-5.93-4.17c-0.03-0.12-0.05-0.24-0.07-0.36l-2.96-8.48l-7.06-20.22c1.44,2.48,11.75,3.24,23.98,1.66
			c3.92-0.5,7.58-1.19,10.78-1.98c3.02-0.74,5.62-1.58,7.63-2.45C69.19,60.73,70.76,59.6,71.05,58.56z"/>
	</g>
	<g class="st4">
		<path class="st5" d="M53.16,97.93c-8.59,1.25-17.75,0.19-18.79-4.3c-0.03-0.12-0.05-0.24-0.07-0.36l-2.96-8.48l-7.06-20.22
			c0.32,0.55,1.07,1.01,2.18,1.38l6.5,18.63l2.96,8.48c0.02,0.12,0.04,0.24,0.07,0.36C36.96,97.64,45.07,98.83,53.16,97.93z"/>
	</g>
	<g>
		<path class="st5" d="M71.05,58.56L69.87,73.2c-8.86,10.9-21.52,18.23-35.5,20.43c-0.03-0.12-0.05-0.24-0.07-0.36l-2.96-8.48
			C46,83,59.09,74.5,66.68,61.81C69.19,60.73,70.76,59.6,71.05,58.56z"/>
	</g>
	<g>
		<path class="st9" d="M71.09,58.07c0.02,0.16,0.01,0.33-0.04,0.49L71.09,58.07z"/>
	</g>
	<g>
		<path class="st2" d="M46.62,99c-2.36,0-4.54-0.21-6.41-0.62c-3.9-0.87-6.13-2.59-6.47-4.97l-9.97-28.58
			c-0.11-0.2-0.18-0.42-0.21-0.64c-0.04-0.29,0.15-0.57,0.44-0.63c0.29-0.07,0.58,0.09,0.68,0.37l0.15,0.43
			c1.15,1.76,9.98,3.04,23.37,1.31c13.4-1.72,21.61-5.19,22.28-7.18l0.04-0.46c0.02-0.29,0.27-0.52,0.56-0.53c0,0,0.01,0,0.01,0
			c0.29,0,0.53,0.21,0.57,0.5c0.03,0.23,0.01,0.45-0.04,0.68L69.2,88.84c0.27,2.4-1.45,4.63-5,6.45c-3.02,1.56-7.2,2.74-11.76,3.32
			C50.43,98.87,48.47,99,46.62,99z M25.46,66.19l9.38,26.89c0.01,0.04,0.02,0.08,0.03,0.12c0.54,4.21,9.17,5.34,17.41,4.28
			c8.24-1.06,16.3-4.34,15.76-8.55c-0.01-0.04-0.01-0.08,0-0.12l2.28-28.39c-1.12,0.91-2.94,1.82-5.45,2.72
			c-4.35,1.56-10.22,2.86-16.53,3.67s-12.32,1.03-16.92,0.63C28.77,67.2,26.78,66.78,25.46,66.19z"/>
	</g>
	<g class="st11">
		<path class="st5" d="M36.18,74.58l3.71,16.27l6.35-0.82l-2.82-16.16c-0.16-0.84-0.89-1.45-1.74-1.44l-3.81,0.03
			C36.75,72.47,35.94,73.5,36.18,74.58z"/>
	</g>
	<g class="st1">
		<path class="st2" d="M70.85,61.03L69.87,73.2l-1.25,15.65c0.9,6.99-18.23,11.22-28.32,8.95c0,0,0,0,0,0
			c13.49-2.3,21.15-10.84,19.27-29.59c-0.13-1.28,0.67-2.47,1.91-2.82c2.09-0.59,3.92-1.22,5.42-1.87
			C68.81,62.7,70.18,61.85,70.85,61.03z"/>
	</g>
	<g>
		<path class="st2" d="M37.19,71.23c-6.16,0-11.08-0.81-12.06-2.75c0-0.01-0.01-0.02-0.01-0.02c-0.06-0.13-0.11-0.26-0.14-0.39
			c0,0,0-0.02,0-0.02c-0.01-0.04-0.01-0.07-0.02-0.11c-0.03-0.28,0.16-0.53,0.44-0.56c0.28-0.03,0.53,0.16,0.56,0.44
			c0,0.02,0.01,0.03,0.01,0.05c0.01,0.04,0.03,0.1,0.05,0.15c0,0,0,0.01,0.01,0.01c0.19,0.37,1.26,1.63,7.19,2.07
			c4.3,0.32,9.83,0.08,15.57-0.65c12.08-1.55,20.08-4.61,21.48-6.7c0.16-0.23,0.47-0.29,0.7-0.14c0.23,0.16,0.29,0.47,0.14,0.7
			c-1.85,2.76-10.97,5.7-22.19,7.14C44.95,70.94,40.85,71.23,37.19,71.23z"/>
	</g>
	<g>
		<path class="st2" d="M45.07,95.28c-4.81,0-8.84-0.65-10.96-1.53c-0.26-0.11-0.38-0.4-0.27-0.66c0.11-0.26,0.4-0.38,0.66-0.27
			c2.97,1.23,9.91,1.98,17.43,1.01c7.2-0.93,13.71-3.35,16.41-5.27c0.23-0.16,0.54-0.11,0.7,0.12c0.16,0.23,0.11,0.54-0.12,0.7
			c-2.72,1.93-9.15,4.46-16.86,5.45C49.64,95.14,47.28,95.28,45.07,95.28z"/>
	</g>
	<g>
		<g>
			<path class="st3" d="M37.68,49.42c-1.02,0.81-2.72-0.61-1.8-2.25c0-1.1,0.91-1.04,0.91-1.04c0.49-1.35,2.08-0.71,2.08-0.71
				c2.39,0.56,1.9,3.58-0.21,3.61C38.3,49.05,37.96,49.2,37.68,49.42z"/>
		</g>
		<g class="st1">
			<path class="st2" d="M38.66,49.04c-0.36,0.01-0.7,0.16-0.98,0.38c-0.66,0.53-1.62,0.11-1.95-0.71c0.43,0.16,0.9,0.09,1.23-0.27
				c0.24-0.27,0.55-0.47,0.91-0.53c1.24-0.22,1.74-1.39,1.43-2.34C41.19,46.38,40.63,49.01,38.66,49.04z"/>
		</g>
		<g class="st4">
			<path class="st5" d="M40.13,46.2c-0.17-0.09-0.36-0.16-0.58-0.21c0,0-1.59-0.64-2.08,0.71c0,0-0.91-0.06-0.91,1.04
				c-0.39,0.7-0.3,1.37,0.01,1.83c-0.74-0.3-1.3-1.3-0.68-2.39c0-1.1,0.91-1.04,0.91-1.04c0.49-1.35,2.08-0.71,2.08-0.71
				C39.46,45.57,39.87,45.85,40.13,46.2z"/>
		</g>
		<g>
			<path class="st2" d="M37.02,50.18c-0.4,0-0.82-0.15-1.18-0.46c-0.64-0.55-1.03-1.58-0.47-2.68c0.03-0.55,0.26-0.87,0.45-1.05
				c0.2-0.19,0.44-0.29,0.63-0.33c0.19-0.33,0.45-0.59,0.79-0.74c0.75-0.33,1.58-0.07,1.79,0.01c1.49,0.36,2.05,1.54,1.94,2.56
				c-0.13,1.2-1.07,2.05-2.3,2.07c-0.27,0-0.51,0.15-0.66,0.27l0,0C37.71,50.06,37.37,50.18,37.02,50.18z M36.76,46.65
				c0.01,0-0.15,0-0.24,0.09c-0.1,0.1-0.12,0.29-0.12,0.43c0,0.09-0.02,0.18-0.07,0.25c-0.38,0.68-0.14,1.23,0.18,1.5
				c0.21,0.18,0.56,0.31,0.85,0.09c0,0,0,0,0,0c0.4-0.32,0.85-0.49,1.29-0.5c0.8-0.01,1.23-0.58,1.29-1.14
				c0.06-0.55-0.22-1.22-1.18-1.44c-0.03-0.01-0.05-0.01-0.08-0.02c-0.16-0.06-0.67-0.2-1.03-0.04c-0.17,0.08-0.29,0.22-0.37,0.44
				C37.2,46.53,36.99,46.67,36.76,46.65z"/>
		</g>
	</g>
	<g>
		<path class="st3" d="M66.72,51.5c-1.27-0.29-1.21-2.51,0.64-2.81c0.86-0.68,1.38,0.06,1.38,0.06c1.36-0.46,1.85,1.19,1.85,1.19
			c1.05,2.22-1.62,3.71-2.95,2.08C67.4,51.75,67.07,51.58,66.72,51.5z"/>
	</g>
	<g class="st1">
		<path class="st2" d="M67.63,52.03c-0.23-0.28-0.56-0.45-0.91-0.53c-0.83-0.19-1.09-1.2-0.66-1.96c0.15,0.43,0.49,0.76,0.98,0.8
			c0.36,0.02,0.71,0.14,0.98,0.38c0.94,0.83,2.17,0.5,2.72-0.34C71.29,52.35,68.88,53.55,67.63,52.03z"/>
	</g>
	<g class="st4">
		<path class="st5" d="M70.76,51.4c-0.04-0.19-0.1-0.38-0.2-0.58c0,0-0.49-1.64-1.85-1.18c0,0-0.52-0.75-1.38-0.07
			c-0.8,0.13-1.26,0.62-1.43,1.15c-0.23-0.77,0.21-1.82,1.44-2.02c0.86-0.68,1.38,0.07,1.38,0.07c1.36-0.46,1.85,1.18,1.85,1.18
			C70.84,50.49,70.87,50.98,70.76,51.4z"/>
	</g>
	<g>
		<path class="st2" d="M69.03,53.24c-0.67,0-1.32-0.3-1.8-0.88c-0.17-0.21-0.44-0.31-0.62-0.35l0,0c-0.78-0.18-1.29-0.89-1.27-1.76
			c0.03-0.85,0.6-1.79,1.8-2.04c0.45-0.32,0.84-0.34,1.1-0.31c0.28,0.04,0.5,0.16,0.65,0.28c0.38-0.06,0.74-0.01,1.07,0.16
			c0.73,0.38,1.04,1.2,1.11,1.41c0.65,1.39,0.07,2.57-0.79,3.11C69.88,53.12,69.45,53.24,69.03,53.24z M66.83,51
			c0.5,0.11,0.91,0.36,1.19,0.7c0.51,0.62,1.22,0.59,1.69,0.29c0.47-0.3,0.82-0.93,0.39-1.83c-0.01-0.02-0.02-0.05-0.03-0.07
			c-0.05-0.17-0.26-0.65-0.61-0.83c-0.17-0.09-0.35-0.09-0.58-0.01c-0.22,0.07-0.46-0.01-0.59-0.19c0,0,0,0,0,0
			c0,0-0.09-0.11-0.22-0.13c-0.14-0.02-0.3,0.08-0.41,0.17c-0.07,0.06-0.15,0.09-0.24,0.11c-0.77,0.12-1.05,0.66-1.07,1.07
			C66.36,50.56,66.48,50.92,66.83,51L66.83,51z"/>
	</g>
	<g>
		<g>
			<path class="st3" d="M30.28,51.07c-0.24-1.11,0.62-1.33,0.62-1.33c0-1.1,1.38-1.1,1.38,0c0,0,0.79,0.62,0.12,1.41
				C32.65,52.86,30.53,52.77,30.28,51.07z"/>
		</g>
		<g class="st1">
			<path class="st2" d="M32.4,51.16c0.2,1.42-1.24,1.6-1.87,0.63c0.65,0.26,1.38-0.12,1.23-1.16c0.67-0.79-0.12-1.41-0.12-1.41
				c0-0.11-0.01-0.21-0.04-0.3c0.34,0.01,0.67,0.28,0.67,0.83C32.29,49.75,33.08,50.36,32.4,51.16z"/>
		</g>
		<g class="st4">
			<path class="st5" d="M30.94,51.11c0.09,0.63,0.44,1.03,0.82,1.21c-0.58,0.13-1.34-0.32-1.48-1.3c-0.24-1.11,0.63-1.33,0.63-1.33
				c0-0.78,0.68-1.01,1.09-0.69c-0.21,0.09-0.38,0.29-0.42,0.61c-0.01,0.09-0.07,0.18-0.15,0.22
				C31.19,49.95,30.76,50.28,30.94,51.11z"/>
		</g>
		<g>
			<path class="st2" d="M31.57,52.79c-0.35,0-0.7-0.13-0.99-0.37c-0.37-0.3-0.61-0.76-0.69-1.28c-0.19-0.94,0.24-1.45,0.64-1.68
				c0.11-0.63,0.59-0.96,1.07-0.96c0.5,0,1.01,0.36,1.08,1.05c0.15,0.16,0.35,0.44,0.39,0.82c0.02,0.22-0.01,0.54-0.25,0.89
				c0.03,0.38-0.05,0.71-0.22,0.97c-0.19,0.29-0.49,0.48-0.84,0.53C31.69,52.79,31.63,52.79,31.57,52.79z M31.6,49.32
				c-0.13,0-0.29,0.11-0.29,0.42c0,0.19-0.13,0.35-0.31,0.39c-0.11,0.03-0.47,0.19-0.33,0.85c0,0.01,0,0.02,0,0.03
				c0.06,0.42,0.25,0.66,0.4,0.78c0.17,0.14,0.38,0.21,0.56,0.18c0.12-0.02,0.22-0.08,0.28-0.17c0.09-0.14,0.12-0.34,0.08-0.59
				c-0.02-0.11,0.02-0.23,0.09-0.32c0.13-0.15,0.19-0.29,0.17-0.42c-0.02-0.19-0.18-0.36-0.24-0.41c-0.09-0.08-0.15-0.19-0.15-0.32
				C31.88,49.43,31.73,49.32,31.6,49.32z"/>
		</g>
	</g>
	<g>
		<g>
			<path class="st3" d="M42.04,15.88c-0.17-1.12,0.7-1.29,0.7-1.29c0.07-1.1,1.44-1.02,1.38,0.08c0,0,0.75,0.67,0.03,1.42
				C44.29,17.81,42.18,17.59,42.04,15.88z"/>
		</g>
		<g class="st1">
			<path class="st7" d="M44.15,16.09c0.12,1.43-1.34,1.52-1.9,0.51c0.63,0.3,1.39-0.03,1.3-1.08c0.72-0.75-0.03-1.42-0.03-1.42
				c0.01-0.11,0-0.21-0.02-0.3c0.34,0.03,0.65,0.32,0.62,0.87C44.12,14.68,44.87,15.34,44.15,16.09z"/>
		</g>
		<g class="st4">
			<path class="st5" d="M42.69,15.95c0.05,0.63,0.37,1.06,0.75,1.26c-0.58,0.09-1.32-0.4-1.4-1.39c-0.17-1.12,0.71-1.29,0.71-1.29
				c0.05-0.78,0.74-0.96,1.13-0.62c-0.21,0.08-0.39,0.27-0.46,0.58c-0.02,0.09-0.08,0.17-0.16,0.21
				C43.02,14.81,42.57,15.12,42.69,15.95z"/>
		</g>
		<g>
			<path class="st2" d="M43.3,17.68c-0.37,0-0.75-0.15-1.05-0.43c-0.35-0.32-0.56-0.79-0.61-1.32c-0.14-0.95,0.33-1.44,0.74-1.63
				c0.09-0.35,0.29-0.63,0.59-0.78c0.33-0.17,0.74-0.14,1.05,0.06c0.3,0.2,0.48,0.54,0.5,0.94c0.14,0.17,0.33,0.46,0.34,0.84
				c0.01,0.22-0.04,0.54-0.31,0.87c0,0.38-0.09,0.71-0.28,0.96c-0.21,0.28-0.52,0.45-0.88,0.48C43.37,17.68,43.33,17.68,43.3,17.68z
				 M43.44,14.21c-0.04,0-0.07,0.01-0.11,0.03c-0.11,0.05-0.18,0.19-0.19,0.38c-0.01,0.19-0.15,0.34-0.33,0.37
				c-0.11,0.02-0.48,0.16-0.38,0.83c0,0.01,0,0.02,0,0.03c0.03,0.43,0.21,0.68,0.36,0.81c0.16,0.15,0.36,0.23,0.54,0.22
				c0.12-0.01,0.22-0.06,0.29-0.16c0.1-0.13,0.14-0.33,0.12-0.59c-0.01-0.12,0.03-0.23,0.11-0.31c0.14-0.14,0.2-0.28,0.2-0.41
				c-0.01-0.19-0.15-0.37-0.21-0.42c-0.09-0.08-0.14-0.2-0.13-0.32c0.01-0.19-0.04-0.33-0.14-0.4
				C43.54,14.22,43.49,14.21,43.44,14.21z"/>
		</g>
	</g>
	<g>
		<g>
			<path class="st3" d="M68.59,38.89c-0.26-1.2,0.68-1.44,0.68-1.44c0-1.2,1.49-1.2,1.49,0c0,0,0.86,0.67,0.13,1.53
				C71.15,40.82,68.85,40.73,68.59,38.89z"/>
		</g>
		<g class="st1">
			<path class="st2" d="M70.88,38.98c0.22,1.54-1.34,1.73-2.02,0.68c0.7,0.28,1.5-0.13,1.34-1.25c0.73-0.86-0.13-1.53-0.13-1.53
				c0-0.12-0.01-0.23-0.04-0.32c0.37,0.01,0.73,0.31,0.73,0.9C70.75,37.45,71.61,38.13,70.88,38.98z"/>
		</g>
		<g class="st4">
			<path class="st5" d="M69.3,38.93c0.1,0.68,0.47,1.12,0.89,1.31c-0.62,0.14-1.45-0.34-1.6-1.4c-0.26-1.2,0.68-1.44,0.68-1.44
				c0-0.84,0.74-1.09,1.18-0.75c-0.22,0.1-0.41,0.32-0.45,0.66c-0.01,0.1-0.07,0.19-0.16,0.24C69.57,37.68,69.11,38.03,69.3,38.93z"
				/>
		</g>
		<g>
			<path class="st2" d="M69.98,40.76c-0.2,0-0.4-0.04-0.6-0.12c-0.65-0.26-1.1-0.88-1.22-1.67c-0.21-1.01,0.26-1.57,0.69-1.81
				c0.12-0.68,0.64-1.03,1.16-1.03c0.54,0,1.09,0.39,1.17,1.14c0.16,0.17,0.38,0.48,0.43,0.89c0.02,0.24-0.01,0.58-0.27,0.96
				c0.05,0.78-0.3,1.19-0.52,1.37C70.58,40.66,70.28,40.76,69.98,40.76z M70.01,37c-0.14,0-0.31,0.12-0.31,0.46
				c0,0.2-0.14,0.38-0.33,0.42c-0.12,0.03-0.51,0.21-0.35,0.92c0,0.01,0,0.02,0.01,0.03c0.07,0.48,0.32,0.85,0.68,1
				c0.21,0.09,0.43,0.07,0.57-0.04c0.16-0.13,0.23-0.39,0.18-0.74c-0.02-0.12,0.02-0.25,0.1-0.35c0.14-0.16,0.2-0.31,0.19-0.46
				c-0.02-0.21-0.19-0.39-0.26-0.44c-0.1-0.08-0.16-0.21-0.16-0.34c0-0.16-0.04-0.29-0.12-0.37C70.15,37.03,70.08,37,70.01,37z"/>
		</g>
	</g>
	<g>
		<g>
			<path class="st3" d="M72.39,42.67c-0.19,0.29-0.14,0.71,0.11,0.94c0.18,0.17,0.43,0.24,0.68,0.26c0.16,0.02,0.33,0.01,0.45-0.09
				c0.1-0.09,0.14-0.22,0.17-0.35c0.07-0.37,0.14-1.05-0.32-1.17C73.15,42.17,72.57,42.4,72.39,42.67z"/>
		</g>
		<g>
			<path class="st2" d="M73.3,44.22c-0.06,0-0.12-0.01-0.15-0.01c-0.37-0.04-0.67-0.16-0.88-0.35c-0.37-0.35-0.44-0.95-0.16-1.37
				c0.26-0.39,0.99-0.67,1.45-0.55c0.3,0.08,0.78,0.39,0.56,1.56c-0.03,0.16-0.09,0.39-0.28,0.55
				C73.66,44.19,73.45,44.22,73.3,44.22z M73.31,42.57c-0.21,0-0.55,0.14-0.64,0.28c0,0,0,0,0,0c-0.1,0.15-0.07,0.39,0.06,0.52
				c0.1,0.09,0.26,0.15,0.48,0.17c0.16,0.02,0.2-0.01,0.2-0.01c0,0,0.03-0.03,0.05-0.16c0.08-0.42,0.05-0.75-0.08-0.79
				C73.36,42.58,73.34,42.57,73.31,42.57z M72.39,42.67L72.39,42.67L72.39,42.67z"/>
		</g>
	</g>
	<g>
		<path class="st8" d="M33.14,15.71c-0.19,0.29-0.14,0.71,0.11,0.94c0.18,0.17,0.43,0.24,0.68,0.26c0.16,0.02,0.33,0.01,0.45-0.09
			c0.1-0.09,0.14-0.22,0.17-0.35c0.07-0.37,0.14-1.05-0.32-1.17C33.9,15.21,33.32,15.44,33.14,15.71z"/>
	</g>
	<g>
		<path class="st2" d="M34.05,17.25c-0.06,0-0.12-0.01-0.15-0.01c-0.37-0.04-0.67-0.16-0.88-0.35c-0.37-0.35-0.44-0.95-0.16-1.37
			c0.26-0.39,0.99-0.67,1.45-0.55c0.3,0.08,0.78,0.39,0.56,1.56c-0.03,0.16-0.09,0.39-0.28,0.55C34.41,17.23,34.2,17.25,34.05,17.25
			z M34.06,15.61c-0.21,0-0.55,0.14-0.64,0.28v0c-0.1,0.15-0.07,0.39,0.06,0.52c0.1,0.09,0.26,0.15,0.48,0.17
			c0.16,0.02,0.2-0.01,0.2-0.01c0,0,0.03-0.03,0.05-0.16c0.08-0.42,0.05-0.75-0.08-0.79C34.11,15.62,34.09,15.61,34.06,15.61z
			 M33.14,15.71L33.14,15.71L33.14,15.71z"/>
	</g>
	<g>
		<g>
			<path class="st3" d="M28.31,44.82c-0.19,0.29-0.14,0.71,0.11,0.94c0.18,0.17,0.43,0.24,0.68,0.26c0.16,0.02,0.33,0.01,0.45-0.09
				c0.1-0.09,0.14-0.22,0.17-0.35c0.07-0.37,0.14-1.05-0.32-1.17C29.07,44.33,28.49,44.55,28.31,44.82z"/>
		</g>
		<g>
			<path class="st2" d="M29.22,46.37c-0.06,0-0.12-0.01-0.15-0.01c-0.37-0.04-0.67-0.16-0.88-0.35c-0.37-0.35-0.44-0.95-0.16-1.37
				l0,0c0.26-0.39,0.99-0.67,1.45-0.55c0.3,0.08,0.78,0.39,0.56,1.56c-0.03,0.16-0.09,0.39-0.28,0.55
				C29.59,46.34,29.37,46.37,29.22,46.37z M29.24,44.73c-0.21,0-0.55,0.14-0.64,0.28c0,0,0,0,0,0c-0.1,0.15-0.07,0.39,0.06,0.52
				c0.1,0.09,0.26,0.15,0.48,0.17c0.16,0.02,0.2-0.01,0.2-0.01c0,0,0.03-0.03,0.05-0.16c0.08-0.42,0.05-0.75-0.08-0.79
				C29.29,44.73,29.26,44.73,29.24,44.73z M28.31,44.82L28.31,44.82L28.31,44.82z"/>
		</g>
	</g>
</g>
</svg>
