<?xml version="1.0" encoding="utf-8"?>
<!-- Generator: Adobe Illustrator 25.1.0, SVG Export Plug-In . SVG Version: 6.00 Build 0)  -->
<svg version="1.1" id="Layer_1" xmlns="http://www.w3.org/2000/svg" xmlns:xlink="http://www.w3.org/1999/xlink" x="0px" y="0px"
	 viewBox="0 0 100 100" style="enable-background:new 0 0 100 100;" xml:space="preserve">
<style type="text/css">
	.st0{fill:#FFAA22;}
	.st1{opacity:0.6;}
	.st2{fill:#FFFFFF;}
	.st3{fill:#6D184E;}
	.st4{fill:#FBEAD0;}
	.st5{opacity:0.3;}
	.st6{fill:#F5B945;}
	.st7{fill:#AD6F44;}
	.st8{opacity:0.25;}
	.st9{fill:#BE9577;}
	.st10{fill:#792937;}
</style>
<g>
	<g>
		<path class="st0" d="M91.33,53.34c-0.24,0.4-0.49,0.8-0.74,1.18c-0.97,1.47-2,2.77-3.09,3.91c-0.68,0.71-1.38,1.35-2.1,1.93
			c-0.05,0.04-0.09,0.07-0.14,0.11c-4.03,3.19-8.62,4.39-13.32,3.83c-0.15-0.01-0.3-0.04-0.45-0.06l0.39-0.67l3.98-6.97
			c1.98,0.03,3.83-0.66,5.49-1.81c0.68-0.47,1.33-1.03,1.94-1.64c0.41-0.42,0.8-0.86,1.17-1.32c4.83-6.05,6.28-15.97,0.37-18.16
			c-0.07-0.02-0.14-0.05-0.21-0.07c-0.84-0.28-1.82-0.41-2.94-0.35l0.32-7.4c1.67-0.25,3.3-0.07,4.82,0.47
			c1.5,0.54,2.89,1.43,4.08,2.63C95.53,33.57,97.25,42.78,91.33,53.34z"/>
	</g>
	<g class="st1">
		<path class="st2" d="M86.05,51.64c-0.37,0.46-0.76,0.9-1.17,1.32c-0.61,0.61-1.26,1.17-1.94,1.64c-1.6,1.12-3.39,1.8-5.29,1.81
			c1.32-0.27,2.56-0.84,3.71-1.64c0.68-0.47,1.33-1.03,1.94-1.64c0.41-0.42,0.8-0.86,1.17-1.32c4.83-6.05,6.28-15.97,0.37-18.16
			c-0.07-0.02-0.14-0.05-0.21-0.07c-0.12-0.04-0.24-0.08-0.37-0.11c0.72-0.12,1.36-0.26,1.95-0.06c0.07,0.02,0.14,0.05,0.21,0.07
			C92.33,35.68,90.88,45.59,86.05,51.64z"/>
	</g>
	<g class="st1">
		<g>
			<path class="st2" d="M77.65,56.41c-0.07,0.02-0.15,0.03-0.22,0.04l0.02-0.04C77.52,56.42,77.59,56.42,77.65,56.41z"/>
		</g>
		<g>
			<path class="st3" d="M77.23,56.6l0.18-0.3l0.05,0c0.06,0,0.13,0,0.19,0l0.02,0.22c-0.07,0.02-0.15,0.03-0.23,0.04L77.23,56.6z"/>
		</g>
	</g>
	<g>
		<path class="st0" d="M82,25.21c0,73.05-77.11,73.05-77.11,0c0-7.56,17.26-13.68,38.56-13.68S82,17.66,82,25.21z"/>
	</g>
	<g>
		<path class="st4" d="M81.42,33.64l-0.36,2.77c0,23.81-75.47,23.81-75.47,0l-0.32-3.68C8.92,53.82,75.97,54.12,81.42,33.64z"/>
	</g>
	<g class="st5">
		<path class="st3" d="M11.88,27.87c10.53-10.95,55.23-9.29,63.35,0.55c3.44-4.84-3.73-8.07-3.73-8.07
			c-18.98-5.91-37.71-5.91-56.17,0.51C15.33,20.86,8.62,24.57,11.88,27.87z"/>
	</g>
	<g class="st1">
		<path class="st2" d="M6.83,26.25c0,26.25,9.96,43.07,22.71,50.45C15.87,69.94,4.89,52.78,4.89,25.21
			c0-7.56,17.26-13.68,38.56-13.68c14.07,0,26.37,2.67,33.11,6.67c-7.01-3.41-18.36-5.63-31.17-5.63
			C24.09,12.57,6.83,18.7,6.83,26.25z"/>
	</g>
	<g>
		<g>
			<path class="st6" d="M5.12,30.92l0.15,1.82C5.18,32.15,5.12,31.54,5.12,30.92z"/>
		</g>
		<g>
			<path class="st3" d="M5.19,32.76c-0.1-0.6-0.16-1.22-0.16-1.84l0.19-0.01l0.16,1.82L5.19,32.76z"/>
		</g>
	</g>
	<g>
		<path class="st3" d="M43.45,80.88c-10.31,0-19.92-4.96-27.05-13.98C8.38,56.78,4.15,42.37,4.15,25.21c0-4.07,4.2-7.81,11.82-10.51
			c7.35-2.61,17.11-4.04,27.48-4.04s20.13,1.44,27.48,4.04c7.62,2.7,11.82,6.44,11.82,10.51c0,17.15-4.24,31.57-12.25,41.69
			C63.36,75.92,53.75,80.88,43.45,80.88z M43.45,12.41c-22.62,0-37.81,6.62-37.81,12.8c0,37.04,19.6,53.92,37.81,53.92
			s37.81-16.87,37.81-53.92C81.26,19.03,66.06,12.41,43.45,12.41z"/>
	</g>
	<g>
		<path class="st7" d="M75.23,28.42L75.23,28.42c-0.38,0.49-0.87,0.97-1.45,1.42c-4.9,3.86-16.63,6.57-30.33,6.57
			c-0.92,0-1.83-0.01-2.73-0.04c-12.51-0.33-23.03-2.94-27.6-6.53c0,0,0,0,0,0c-0.41-0.32-0.77-0.65-1.08-0.99
			c-0.24-0.29-0.4-0.48-0.46-0.56c-0.01-0.01-0.01-0.02-0.02-0.02c-0.01-0.01-0.01-0.01-0.01-0.01c2.69-3.46,10.64-6.24,20.95-7.4
			c3.39-0.38,7.04-0.59,10.84-0.59C58.84,20.27,71.83,23.75,75.23,28.42z"/>
	</g>
	<g>
		<path class="st3" d="M75.23,29.08c-0.18,0-0.34-0.1-0.44-0.26c-3.37-4.58-16.59-7.9-31.46-7.9c-14.49,0-27.54,3.19-31.24,7.62
			c-0.03,0.08-0.07,0.15-0.12,0.21c-0.22,0.26-0.57,0.26-0.79,0.01c0,0-0.01-0.01-0.01-0.01c-0.02-0.02-0.03-0.04-0.04-0.05
			c-0.19-0.25-0.19-0.63,0.01-0.88c3.76-4.83,17-8.21,32.19-8.21c15.44,0,28.73,3.45,32.32,8.38c0.09,0.12,0.13,0.27,0.13,0.43
			C75.79,28.78,75.54,29.08,75.23,29.08z"/>
	</g>
	<g class="st8">
		<path class="st2" d="M25.11,41.44c-3.72-0.76-6.44-1.63-8.37-2.39c-1.72-0.68-3.39,1.14-2.95,3.21c0.82,3.88,2.15,9.15,3.89,13.02
			c0.8,1.77,2.27,2.97,3.96,3.22l5.3,0.81c1.44,0.22,2.63-1.31,2.32-2.99c-0.6-3.2-0.92-6.87-0.8-10
			C28.54,43.94,27.11,41.85,25.11,41.44z"/>
	</g>
	<g class="st8">
		<path class="st2" d="M30.49,71.82c-3.67-1.71-6.42-5.32-7.9-7.65c-0.53-0.83,0.04-2,0.92-1.89l4.62,0.58
			c1.19,0.15,2.17,1.15,2.48,2.51l1.15,5.09C31.97,71.35,31.23,72.16,30.49,71.82z"/>
	</g>
	<g>
		<path class="st3" d="M74.18,65.3c-0.91,0-1.83-0.07-2.77-0.2c-0.41-0.06-0.7-0.49-0.65-0.97c0.05-0.48,0.42-0.82,0.83-0.76
			c7.62,1.09,14.41-2.65,19.13-10.51c4.11-7.35,4.79-14.73,1.88-20.26c-2.25-4.26-6.28-6.52-10.51-5.89
			c-0.41,0.06-0.78-0.28-0.83-0.76c-0.05-0.48,0.24-0.92,0.64-0.98c4.81-0.72,9.39,1.85,11.95,6.7c1.49,2.83,2.17,6.23,1.96,9.84
			c-0.24,4.02-1.54,8.17-3.86,12.32c0,0.01-0.01,0.02-0.01,0.02C87.47,61.31,81.23,65.3,74.18,65.3z"/>
	</g>
	<g>
		<path class="st3" d="M76,57.46c-0.05,0-0.09,0-0.14,0c-0.41-0.01-0.74-0.4-0.73-0.89c0.01-0.48,0.34-0.87,0.75-0.86
			c4.66,0.07,8.35-4.09,10.25-8.02c1.97-4.06,2.39-8.34,1.07-10.9c-0.98-1.9-2.83-2.81-5.5-2.69c-0.41,0.02-0.75-0.36-0.77-0.84
			c-0.02-0.48,0.3-0.89,0.71-0.91c4.04-0.18,5.94,1.82,6.82,3.53c1.62,3.15,1.22,8.01-1.05,12.68C85.32,52.88,81.23,57.46,76,57.46z
			"/>
	</g>
	<g>
		<path class="st3" d="M70.65,19.82c0.85,0.26,1.68,0.61,2.48,1.06c0.2,0.12,0.4,0.23,0.6,0.36c0.19,0.14,0.39,0.26,0.58,0.41
			c0.38,0.28,0.75,0.61,1.09,0.98c0.34,0.38,0.66,0.8,0.91,1.31c0.25,0.5,0.43,1.1,0.46,1.72c0.04,0.62-0.08,1.25-0.29,1.8
			c-0.21,0.55-0.5,1.02-0.82,1.44l0.15-0.46v0c0,0.18-0.05,0.34-0.15,0.46l-0.01,0.01c-0.5,0.64-1.06,1.17-1.65,1.62l-0.89,0.65
			c-0.31,0.19-0.62,0.37-0.92,0.56c-1.24,0.7-2.52,1.29-3.82,1.75c-2.59,0.95-5.24,1.63-7.9,2.14c-2.66,0.51-5.34,0.85-8.02,1.09
			c-1.34,0.13-2.68,0.2-4.03,0.28l-2.02,0.07c-0.67,0.03-1.34,0.02-2.02,0.03c-5.37,0.05-10.76-0.3-16.09-1.18
			c-2.67-0.45-5.32-1.01-7.94-1.82l-0.98-0.31l-0.97-0.36c-0.65-0.22-1.29-0.52-1.93-0.79c-0.32-0.14-0.63-0.32-0.95-0.47
			l-0.47-0.24c-0.16-0.09-0.31-0.19-0.46-0.28l-0.46-0.28c-0.15-0.1-0.31-0.18-0.45-0.3l-0.88-0.66l0.3,0.11l0,0l-0.3-0.11
			c-0.29-0.24-0.57-0.49-0.84-0.77c-0.13-0.14-0.27-0.28-0.39-0.44l-0.37-0.47l0.08,0.09c-0.05-0.05-0.1-0.1-0.13-0.16l0.02,0.04
			c0.01,0.01,0.02,0.02,0.03,0.03l-0.03-0.03c-0.27-0.39-0.51-0.83-0.68-1.33c-0.17-0.49-0.26-1.04-0.23-1.58
			c0.02-0.54,0.16-1.07,0.37-1.52c0.21-0.45,0.47-0.86,0.76-1.21c0.59-0.7,1.26-1.24,1.96-1.69c0.7-0.45,1.43-0.83,2.17-1.15
			c0.04-0.02,0.09,0.01,0.11,0.06c0.01,0.05,0,0.1-0.04,0.12c-0.69,0.44-1.37,0.89-2.01,1.41c-0.63,0.53-1.23,1.1-1.7,1.77
			c-0.46,0.67-0.81,1.45-0.78,2.22c0,0.77,0.34,1.51,0.82,2.12l-0.03-0.03c0.02,0.02,0.03,0.04,0.05,0.06l0.02,0.04
			c-0.02-0.05-0.06-0.09-0.1-0.13l0.08,0.09l0.33,0.38c0.11,0.13,0.23,0.25,0.35,0.36c0.25,0.23,0.51,0.45,0.78,0.65l-0.3-0.11l0,0
			l0.3,0.11c2.19,1.57,4.72,2.57,7.26,3.39c2.55,0.83,5.16,1.43,7.79,1.87c5.26,0.87,10.6,1.22,15.92,1.17
			c0.67-0.01,1.33-0.01,2-0.04l2-0.08c1.33-0.08,2.66-0.16,3.98-0.3c2.65-0.25,5.29-0.63,7.91-1.15c2.61-0.53,5.21-1.18,7.73-2.12
			c0.63-0.22,1.24-0.5,1.86-0.75c0.31-0.12,0.61-0.29,0.91-0.43c0.3-0.15,0.61-0.29,0.89-0.47c0.29-0.17,0.58-0.34,0.87-0.51
			l0.82-0.58c0.54-0.39,1.04-0.85,1.45-1.37l-0.15,0.46v0l0-0.02c0-0.17,0.06-0.33,0.15-0.45c0.53-0.66,0.89-1.45,0.85-2.25
			c-0.01-0.4-0.11-0.8-0.27-1.18c-0.18-0.38-0.4-0.76-0.67-1.1c-0.14-0.17-0.28-0.34-0.43-0.5c-0.15-0.17-0.31-0.32-0.47-0.48
			c-0.32-0.31-0.67-0.59-1.02-0.88c-0.71-0.55-1.45-1.06-2.21-1.57c-0.04-0.03-0.06-0.09-0.03-0.14
			C70.58,19.82,70.62,19.8,70.65,19.82z"/>
	</g>
	<g>
		<ellipse class="st9" cx="16.74" cy="28.16" rx="1.41" ry="0.64"/>
	</g>
	<g>
		<ellipse class="st9" cx="19.48" cy="26.44" rx="0.91" ry="0.39"/>
	</g>
	<g>
		<path class="st9" d="M21.01,28.85c0,0.14-0.28,0.25-0.61,0.25c-0.34,0-0.61-0.11-0.61-0.25c0-0.14,0.28-0.25,0.61-0.25
			C20.73,28.6,21.01,28.71,21.01,28.85z"/>
	</g>
	<g>
		<g class="st5">
			<path class="st3" d="M35.79,78.34c0.01,0,0.01,0,0.02,0c0.61,0.13,1.3,0.27,2.04,0.43c19.38,2.34,40.01-13.93,42.05-48.81
				c0,0,0,0,0,0c-1.82,3.03-5.87,6.43-14.16,9.58c-1.22,0.46-2.04,1.82-2,3.33C64.24,63.89,54.14,75.34,35.79,78.34z"/>
		</g>
	</g>
	<g class="st5">
		<path class="st10" d="M40.72,36.38c-12.51-0.33-23.03-2.94-27.6-6.53c0,0,0,0,0,0c-0.41-0.32-0.77-0.65-1.08-0.99
			c-0.24-0.29-0.4-0.48-0.46-0.56c-0.01-0.01-0.01-0.02-0.02-0.02c-0.01-0.01-0.01-0.01-0.01-0.01c2.69-3.46,10.64-6.24,20.95-7.4
			l0.1,0.08C13.71,27.85,20.29,32.67,40.72,36.38z"/>
	</g>
	<g class="st5">
		<path class="st3" d="M90.89,28.93c-2.68-0.27-4.8,1.66-6.27,4.65c-0.84-0.28-1.82-0.41-2.94-0.35l0.32-7.4
			c1.67-0.25,3.3-0.07,4.82,0.47C88.32,26.83,89.7,27.73,90.89,28.93z"/>
	</g>
	<g class="st5">
		<path class="st3" d="M87.5,58.42c-0.68,0.71-1.38,1.35-2.1,1.93c-0.05,0.04-0.09,0.07-0.14,0.11c-4.03,3.19-8.62,4.39-13.32,3.83
			c-0.15-0.01-0.3-0.04-0.45-0.06l0.39-0.67l3.98-6.97c1.98,0.03,3.83-0.66,5.49-1.81c0.68-0.47,1.33-1.03,1.94-1.64
			C84.16,55.73,85.55,57.69,87.5,58.42z"/>
	</g>
	<g>
		<g>
			<path class="st7" d="M14.71,85.89c-3.05-1.62-3.74-7.65-1.52-13.47c2.11-5.54,6.08-8.9,9.09-7.82c0.15,0.05,0.3,0.12,0.45,0.2
				c0.06,0.03,0.12,0.06,0.18,0.09C34.81,70.6,27.32,92.55,14.71,85.89z"/>
		</g>
		<g class="st5">
			<path class="st3" d="M14.71,85.89c-1.05-0.56-1.82-1.63-2.29-3.04c9.84,4.07,16.15-9.33,11.65-17.31
				C34.28,72.09,26.89,92.32,14.71,85.89z"/>
		</g>
		<g class="st1">
			<path class="st2" d="M27.73,69.66c-0.98-1.35-2.31-2.49-4.05-3.29c0,0,0,0-0.01,0c-0.4-0.21-0.87,0.01-1.06,0.48L15.25,85.2
				l-0.93-0.68l7.4-18.53l0.56-1.39c0,0,0.01,0,0.01,0c0.05,0.02,0.1,0.04,0.15,0.06c0.1,0.04,0.19,0.08,0.29,0.13
				c0.06,0.03,0.12,0.06,0.18,0.09v0C25.2,65.98,26.77,67.68,27.73,69.66z"/>
		</g>
		<g class="st1">
			<path class="st2" d="M22.29,64.6l-0.56,1.39c-2.73,0.22-5.83,3.34-7.6,8.01c-1.55,4.08-1.68,8.25-0.57,10.95
				c-2.03-2.38-2.26-7.53-0.36-12.52C15.3,66.88,19.27,63.52,22.29,64.6z"/>
		</g>
		<g>
			<path class="st3" d="M19.34,87.86c-1.58,0-3.22-0.44-4.88-1.31c0,0,0,0,0,0c-1.68-0.89-2.78-2.92-3.1-5.72
				c-0.3-2.68,0.15-5.77,1.26-8.71c1.12-2.94,2.78-5.39,4.67-6.91c1.98-1.58,3.99-1.97,5.67-1.09c3.66,1.69,5.95,4.97,6.44,9.23
				c0.53,4.57-1.21,9.49-4.33,12.24C23.38,87.11,21.42,87.86,19.34,87.86z M14.97,85.23c3.42,1.81,6.75,1.53,9.38-0.79
				c2.77-2.44,4.32-6.81,3.85-10.88c-0.43-3.73-2.45-6.6-5.68-8.08c-0.01,0-0.02-0.01-0.03-0.01c-1.28-0.67-2.87-0.33-4.49,0.96
				c-1.71,1.37-3.22,3.6-4.24,6.3C11.68,78.16,12.23,83.78,14.97,85.23L14.97,85.23z"/>
		</g>
		<g>
			<path class="st3" d="M16.35,86.88c-0.64,0-1.26-0.15-1.84-0.46c-0.25-0.13-0.37-0.48-0.25-0.78c0.11-0.3,0.41-0.43,0.66-0.3
				c1.31,0.69,2.95,0.35,4.6-0.97c1.73-1.38,3.25-3.64,4.28-6.35c1.03-2.72,1.45-5.56,1.18-7.99c-0.26-2.33-1.13-4-2.45-4.7
				c-0.25-0.13-0.37-0.48-0.25-0.78c0.11-0.3,0.41-0.43,0.66-0.3c1.64,0.87,2.72,2.86,3.03,5.62c0.3,2.65-0.15,5.72-1.26,8.63
				c-1.11,2.92-2.75,5.35-4.63,6.85C18.82,86.37,17.54,86.88,16.35,86.88z"/>
		</g>
		<g>
			<path class="st3" d="M13.98,85.97c-0.07,0-0.14-0.02-0.21-0.06c-0.25-0.14-0.36-0.49-0.24-0.79l8.31-20.77
				c0.12-0.3,0.42-0.42,0.67-0.28c0.25,0.14,0.36,0.49,0.24,0.79l-8.31,20.77C14.35,85.84,14.17,85.97,13.98,85.97z"/>
		</g>
	</g>
	<g>
		<g>
			<path class="st7" d="M21.18,79.35c-0.39-3.49,3.17-6.92,7.96-7.67c4.56-0.71,8.58,1.27,9.3,4.48c0.04,0.16,0.06,0.33,0.08,0.5
				c0.01,0.07,0.02,0.13,0.03,0.2C40.44,90.17,22.8,93.75,21.18,79.35z"/>
		</g>
		<g class="st5">
			<path class="st3" d="M21.18,79.35c-0.13-1.2,0.2-2.39,0.89-3.47c1.99,10.71,13.57,10.08,16.61,2.32
				C39.24,90.4,22.74,93.25,21.18,79.35z"/>
		</g>
		<g class="st1">
			<path class="st2" d="M37.73,83.39c0.41-1.5,0.52-3.24,0.22-5.17c0,0,0-0.01,0-0.01c-0.05-0.46-0.41-0.77-0.8-0.72l-15.27,2.01
				l0.01-1.15l15.4-2.05l1.15-0.15c0,0,0,0.01,0,0.01c0.01,0.06,0.02,0.11,0.03,0.17c0.02,0.1,0.04,0.21,0.05,0.32
				c0.01,0.07,0.02,0.13,0.03,0.2l0,0C38.92,79.41,38.56,81.61,37.73,83.39z"/>
		</g>
		<g class="st1">
			<path class="st2" d="M38.44,76.15l-1.15,0.15c-1.42-2.34-4.88-3.65-8.72-3.05c-3.35,0.52-6.1,2.36-7.32,4.61
				c0.58-2.93,3.79-5.55,7.9-6.19C33.7,70.97,37.73,72.95,38.44,76.15z"/>
		</g>
		<g>
			<path class="st3" d="M29.74,89.34c-1.21,0-2.42-0.25-3.54-0.77c-3.13-1.46-5.13-4.7-5.63-9.12c0,0,0,0,0,0
				c-0.44-3.95,3.29-7.67,8.49-8.49c2.43-0.38,4.8-0.04,6.67,0.95c1.97,1.04,3.17,2.68,3.4,4.62c0.63,4.1-0.42,7.7-2.96,10.16
				C34.4,88.42,32.06,89.34,29.74,89.34z M21.79,79.25c0.43,3.88,2.16,6.71,4.86,7.96c2.85,1.32,6.36,0.67,8.74-1.64
				c2.18-2.11,3.08-5.23,2.52-8.79c0-0.01,0-0.02,0-0.04c-0.16-1.43-1.11-2.68-2.68-3.51c-1.67-0.88-3.8-1.18-6.01-0.84
				C24.86,73.08,21.45,76.22,21.79,79.25L21.79,79.25z"/>
		</g>
		<g>
			<path class="st3" d="M28.72,84.99c-1.71,0-3.33-0.37-4.68-1.09c-1.92-1.02-3.09-2.61-3.3-4.49c-0.03-0.29,0.14-0.55,0.38-0.59
				c0.24-0.04,0.47,0.16,0.5,0.45c0.17,1.5,1.16,2.8,2.78,3.66c1.7,0.9,3.86,1.2,6.1,0.86c4.54-0.71,7.94-3.88,7.58-7.08
				c-0.03-0.29,0.14-0.55,0.38-0.59c0.24-0.04,0.47,0.16,0.5,0.45c0.42,3.77-3.32,7.48-8.35,8.26
				C29.98,84.94,29.34,84.99,28.72,84.99z"/>
		</g>
		<g>
			<path class="st3" d="M21.17,78.98c-0.22,0-0.42-0.2-0.44-0.47c-0.03-0.29,0.15-0.55,0.39-0.58l17.27-2.3
				c0.25-0.03,0.47,0.18,0.49,0.46c0.03,0.29-0.15,0.55-0.39,0.58l-17.27,2.3C21.2,78.98,21.19,78.98,21.17,78.98z"/>
		</g>
	</g>
</g>
</svg>
