<?xml version="1.0" encoding="utf-8"?>
<!-- Generator: Adobe Illustrator 25.1.0, SVG Export Plug-In . SVG Version: 6.00 Build 0)  -->
<svg version="1.1" id="Layer_1" xmlns="http://www.w3.org/2000/svg" xmlns:xlink="http://www.w3.org/1999/xlink" x="0px" y="0px"
	 viewBox="0 0 100 100" style="enable-background:new 0 0 100 100;" xml:space="preserve">
<style type="text/css">
	.st0{fill:#F7AF41;}
	.st1{opacity:0.25;}
	.st2{fill:#FFFFFF;}
	.st3{opacity:0.28;}
	.st4{fill:#6D184E;}
	.st5{opacity:0.3;}
	.st6{fill:#6D194E;}
	.st7{fill:#FEF9E5;}
	.st8{fill:#F748E1;}
	.st9{opacity:0.55;}
</style>
<g>
	<g>
		<path class="st0" d="M32.89,46.72l-0.13,1.44l-0.36,4.05l-0.11,1.26l-0.26,2.89l-0.08,0.93l-0.46,5.08l-0.2,2.18l-0.26,2.9
			l-0.46,5.08l-0.02,0.22l-0.44,4.86l-0.3,3.34l-0.16,1.75l-0.4,4.43c-0.17,1.95,2.24,3,3.55,1.54l1.01-1.12l3.41-3.8l2.89-3.21
			l0.52-0.58l3.41-3.79l1.57-1.75l1.84-2.05l3.41-3.79l0,0l0.25-0.28l3.16-3.51l2.34-2.61l0,0l3.3-3.67
			c-0.54-0.57-1.09-1.12-1.66-1.65c-1.59-1.49-3.27-2.8-5.03-3.95c-2.2-1.43-4.54-2.61-7.01-3.54c-0.55-0.21-1.1-0.4-1.66-0.58
			c-2.13-0.69-4.35-1.21-6.66-1.56C36.28,46.96,34.61,46.8,32.89,46.72z"/>
	</g>
	<g class="st1">
		<g>
			<path class="st2" d="M36.57,59.86C40.13,65,39.71,70.05,35.31,75c-0.64,0.72-1.82,0.2-1.74-0.76l1.18-13.88
				C34.83,59.42,36.04,59.09,36.57,59.86z"/>
		</g>
	</g>
	<g class="st3">
		<g>
			<path class="st4" d="M54.28,65.13c-0.12,0-0.24-0.06-0.31-0.17l-9.71-16c-0.1-0.17-0.05-0.39,0.12-0.5
				c0.17-0.1,0.39-0.05,0.5,0.12l9.71,16c0.1,0.17,0.05,0.39-0.12,0.5C54.4,65.12,54.34,65.13,54.28,65.13z"/>
		</g>
		<g>
			<path class="st4" d="M50.87,68.93c-0.05,0-0.1-0.01-0.15-0.04c-0.07-0.04-0.13-0.09-0.17-0.16l-0.11-0.18L37.59,47.4
				c-0.1-0.17-0.05-0.39,0.12-0.5c0.17-0.1,0.39-0.05,0.5,0.12l12.96,21.35c0.06,0.1,0.07,0.23,0.02,0.34
				C51.13,68.85,51,68.93,50.87,68.93z"/>
		</g>
		<g>
			<path class="st4" d="M47.46,72.72c-0.12,0-0.24-0.06-0.31-0.17L32.45,48.34c-0.1-0.17-0.05-0.39,0.12-0.5
				c0.17-0.1,0.39-0.05,0.5,0.12l14.69,24.21c0.1,0.17,0.05,0.39-0.12,0.5C47.59,72.71,47.52,72.72,47.46,72.72z"/>
		</g>
		<g>
			<path class="st4" d="M44.05,76.52c-0.12,0-0.24-0.06-0.31-0.17l-12.02-19.8c-0.1-0.17-0.05-0.39,0.12-0.5
				c0.17-0.1,0.39-0.05,0.5,0.12l12.02,19.8c0.1,0.17,0.05,0.39-0.12,0.5C44.18,76.5,44.11,76.52,44.05,76.52z"/>
		</g>
		<g>
			<path class="st4" d="M40.64,80.31c-0.12,0-0.24-0.06-0.31-0.17l-9.35-15.4c-0.1-0.17-0.05-0.39,0.12-0.5
				c0.17-0.1,0.39-0.05,0.5,0.12l9.35,15.4c0.1,0.17,0.05,0.39-0.12,0.5C40.77,80.3,40.7,80.31,40.64,80.31z"/>
		</g>
		<g>
			<path class="st4" d="M37.23,84.11c-0.12,0-0.24-0.06-0.31-0.17l-6.79-11.19c-0.1-0.17-0.05-0.39,0.12-0.5
				c0.17-0.1,0.39-0.05,0.5,0.12l0.11,0.19l6.67,11c0.1,0.17,0.05,0.39-0.12,0.5C37.36,84.09,37.29,84.11,37.23,84.11z"/>
		</g>
		<g>
			<path class="st4" d="M33.82,87.91c-0.12,0-0.24-0.06-0.31-0.17l-4-6.59c-0.1-0.17-0.05-0.39,0.12-0.5
				c0.17-0.1,0.39-0.05,0.5,0.12l4,6.59c0.1,0.17,0.05,0.39-0.12,0.5C33.95,87.89,33.88,87.91,33.82,87.91z"/>
		</g>
		<g>
			<path class="st4" d="M32.4,52.57c-0.17,0-0.32-0.12-0.35-0.29c-0.04-0.2,0.09-0.39,0.28-0.43L46.15,49
				c0.2-0.04,0.39,0.09,0.43,0.28c0.04,0.2-0.09,0.39-0.28,0.43l-13.82,2.86C32.45,52.57,32.42,52.57,32.4,52.57z"/>
		</g>
		<g>
			<path class="st4" d="M31.94,57.65c-0.17,0-0.32-0.12-0.35-0.29c-0.04-0.2,0.09-0.39,0.28-0.43l21.29-4.4
				c0.2-0.04,0.39,0.09,0.43,0.28c0.04,0.2-0.09,0.39-0.28,0.43l-21.29,4.4C31.99,57.65,31.97,57.65,31.94,57.65z"/>
		</g>
		<g>
			<path class="st4" d="M31.49,62.73c-0.17,0-0.32-0.12-0.35-0.29c-0.04-0.2,0.09-0.39,0.28-0.43l26.78-5.53
				c0.2-0.04,0.39,0.09,0.43,0.28c0.04,0.2-0.09,0.39-0.28,0.43l-26.78,5.53C31.54,62.73,31.51,62.73,31.49,62.73z"/>
		</g>
		<g>
			<path class="st4" d="M31.03,67.81c-0.17,0-0.32-0.12-0.35-0.29c-0.04-0.2,0.09-0.39,0.28-0.43l25.59-5.29
				c0.2-0.04,0.39,0.09,0.43,0.28c0.04,0.2-0.09,0.39-0.28,0.43L31.1,67.8C31.08,67.81,31.05,67.81,31.03,67.81z"/>
		</g>
		<g>
			<path class="st4" d="M30.44,72.92c-0.17,0-0.32-0.12-0.35-0.29c-0.04-0.2,0.08-0.39,0.28-0.43l0.13-0.03l20.54-4.25
				c0.2-0.04,0.39,0.08,0.43,0.28c0.04,0.2-0.08,0.39-0.28,0.43l-0.37,0.08l-20.3,4.2C30.49,72.92,30.46,72.92,30.44,72.92z"/>
		</g>
		<g>
			<path class="st4" d="M30.12,77.98c-0.17,0-0.32-0.12-0.35-0.29c-0.04-0.2,0.09-0.39,0.28-0.43l15.5-3.2
				c0.2-0.04,0.39,0.09,0.43,0.28c0.04,0.2-0.09,0.39-0.28,0.43l-15.5,3.2C30.17,77.97,30.14,77.98,30.12,77.98z"/>
		</g>
		<g>
			<path class="st4" d="M29.66,83.06c-0.17,0-0.32-0.12-0.35-0.29c-0.04-0.2,0.09-0.39,0.28-0.43l10.45-2.16
				c0.2-0.04,0.39,0.09,0.43,0.28c0.04,0.2-0.09,0.39-0.28,0.43l-10.45,2.16C29.71,83.05,29.68,83.06,29.66,83.06z"/>
		</g>
	</g>
	<g class="st5">
		<path class="st4" d="M33,46.72l-0.2,2.21l-0.08,0.93l-0.33,3.66c1.91,1.05,4.71,1.3,7.54,0.39c0.26,0.01,0.56-0.02,0.91-0.08
			c4.33-0.76,3.94,3.06,3.94,3.06l-0.58,2.92c0.33,1.69,1.09,1.97,2.22,0.97c1.24-2.47,2.93-3.15,5.07-2.04
			c0.79,0.41,0.99,1.45,0.39,2.11l0,0l-0.25,0.28l0,0l-3.41,3.79l-1.84,2.05l-1.57,1.75l-3.41,3.79l-0.52,0.58l-2.89,3.21l-3.41,3.8
			l-1.01,1.12c-1.31,1.46-3.72,0.41-3.55-1.54l0.4-4.43l0.16-1.74l0.3-3.34l0.44-4.86l0.02-0.22l0.46-5.08l0.26-2.9l0.2-2.18
			l0.13-1.42c-0.04-0.02-0.07-0.04-0.11-0.06l-0.26,2.89l-0.08,0.93l-0.46,5.08l-0.2,2.18l-0.26,2.9l-0.46,5.08l-0.02,0.22
			l-0.44,4.86l-0.3,3.34l-0.16,1.75l-0.4,4.43c-0.17,1.95,2.24,3,3.55,1.54l1.01-1.12l3.41-3.8l2.89-3.21l0.52-0.58l3.41-3.79
			l1.57-1.75l1.84-2.05l3.41-3.79l0,0l0.25-0.28l3.16-3.51l2.34-2.61l0,0l3.3-3.67c-0.54-0.57-1.09-1.12-1.66-1.65
			c-0.12-0.12-0.25-0.23-0.38-0.35c-0.11-0.1-0.22-0.2-0.33-0.3c-0.27-0.24-0.55-0.48-0.83-0.71c-1.12-0.94-2.29-1.81-3.5-2.59
			c-2.2-1.43-4.54-2.61-7.01-3.54c-0.55-0.21-1.1-0.4-1.66-0.58c-2.13-0.69-4.35-1.21-6.66-1.56C36.31,46.97,34.68,46.81,33,46.72z"
			/>
	</g>
	<g class="st5">
		<path class="st6" d="M59.92,58.49l-0.97,1.07l-2.72,3.03l-0.84,0.94c-0.04-0.01-0.08-0.02-0.12-0.04l2.46-2.73l0.63-0.7l1.48-1.65
			C59.87,58.44,59.89,58.46,59.92,58.49z"/>
		<path class="st4" d="M55.42,63.63l-0.09-0.03c-0.03-0.01-0.06-0.02-0.08-0.03l-0.12-0.05l4.71-5.24l0.2,0.2L55.42,63.63z"/>
	</g>
	<g class="st5">
		<path class="st6" d="M59.92,58.49l-0.97,1.07l-2.72,3.03l-0.84,0.94c-0.04-0.01-0.08-0.02-0.12-0.04l2.46-2.73l0.63-0.7l1.48-1.65
			C59.87,58.44,59.89,58.46,59.92,58.49z"/>
		<path class="st4" d="M55.42,63.63l-0.09-0.03c-0.03-0.01-0.06-0.02-0.08-0.03l-0.12-0.05l4.71-5.24l0.2,0.2L55.42,63.63z"/>
	</g>
	<g>
		<path class="st4" d="M31.31,90.02c-0.37,0-0.74-0.08-1.1-0.23c-1.09-0.47-1.73-1.55-1.62-2.73l3.63-40.41
			c0.03-0.36,0.34-0.63,0.71-0.61c11.24,0.55,20.49,4.59,27.48,11.98c0.24,0.26,0.25,0.65,0.01,0.92L33.31,89.12
			C32.78,89.71,32.06,90.02,31.31,90.02z M33.51,47.43l-3.57,39.76c-0.06,0.72,0.38,1.18,0.81,1.37c0.44,0.19,1.07,0.2,1.56-0.34
			L59,58.5C52.44,51.79,43.87,48.07,33.51,47.43z"/>
	</g>
	<g>
		<g>
			<path class="st7" d="M62.36,55.65c-0.81,8.35-8.72,6.56-11.76,0.02c-1.98-4.17-7.08-5.47-13.49-5.59
				c-6.31-0.28-8.2-5.02-3.04-8.29c0.2-3.81,1.84-6.57,5.96-7.51c0,0,0.01,0,0.01,0c-0.05-0.65-0.05-1.25-0.01-1.82
				c0.25-3.55,2.17-5.56,5.32-6.44c0.11-0.03,0.22-0.06,0.33-0.09c0.55-3.69,2.38-5.91,6.25-5.75c1.13-1.39,2.43-2.35,4.47-1.36l0,0
				c0.92-12.13,17.82-9.39,13.7-0.59c-0.32-5.38-6.46-4.14-5.61,0.36c3.68,3.28,5.34,6.72,2.41,10.55c0,0,0,0,0,0
				c0.03,0.03,0.06,0.07,0.1,0.1c0.85,0.93,1.43,1.94,1.76,3.02c0.87,2.81,0.08,6.09-1.88,9.7c0.7,2.42,0.37,4.52-1.35,6.2
				C66.4,52.62,65.3,55.07,62.36,55.65z"/>
		</g>
		<g>
			<path class="st4" d="M57.75,61.35c-2.67,0-5.67-2.29-7.23-5.65c-1.73-3.65-5.99-5.4-13.42-5.54c-3.18-0.14-5.48-1.44-6-3.38
				c-0.46-1.72,0.62-3.6,2.88-5.04c0.24-4.19,2.19-6.65,5.96-7.53C39.9,33.6,39.9,33,39.94,32.46c0.24-3.39,2.05-5.58,5.38-6.52
				c0.09-0.03,0.18-0.05,0.28-0.08c0.62-4.01,2.67-5.9,6.29-5.77c1.02-1.24,2.34-2.35,4.43-1.41c0.33-3.8,2.33-6.6,5.51-7.68
				c2.86-0.97,6.17-0.3,7.86,1.59c1.33,1.48,1.5,3.5,0.49,5.66l-0.14,0.31l-0.02-0.34c-0.13-2.19-1.18-2.98-1.8-3.25
				c-0.86-0.38-1.86-0.25-2.63,0.36c-0.89,0.7-1.27,1.87-1.02,3.21c4.25,3.8,5.03,7.17,2.44,10.6l0.05,0.05
				c0.84,0.93,1.44,1.95,1.78,3.06c0.83,2.69,0.22,5.87-1.87,9.73c0.73,2.56,0.29,4.6-1.35,6.22c0.85,4.36-0.22,6.89-3.18,7.51
				c-0.44,4.33-2.65,5.35-3.94,5.57C58.25,61.33,58,61.35,57.75,61.35z M40.02,34.38c-3.73,0.86-5.65,3.29-5.87,7.43l0,0.04
				l-0.04,0.02c-2.22,1.4-3.28,3.23-2.84,4.87c0.5,1.87,2.73,3.12,5.84,3.25c7.49,0.13,11.8,1.92,13.57,5.64
				c1.68,3.6,5.03,5.96,7.79,5.49c2.15-0.37,3.5-2.31,3.8-5.48l0.01-0.06l0.06-0.01c2.9-0.58,3.95-3.06,3.1-7.37l-0.01-0.05
				l0.03-0.03c1.62-1.59,2.05-3.59,1.33-6.12l-0.01-0.03l0.02-0.03c2.08-3.84,2.69-6.99,1.87-9.63c-0.33-1.08-0.92-2.08-1.74-2.99
				l-0.13-0.14l0.03-0.08c2.57-3.37,1.81-6.69-2.4-10.44l-0.02-0.02l-0.01-0.03c-0.27-1.41,0.13-2.65,1.08-3.41
				c0.82-0.64,1.89-0.79,2.81-0.38c0.62,0.28,1.65,1.04,1.87,3.06c0.83-1.98,0.62-3.81-0.6-5.17c-1.65-1.84-4.88-2.49-7.68-1.54
				c-3.14,1.07-5.11,3.84-5.4,7.63L56.56,19l-0.21-0.1c-2.07-1-3.32,0.06-4.37,1.34l-0.03,0.03l-0.04,0
				c-3.55-0.15-5.57,1.71-6.16,5.67L45.75,26l-0.06,0.01c-0.11,0.03-0.22,0.06-0.33,0.09c-3.3,0.93-5.02,3.01-5.26,6.37
				c-0.04,0.56-0.04,1.17,0.01,1.81l0.01,0.14L40.02,34.38z"/>
		</g>
	</g>
	<g>
		<path class="st8" d="M50.62,55.72c-0.18-0.18-0.37-0.42-0.57-0.72c-2.39-3.69-4.92-0.8-4.92-0.8l-1.75,2.42
			c-1.46,0.91-2.18,0.55-2.22-0.97c1.22-3.26-0.14-5.11-4.06-5.56c-6.31-0.28-8.21-5.02-3.04-8.29c0.2-3.81,1.84-6.57,5.96-7.51
			c0,0,0.01,0,0.01,0c-2.1,10.22,19.44,10.97,22.32,21.37C61.56,63.99,53.68,62.22,50.62,55.72z"/>
	</g>
	<g class="st5">
		<path class="st4" d="M50.6,55.67c-1.98-4.17-7.08-5.47-13.49-5.59c-5.45-0.24-7.6-3.8-4.77-6.87c0.05,2.09,2.24,3.85,6.02,4.02
			c6.41,0.11,11.51,1.42,13.49,5.59c2.38,5.11,7.72,7.32,10.33,4.06C60.74,63.8,53.48,61.87,50.6,55.67z"/>
	</g>
	<g class="st9">
		<g>
			<path class="st2" d="M40.04,34.29c-0.14,0.66-0.17,1.28-0.12,1.86c-4.1,0.95-5.72,3.71-5.92,7.5c-1.53,0.97-2.44,2.06-2.8,3.13
				c-0.43-1.57,0.44-3.44,2.87-4.98C34.27,37.99,35.9,35.23,40.04,34.29C40.03,34.29,40.04,34.29,40.04,34.29z"/>
		</g>
	</g>
	<g class="st9">
		<g>
			<path class="st2" d="M62.14,57.04c-3.36-9.9-24.01-10.82-22.21-20.72c0.95,8.35,19.75,9.67,22.43,19.34
				C62.31,56.15,62.24,56.61,62.14,57.04z"/>
		</g>
	</g>
	<g>
		<g>
			<path class="st2" d="M39.93,36.31c-0.01-0.05-0.01-0.1-0.02-0.16c0.01,0,0.03-0.01,0.04-0.01c0,0,0.01,0,0.01,0
				C39.95,36.2,39.94,36.26,39.93,36.31z"/>
		</g>
		<g>
			<path class="st4" d="M39.91,36.91l-0.07-0.59c0-0.04-0.01-0.07-0.01-0.11l-0.01-0.13l0.14-0.03l0.1,0.04l-0.01,0.07
				c0,0.03-0.01,0.05-0.02,0.08c-0.01,0.03-0.01,0.06-0.02,0.09L39.91,36.91z"/>
		</g>
	</g>
	<g>
		<path class="st8" d="M66.9,29.15c-2.26-2.68-7.56-4.28-9.87-8.76c-0.25-0.48-0.46-1-0.64-1.56c0,0,0,0,0,0
			c0.92-12.13,17.82-9.39,13.7-0.59c-0.12-2-1.04-3.08-2.11-3.43c0,0-0.01-0.01-0.01-0.01c-1.8-0.57-4.02,0.97-3.49,3.79
			C68.16,21.87,69.82,25.32,66.9,29.15z"/>
		<path class="st4" d="M66.9,29.29l-0.07-0.08c-0.87-1.03-2.21-1.92-3.64-2.85c-2.26-1.48-4.82-3.17-6.24-5.93
			c-0.26-0.5-0.47-1.03-0.64-1.57l-0.01-0.02l0-0.02c0.29-3.86,2.3-6.71,5.52-7.8c2.86-0.97,6.17-0.3,7.86,1.59
			c1.33,1.48,1.5,3.5,0.49,5.66l-0.14,0.31l-0.02-0.34c-0.1-1.74-0.85-2.97-2.05-3.35l-0.03-0.01c-0.84-0.26-1.79-0.04-2.47,0.56
			c-0.8,0.71-1.13,1.84-0.9,3.11c4.27,3.82,5.04,7.2,2.4,10.65L66.9,29.29z M56.48,18.81c0.17,0.54,0.38,1.05,0.63,1.53
			c1.4,2.72,3.94,4.39,6.18,5.86c1.4,0.92,2.72,1.79,3.6,2.8c2.5-3.34,1.71-6.63-2.47-10.35l-0.02-0.02l-0.01-0.03
			c-0.25-1.34,0.1-2.54,0.95-3.3c0.73-0.65,1.74-0.88,2.64-0.6l0.03,0l0.02,0.02c1.18,0.39,1.94,1.53,2.12,3.16
			c0.83-1.98,0.62-3.81-0.6-5.17c-1.65-1.84-4.88-2.49-7.68-1.54C58.74,12.25,56.77,15.03,56.48,18.81z"/>
	</g>
	<g class="st9">
		<g>
			<path class="st2" d="M56.82,19.78c-0.17-0.36-0.31-0.74-0.44-1.15c0,0,0,0,0,0c0.8-10.55,13.7-9.85,14.32-3.69
				C68.41,10.25,57.76,10.43,56.82,19.78z"/>
		</g>
	</g>
	<g class="st9">
		<g>
			<path class="st2" d="M70.1,18.23c-0.01-0.15-0.02-0.3-0.04-0.45c0.04,0.09,0.08,0.18,0.12,0.27
				C70.15,18.12,70.12,18.18,70.1,18.23z"/>
		</g>
		<g>
			<path class="st4" d="M70.03,18.57l-0.02-0.33c-0.01-0.16-0.02-0.31-0.04-0.44l-0.07-0.5l0.23,0.45c0.04,0.08,0.08,0.18,0.13,0.28
				l0.01,0.03l-0.01,0.03c-0.03,0.06-0.05,0.12-0.08,0.18L70.03,18.57z"/>
		</g>
	</g>
	<g>
		<g>
			<g>
				<path class="st8" d="M65.53,48.18c-1.59-7.3-20.86-9.86-19.85-22.25c0.55-3.69,2.38-5.91,6.25-5.75
					c-3.91,12.51,14.3,12.51,14.95,21.79C67.57,44.4,67.24,46.5,65.53,48.18z"/>
			</g>
			<g>
				<path class="st4" d="M65.48,48.36l-0.03-0.15c-0.64-2.96-4.34-5.2-8.25-7.56c-5.72-3.46-12.2-7.37-11.6-14.72
					c0.61-4.08,2.68-5.98,6.34-5.83l0.11,0L52,20.21c-2.19,7.01,2.67,10.08,7.37,13.06c3.59,2.27,7.3,4.62,7.59,8.69
					c0.74,2.59,0.29,4.65-1.37,6.28L65.48,48.36z M51.53,20.27c-3.31,0-5.2,1.86-5.77,5.68c-0.59,7.23,5.85,11.12,11.52,14.55
					c3.88,2.34,7.54,4.56,8.29,7.52c1.53-1.57,1.93-3.54,1.22-6.01l0-0.02c-0.28-3.99-3.79-6.21-7.51-8.57
					c-4.73-3-9.62-6.09-7.47-13.15C51.71,20.27,51.62,20.27,51.53,20.27z"/>
			</g>
		</g>
	</g>
	<g class="st5">
		<g>
			<path class="st4" d="M65.53,48.18c-1.59-7.3-20.86-9.86-19.85-22.25c0.21-1.42,0.61-2.62,1.24-3.55
				c-0.05,0.24-0.09,0.48-0.13,0.73c-1.01,12.38,18.27,14.95,19.85,22.25c0.2-0.2,0.39-0.4,0.55-0.61
				C67.08,46.03,66.55,47.18,65.53,48.18z"/>
		</g>
	</g>
	<g class="st9">
		<g>
			<g>
				<path class="st2" d="M51.92,20.19c-0.22,0.71-0.37,1.39-0.46,2.02c-3.48,0-5.2,2.04-5.8,5.39c-0.04-0.53-0.03-1.09,0.01-1.66
					C46.23,22.24,48.05,20.02,51.92,20.19z"/>
			</g>
		</g>
		<g>
			<g>
				<path class="st2" d="M67.09,45.42c-0.05-0.46-0.15-0.92-0.29-1.41c-0.62-8.78-16.94-9.26-15.4-19.86
					c0.69,8.67,14.9,9.65,15.48,17.83C67.23,43.21,67.32,44.36,67.09,45.42z"/>
			</g>
		</g>
	</g>
	<g>
		<path class="st4" d="M57.73,61.94c-2.92,0-6.06-2.38-7.74-5.99c-0.17-0.36-0.38-0.71-0.61-1.03c-0.64-0.9-1.78-1.26-2.77-0.89
			c-0.72,0.27-1.3,0.82-1.73,1.64c-1.08,2.07-2.41,2.41-3.3,2.03c-0.84-0.36-1.43-1.51-0.91-3c0.29-0.85,0.25-1.71-0.12-2.42
			c-0.36-0.69-0.97-1.17-1.78-1.41c-0.16-0.05-0.33-0.07-0.52-0.08c-0.36-0.02-0.74-0.03-1.16-0.04c-0.01,0-0.01,0-0.02,0
			c-3.45-0.15-5.96-1.61-6.54-3.82c-0.51-1.91,0.57-3.96,2.88-5.52c0.32-4.07,2.31-6.64,5.92-7.65c-0.16-4.41,1.77-7.22,5.75-8.38
			c0.72-3.91,2.88-5.89,6.45-5.89c0.03,0,0.06,0,0.09,0c0.97-1.12,2.28-2.15,4.21-1.62c0.54-3.66,2.62-6.34,5.81-7.42
			c3.12-1.06,6.62-0.34,8.49,1.75c1.5,1.67,1.7,3.91,0.58,6.31c-0.13,0.28-0.44,0.44-0.74,0.38c-0.3-0.06-0.53-0.32-0.55-0.62
			c-0.08-1.39-0.6-2.37-1.45-2.75c-0.65-0.29-1.43-0.19-2.02,0.28c-0.67,0.53-0.97,1.41-0.84,2.45c4.17,3.79,5.04,7.35,2.65,10.86
			c1.4,1.67,2.08,3.64,2.02,5.85c-0.06,2.12-0.77,4.45-2.18,7.1c0.66,2.53,0.21,4.66-1.34,6.34c0.94,5.31-1.14,7.19-3.28,7.8
			c-0.43,3.21-2.01,5.27-4.38,5.67C58.31,61.92,58.02,61.94,57.73,61.94z M47.41,52.54c1.19,0,2.35,0.58,3.07,1.6
			c0.27,0.39,0.52,0.8,0.73,1.24c1.57,3.37,4.65,5.59,7.16,5.16c1.86-0.32,3.04-2.08,3.31-4.95c0.03-0.3,0.25-0.54,0.54-0.6
			c0.94-0.19,3.8-0.75,2.64-6.68c-0.04-0.22,0.03-0.45,0.19-0.61c1.45-1.42,1.83-3.23,1.17-5.53c-0.05-0.17-0.03-0.35,0.06-0.51
			c2.82-5.19,2.86-9.13,0.12-12.04c-0.23-0.24-0.25-0.61-0.04-0.87c2.38-3.12,1.66-6.09-2.32-9.65c-0.11-0.1-0.19-0.23-0.21-0.38
			c-0.31-1.64,0.16-3.08,1.29-3.98c0.99-0.78,2.3-0.95,3.41-0.45c0.64,0.29,1.16,0.77,1.54,1.41c0.03-0.98-0.29-1.85-0.95-2.58
			c-1.5-1.68-4.47-2.25-7.05-1.38c-1.71,0.58-4.63,2.28-5,7.14c-0.02,0.22-0.14,0.42-0.34,0.53c-0.19,0.11-0.43,0.12-0.63,0.02
			c-1.41-0.68-2.4-0.36-3.66,1.18c-0.13,0.17-0.34,0.26-0.55,0.25c-3.24-0.14-5,1.51-5.55,5.17c-0.04,0.27-0.24,0.49-0.5,0.55
			c-3.81,0.96-5.44,3.39-5.13,7.65c0.02,0.33-0.2,0.63-0.52,0.71c-3.5,0.79-5.23,2.98-5.44,6.89c-0.01,0.22-0.13,0.42-0.31,0.53
			c-1.99,1.26-2.96,2.84-2.59,4.23c0.42,1.59,2.5,2.69,5.29,2.81c0.43,0.01,0.82,0.02,1.18,0.04c0.29,0.01,0.57,0.06,0.83,0.13
			c1.16,0.34,2.08,1.08,2.61,2.08c0.54,1.04,0.61,2.28,0.2,3.48c-0.25,0.74-0.05,1.22,0.17,1.32c0.26,0.11,0.92-0.17,1.56-1.41
			c0.59-1.13,1.41-1.89,2.45-2.28C46.55,52.61,46.98,52.54,47.41,52.54z"/>
	</g>
	<g>
		<path class="st4" d="M66.99,29.93c-0.2,0-0.39-0.09-0.53-0.25c-0.81-1.01-2.16-1.9-3.59-2.84c-2.77-1.82-5.9-3.88-7.12-7.82
			c-0.11-0.36,0.09-0.73,0.45-0.84c0.36-0.11,0.73,0.09,0.84,0.45c1.07,3.48,3.99,5.4,6.57,7.09c1.52,1,2.96,1.95,3.91,3.12
			c0.23,0.29,0.19,0.72-0.11,0.95C67.29,29.89,67.14,29.93,66.99,29.93z"/>
	</g>
	<g>
		<path class="st4" d="M64.03,19.1c-0.09-0.1-0.15-0.17-0.22-0.26c-0.07-0.08-0.13-0.17-0.19-0.26c-0.12-0.17-0.24-0.35-0.35-0.52
			c-0.22-0.36-0.41-0.73-0.58-1.11c-0.17-0.38-0.3-0.77-0.4-1.17c-0.1-0.4-0.14-0.81-0.16-1.21c0-0.07,0.05-0.14,0.13-0.14
			c0.06,0,0.12,0.04,0.14,0.1l0,0.01c0.1,0.37,0.22,0.73,0.4,1.06c0.17,0.34,0.36,0.66,0.59,0.95c0.22,0.3,0.47,0.58,0.73,0.84
			c0.13,0.13,0.27,0.26,0.4,0.38c0.07,0.06,0.14,0.12,0.21,0.17c0.07,0.05,0.15,0.11,0.2,0.15c0.32,0.2,0.41,0.63,0.2,0.94
			c-0.2,0.32-0.63,0.41-0.94,0.2c-0.05-0.03-0.09-0.07-0.13-0.11L64.03,19.1z"/>
	</g>
	<g>
		<path class="st4" d="M66.87,42.66c-0.35,0-0.65-0.27-0.67-0.63c-0.26-3.69-3.65-5.84-7.24-8.11c-4.71-2.98-10.05-6.37-7.69-13.93
			c0.11-0.36,0.49-0.55,0.85-0.44c0.36,0.11,0.55,0.49,0.44,0.85c-2.06,6.57,2.4,9.4,7.12,12.38c3.71,2.35,7.55,4.78,7.86,9.16
			c0.03,0.37-0.25,0.7-0.63,0.72C66.91,42.65,66.89,42.66,66.87,42.66z"/>
	</g>
	<g class="st5">
		<g>
			<path class="st4" d="M66.83,41.96c-0.65-9.28-18.87-9.29-14.95-21.79c0.47-0.58,0.98-1.09,1.56-1.41
				c-1.59,7.83,6.19,10.35,11.24,14.2c0.48,0.37,1.05,0.62,1.66,0.69c1.52,0.17,2.06-0.79,1.62-2.9l1.15,3.75
				c0,0-0.39,1.98-0.65,3.27c-0.11,0.56-0.19,0.98-0.21,1.06c0,0.01,0,0.01,0,0.01C67.89,39.85,67.41,40.89,66.83,41.96z"/>
		</g>
		<g>
			<path class="st4" d="M68.25,38.83c0.01-0.08,0.1-0.5,0.21-1.06c0.02,0.08,0.05,0.16,0.07,0.23
				C68.45,38.28,68.35,38.56,68.25,38.83z"/>
		</g>
	</g>
	<g>
		<path class="st4" d="M65.53,48.86c-0.31,0-0.59-0.22-0.66-0.53c-0.59-2.72-4.18-4.88-7.98-7.18C51.02,37.6,44.37,33.59,45,25.88
			c0.03-0.37,0.36-0.65,0.73-0.62c0.37,0.03,0.65,0.36,0.62,0.73c-0.56,6.88,5.71,10.66,11.24,14c4.06,2.45,7.89,4.76,8.6,8.05
			c0.08,0.36-0.15,0.72-0.52,0.8C65.62,48.85,65.57,48.86,65.53,48.86z"/>
	</g>
	<g>
		<path class="st4" d="M62.36,56.33c-0.3,0-0.57-0.2-0.65-0.5c-1.28-4.61-6.59-7.27-11.73-9.85c-3.01-1.51-5.85-2.93-7.88-4.72
			c-2.39-2.1-3.28-4.43-2.73-7.12c0.08-0.37,0.43-0.6,0.8-0.53c0.37,0.08,0.6,0.43,0.53,0.8c-1.01,4.9,4.04,7.43,9.89,10.36
			c5.4,2.71,10.99,5.5,12.42,10.69c0.1,0.36-0.11,0.73-0.47,0.83C62.48,56.32,62.42,56.33,62.36,56.33z"/>
	</g>
	<g class="st5">
		<g>
			<path class="st4" d="M65.13,53.83c-0.05,0.09-0.11,0.18-0.17,0.27c-0.58,0.81-1.45,1.32-2.6,1.55
				c-2.88-10.4-24.43-11.14-22.32-21.36c-0.05-0.65-0.05-1.25-0.01-1.82c0-0.03,0-0.06,0.01-0.09c0.02-0.29,0.06-0.57,0.1-0.84
				c0-0.01,0-0.03,0.01-0.04c0.02-0.08,0.03-0.17,0.05-0.25c0.05-0.27,0.12-0.52,0.2-0.77c0.02-0.08,0.05-0.16,0.08-0.25
				c0.08-0.23,0.17-0.46,0.28-0.67c0.06-0.13,0.13-0.27,0.21-0.4c0.04-0.06,0.08-0.13,0.11-0.19c0.04-0.06,0.08-0.12,0.12-0.18
				c0.04-0.06,0.08-0.12,0.12-0.18c0,0,0,0,0,0c0.04-0.06,0.08-0.11,0.13-0.17c0.05-0.06,0.09-0.11,0.14-0.17
				c0.14-0.17,0.29-0.32,0.44-0.47c0.06-0.06,0.12-0.11,0.19-0.17c-0.68,1.63-0.44,4.11,0.32,7.08c0.11,1.29,0.71,2.45,1.78,3.5
				c3.7,3.48,10.95,5.69,15.74,9.34c0.21,0.18,0.42,0.35,0.62,0.49c2.27,1.68,3.72,1.37,4.07-1.69l0.94,2.61
				c0.04,0.21,0.18,0.87,0.19,1.07c0.01,0.2-0.02,1.17-0.06,1.54c-0.02,0.19-0.23,0.89-0.42,1.51
				C65.28,53.37,65.19,53.64,65.13,53.83z"/>
		</g>
		<g>
			<path class="st4" d="M60.03,47.55c0.21,0.16,0.42,0.33,0.62,0.49C60.45,47.9,60.24,47.73,60.03,47.55z"/>
		</g>
		<g>
			<path class="st4" d="M65.13,53.83c0.06-0.19,0.15-0.46,0.24-0.75c0.05-0.02,0.09-0.04,0.13-0.06
				C65.4,53.32,65.28,53.59,65.13,53.83z"/>
		</g>
	</g>
	<g>
		<path class="st4" d="M34.6,41.38c0.49,0.7,1.09,1.34,1.77,1.91c0.68,0.57,1.43,1.06,2.22,1.5c1.58,0.88,3.31,1.56,5.04,2.18
			c0.07,0.03,0.11,0.1,0.08,0.17c-0.02,0.07-0.09,0.1-0.16,0.09c-1.8-0.45-3.59-0.96-5.33-1.71c-0.86-0.38-1.71-0.82-2.51-1.37
			c-0.8-0.54-1.55-1.19-2.19-1.94l0,0c-0.24-0.28-0.21-0.71,0.08-0.95c0.28-0.24,0.71-0.21,0.95,0.08
			C34.57,41.35,34.59,41.37,34.6,41.38z"/>
	</g>
	<g class="st5">
		<path class="st6" d="M40.46,30.24c0.08-0.24,0.17-0.46,0.28-0.67C40.64,29.78,40.54,30.01,40.46,30.24z"/>
		<path class="st4" d="M40.55,30.27l-0.16-0.06c0.07-0.22,0.17-0.44,0.28-0.68l0.16,0.07C40.72,29.82,40.62,30.04,40.55,30.27z"/>
	</g>
	<g class="st5">
		<path class="st6" d="M40.95,29.17c-0.07,0.13-0.14,0.26-0.21,0.4C40.8,29.43,40.87,29.3,40.95,29.17z"/>
		<path class="st4" d="M40.82,29.61l-0.16-0.07l0,0l0,0c0,0,0,0,0,0c0.06-0.12,0.13-0.27,0.21-0.4l0.15,0.09
			C40.95,29.34,40.88,29.47,40.82,29.61z"/>
	</g>
	<g class="st5">
		<path class="st6" d="M40.38,30.49c-0.08,0.25-0.14,0.5-0.2,0.77C40.24,30.99,40.3,30.73,40.38,30.49z"/>
		<path class="st4" d="M40.27,31.27l-0.17-0.03c0.05-0.28,0.12-0.54,0.2-0.78l0.16,0.05C40.39,30.75,40.33,31,40.27,31.27z"/>
	</g>
	<g class="st5">
		<path class="st6" d="M40.13,31.55c-0.05,0.27-0.08,0.55-0.1,0.84C40.05,32.09,40.09,31.81,40.13,31.55z"/>
		<path class="st4" d="M40.12,32.39l-0.17-0.01c0.02-0.31,0.06-0.59,0.1-0.85l0.17,0.03C40.18,31.82,40.14,32.1,40.12,32.39z"/>
	</g>
	<g class="st5">
		<path class="st6" d="M42.01,27.81c-0.16,0.15-0.3,0.31-0.44,0.47C41.71,28.11,41.85,27.96,42.01,27.81z"/>
		<path class="st4" d="M41.63,28.34l-0.13-0.11c0.14-0.17,0.29-0.33,0.45-0.48l0.12,0.13C41.92,28.02,41.77,28.18,41.63,28.34z"/>
	</g>
	<g class="st5">
		<path class="st6" d="M40.03,32.38c0,0.03,0,0.06-0.01,0.09l0,0C40.03,32.44,40.03,32.41,40.03,32.38z"/>
		<path class="st4" d="M40.11,32.6l-0.17-0.07l0-0.06c0-0.03,0-0.06,0.01-0.09l0,0c0,0,0,0,0,0l0.17,0.02c0,0.03,0,0.05,0,0.08
			L40.11,32.6z"/>
	</g>
	<g class="st5">
		<path class="st6" d="M42.87,27.13c-0.31,0.21-0.59,0.43-0.85,0.68C42.27,27.56,42.56,27.33,42.87,27.13z"/>
		<path class="st4" d="M42.07,27.87l-0.12-0.13c0.26-0.25,0.55-0.48,0.87-0.69l0.1,0.14C42.61,27.4,42.33,27.63,42.07,27.87z"/>
	</g>
	<g class="st5">
		<path class="st4" d="M66.9,29.15c-2.26-2.68-7.56-4.28-9.87-8.76c-0.06-0.35-0.09-0.55-0.09-0.55c3.09,2.53,5.5,3.73,5.46,0.16
			c-0.72-4.51,0.27-7.17,5.57-5.19c-1.8-0.57-4.02,0.97-3.49,3.79C68.16,21.87,69.82,25.32,66.9,29.15z"/>
	</g>
	<g class="st5">
		<path class="st6" d="M65.03,54.15c0,0-0.03-0.02-0.07-0.05c0.06-0.09,0.12-0.17,0.17-0.27C65.07,54.02,65.03,54.15,65.03,54.15z"
			/>
		<path class="st4" d="M65.08,54.28l-0.25-0.16l0.05-0.07c0.05-0.07,0.11-0.16,0.17-0.26l0.41-0.72L65.08,54.28z"/>
	</g>
</g>
</svg>
