<?xml version="1.0" encoding="utf-8"?>
<!-- Generator: Adobe Illustrator 25.1.0, SVG Export Plug-In . SVG Version: 6.00 Build 0)  -->
<svg version="1.1" id="Layer_1" xmlns="http://www.w3.org/2000/svg" xmlns:xlink="http://www.w3.org/1999/xlink" x="0px" y="0px"
	 viewBox="0 0 100 100" style="enable-background:new 0 0 100 100;" xml:space="preserve">
<style type="text/css">
	.st0{fill:#F7AF41;}
	.st1{opacity:0.3;}
	.st2{fill:#6D184E;}
	.st3{fill:#FFCE00;}
	.st4{opacity:0.65;}
	.st5{fill:#FFFFFF;}
	.st6{fill:#EE1822;}
	.st7{fill:#BD1622;}
	.st8{fill:#48C75A;}
	.st9{fill:#661A47;}
	.st10{fill:#651B47;}
	.st11{fill:#EB984E;}
</style>
<g>
	<g>
		<g>
			<path class="st0" d="M7.94,79.34c0,0-1.8,5.74,11.63-2.48s46.96-14.5,62.82-12.49c15.86,2.01,4.66-35.7-7.11-41.75
				S26.69,42.7,7.94,79.34z"/>
		</g>
		<g class="st1">
			<path class="st2" d="M9.01,78.07c0,0-2.87,7,10.56-1.21s46.96-14.5,62.82-12.49c15.86,2.01,4.66-35.7-7.11-41.75
				S27.76,41.43,9.01,78.07z"/>
		</g>
		<g>
			<path class="st2" d="M10.26,81.46c-0.71,0-1.26-0.17-1.68-0.5C7.31,79.93,8,77.94,8.03,77.85c0.01-0.03,0.02-0.05,0.03-0.08
				C16.68,60.93,27.8,48.6,35.61,41.23c9.9-9.35,20.34-16.25,28.66-18.92c4.8-1.54,8.6-1.62,11.3-0.24
				c4.27,2.2,8.74,8.48,11.93,16.81c3.13,8.16,4.16,16.19,2.68,20.96c-1.06,3.44-3.34,5.22-6.61,5.22c-0.41,0-0.83-0.03-1.26-0.08
				c-16.32-2.06-49.57,4.55-62.42,12.41C15.44,80.11,12.25,81.46,10.26,81.46z M9.18,78.3c-0.11,0.36-0.29,1.32,0.18,1.7
				c0.4,0.32,2.28,0.99,9.89-3.66c6.37-3.9,17.56-7.6,30.7-10.16c12.73-2.48,24.88-3.39,32.52-2.42c3.33,0.42,5.52-1.02,6.53-4.28
				c1.4-4.51,0.38-12.24-2.66-20.15C83.3,31.39,78.95,25.2,75,23.17c-2.36-1.21-5.94-1.11-10.35,0.31
				C56.5,26.1,46.23,32.9,36.46,42.12C28.72,49.43,17.71,61.63,9.18,78.3z"/>
		</g>
		<g>
			<g>
				<path class="st3" d="M76.11,29.84c-1.86-0.43,0.19-1.13-2.29-3.59s-5.19-0.44-5.19-0.44c0.44-0.9,0.54-1.74,0.07-2.41
					c-2.13-2.98-7.71-1.11-9.75-3.5c-2.04-2.39-6.92-0.2-6.92-0.2S22.9,37.09,14.56,57.12c-8.34,20.03-7.7,26.18-4.08,24.79
					c3.63-1.39,6.3-4.51,8.95-2.05c2.65,2.46-0.66,7.08,2.55,9.35c1.8,1.27,5.96-1.01,3.96-4.43c-2-3.41-4.65-9.74-0.16-13.13
					s14.79-5.2,14.18-0.43c-1.51,11.81,11.06,6.8,7.16,1.81c-3.31-4.24-0.27-11.68,7.13-7.58c6.2,3.44,5.42-1.24,11.53-3.25
					c4.56-1.5,12.96-1.55,12.96-1.55c5.89-3.46,0.57-5.17,0.57-5.17s4.94-3.8,3.7-6.43s-0.64-6.77-0.53-10.96
					C82.58,33.9,77.98,30.27,76.11,29.84z"/>
			</g>
			<g class="st1">
				<path class="st2" d="M76.11,29.84c-1.86-0.43,0.19-1.13-2.29-3.59s-5.19-0.44-5.19-0.44c0.44-0.9,0.54-1.74,0.07-2.41
					c-2.13-2.98-7.71-1.11-9.75-3.5c-2.04-2.39-6.92-0.2-6.92-0.2s-0.68,0.4-1.85,1.16c9.12,2.4,27.93,10.07,24.47,37.41
					c0,0-36.39,2.61-46.39,8.83c-7.19,4.47-14.42,12.88-20.03,13.95c0.4,1.03,1.2,1.26,2.26,0.86c3.63-1.39,6.3-4.51,8.95-2.05
					c2.65,2.46-0.66,7.08,2.55,9.35c1.8,1.27,5.96-1.01,3.96-4.43c-2-3.41-4.65-9.74-0.16-13.13s14.79-5.2,14.18-0.43
					c-1.51,11.81,11.06,6.8,7.16,1.81c-3.31-4.24-0.27-11.68,7.13-7.58c6.2,3.44,5.42-1.24,11.53-3.25
					c4.56-1.5,12.96-1.55,12.96-1.55c5.89-3.46,0.57-5.17,0.57-5.17s4.94-3.8,3.7-6.43s-0.64-6.77-0.53-10.96
					C82.58,33.9,77.98,30.27,76.11,29.84z"/>
			</g>
			<g class="st4">
				<g>
					<path class="st5" d="M77.71,30.78c0.16,0.04,0.35,0.1,0.54,0.18c-0.51-0.37-1.01-0.67-1.44-0.87
						C76.86,30.41,77,30.61,77.71,30.78z"/>
				</g>
				<g>
					<path class="st5" d="M80.95,56.43c-0.01-0.01-0.02-0.02-0.03-0.03c-0.01,0.01-0.02,0.01-0.02,0.01S80.91,56.42,80.95,56.43z"/>
				</g>
				<g>
					<path class="st5" d="M70.23,26.74c0,0,1.59-1.19,3.45-0.64c-1.08-0.99-2.19-1.17-3.09-1.05
						C70.67,25.57,70.53,26.14,70.23,26.74z"/>
				</g>
				<g>
					<path class="st5" d="M68.29,22.91c-1.84-1.78-5.31-1.25-7.66-2C62.22,22.63,65.75,22.02,68.29,22.91z"/>
				</g>
				<g>
					<path class="st5" d="M52.03,19.7c0,0-12.97,7.74-24.08,18.84c-0.22,0.16-0.43,0.35-0.62,0.56c-0.12,0.13-0.23,0.27-0.34,0.41
						c-5.17,5.31-9.83,11.33-12.44,17.61C6.72,75.93,6.81,82.5,9.85,82.08c-1.05-2.42,0.31-9.65,6.3-24.02
						c2.25-5.41,6.02-10.62,10.32-15.36c0.09,0.16,0.2,0.31,0.34,0.44c0.96,0.88,2.74,0.51,3.99-0.84c1.25-1.35,1.48-3.16,0.53-4.04
						c-0.09-0.09-0.2-0.16-0.3-0.22C41.77,27.71,52.87,19.8,52.87,19.8s3.77-0.52,6.05,0.06C56.86,17.53,52.03,19.7,52.03,19.7z"/>
				</g>
			</g>
			<g>
				<path class="st2" d="M23.22,90.19c-0.59,0-1.15-0.15-1.6-0.47c-1.96-1.39-1.84-3.51-1.73-5.38c0.09-1.57,0.17-3.05-0.88-4.03
					c-1.48-1.37-2.91-0.68-5.29,0.67c-0.95,0.53-1.92,1.09-3.02,1.5c-1.31,0.5-2.1,0.08-2.52-0.35c-2.72-2.8,1.66-15.28,5.81-25.25
					c4.36-10.46,14.39-20.17,22.04-26.46c8.27-6.8,15.61-11.21,15.69-11.25c0.02-0.01,0.04-0.02,0.06-0.03
					c0.22-0.1,5.33-2.35,7.64,0.36c0.8,0.94,2.4,1.11,4.1,1.28c2.06,0.22,4.4,0.46,5.69,2.26c0.33,0.46,0.47,1,0.42,1.59
					c1.29-0.41,3.06-0.39,4.63,1.17c1.48,1.48,1.53,2.47,1.56,3.06c0,0.08,0.01,0.18,0.02,0.23c0.04,0.02,0.15,0.08,0.41,0.14l0,0
					c2.15,0.49,6.96,4.36,6.84,8.87c-0.02,0.93-0.07,1.85-0.12,2.75c-0.16,3.1-0.31,6.02,0.59,7.93c1.12,2.38-1.64,5.24-3.1,6.53
					c0.7,0.39,1.55,1.07,1.66,2.08c0.14,1.25-0.86,2.49-3.07,3.78c-0.09,0.05-0.2,0.08-0.31,0.08c-0.08,0-8.36,0.07-12.78,1.52
					c-2.2,0.72-3.44,1.79-4.53,2.73c-2.03,1.75-3.47,2.71-7.5,0.48c-2.76-1.53-5.13-1.48-6.51,0.13c-1.45,1.69-1.37,4.56,0.17,6.53
					c1.13,1.44,1.18,3.13,0.14,4.51c-1.27,1.68-3.73,2.39-5.6,1.63c-1.34-0.54-3.47-2.26-2.79-7.65c0.1-0.78-0.15-1.31-0.79-1.68
					c-2.34-1.36-8.95,0.07-12.41,2.69c-4.32,3.27-1.21,9.71,0.32,12.33c0.99,1.68,0.78,3.41-0.54,4.62
					C25.16,89.81,24.15,90.19,23.22,90.19z M17.3,78.33c0.86,0,1.71,0.3,2.55,1.08c1.48,1.37,1.37,3.3,1.28,5
					c-0.1,1.78-0.19,3.31,1.21,4.3c0.67,0.47,1.94,0.24,2.76-0.52c0.51-0.47,1.24-1.5,0.31-3.09c-1.7-2.9-5.11-10.07,0-13.94
					c3.55-2.68,10.74-4.53,13.77-2.77c1.07,0.62,1.55,1.63,1.39,2.91c-0.43,3.38,0.29,5.64,2.03,6.35c1.36,0.55,3.22,0,4.15-1.23
					c0.41-0.54,0.94-1.65-0.12-3.01c-1.89-2.42-1.95-5.97-0.14-8.09c1.77-2.07,4.78-2.22,8.05-0.41c3.48,1.93,4.35,1.17,6.1-0.33
					c1.12-0.97,2.51-2.17,4.95-2.97c4.3-1.41,11.74-1.56,12.99-1.58c2.12-1.27,2.37-2.11,2.33-2.5c-0.08-0.75-1.34-1.33-1.78-1.47
					c-0.22-0.07-0.38-0.26-0.42-0.48c-0.04-0.23,0.05-0.45,0.23-0.59c1.18-0.91,4.36-3.9,3.52-5.68c-1.03-2.19-0.87-5.27-0.7-8.52
					c0.05-0.89,0.09-1.81,0.12-2.72c0.1-3.75-4.14-7.23-5.88-7.63c-1.12-0.26-1.35-0.73-1.39-1.51c-0.02-0.47-0.05-1.11-1.19-2.25
					c-2.05-2.05-4.29-0.45-4.38-0.38c-0.23,0.17-0.54,0.16-0.76-0.02c-0.22-0.18-0.28-0.49-0.16-0.74c0.56-1.15,0.23-1.62,0.12-1.78
					c-0.96-1.35-2.83-1.55-4.81-1.75c-1.86-0.2-3.79-0.4-4.91-1.71c-1.42-1.66-4.9-0.61-6.17-0.05c-0.52,0.32-7.59,4.62-15.52,11.14
					c-7.54,6.2-17.42,15.75-21.67,25.97c-3.05,7.33-5.07,13.21-6,17.46c-1.05,4.8-0.39,6.11-0.06,6.46c0.09,0.09,0.37,0.38,1.2,0.06
					c1.01-0.39,1.95-0.91,2.85-1.43C14.49,79.13,15.9,78.33,17.3,78.33z"/>
			</g>
		</g>
		<g>
			<path class="st2" d="M56.43,60.23c3.52-0.64,7.06-1.21,10.62-1.67c1.78-0.23,3.56-0.43,5.35-0.59c1.79-0.16,3.59-0.27,5.4-0.3
				c0.3-0.01,0.54,0.23,0.55,0.53c0.01,0.3-0.23,0.54-0.53,0.55c-0.01,0-0.02,0-0.03,0l0,0c-1.77-0.06-3.56-0.03-5.34,0.03
				c-1.78,0.07-3.57,0.18-5.35,0.32C63.54,59.38,59.98,59.78,56.43,60.23z"/>
		</g>
	</g>
	<g class="st1">
		<g>
			<path class="st2" d="M67.81,22.6c0,0,0.02-0.01,0.05-0.03c-0.01-0.01-0.02-0.01-0.03-0.02C67.83,22.56,67.82,22.58,67.81,22.6z"
				/>
		</g>
		<g>
			<path class="st2" d="M81.64,34.88c-0.11,4.19-0.71,8.33,0.53,10.96c0.07,0.14,0.11,0.29,0.15,0.43
				c-0.23-2.37,0.08-5.27,0.16-8.18c0.03-1.16-0.3-2.27-0.83-3.29C81.64,34.83,81.64,34.85,81.64,34.88z"/>
		</g>
		<g>
			<path class="st2" d="M82.37,46.72c0.03,2.52-3.9,5.55-3.9,5.55s2.06,0.66,2.2,1.99c1.36-1.34,3.13-3.52,2.33-5.22
				C82.68,48.36,82.49,47.58,82.37,46.72z"/>
		</g>
	</g>
	<g>
		<g>
			
				<ellipse transform="matrix(0.8397 -0.543 0.543 0.8397 -8.4662 35.547)" class="st6" cx="55.99" cy="32.12" rx="8.98" ry="7.17"/>
		</g>
		<g class="st4">
			<path class="st5" d="M57.29,39.19c-4.4,1.14-8.27-1.07-8.63-4.94c-0.36-3.87,2.91-7.93,7.32-9.07c3.24-0.84,6.18,0.14,7.66,2.25
				c-1.48-2.48-4.74-3.67-8.35-2.74c-4.67,1.21-8.14,5.52-7.76,9.62c0.39,4.1,4.48,6.45,9.15,5.24c1.23-0.32,2.38-0.86,3.4-1.55
				C59.23,38.52,58.29,38.93,57.29,39.19z"/>
		</g>
		<g>
			<path class="st7" d="M56.69,26.37l1.02,10.86c2.85-1.25,4.83-4.06,4.58-6.75C62.03,27.79,59.63,26.12,56.69,26.37z"/>
		</g>
		<g>
			<path class="st7" d="M54.14,27.06c-2.78,1.27-4.7,4.04-4.45,6.69c0.25,2.65,2.58,4.31,5.46,4.12L54.14,27.06z"/>
		</g>
		<g>
			<path class="st7" d="M54.14,27.06c-2.78,1.27-4.7,4.04-4.45,6.69c0.25,2.65,2.58,4.31,5.46,4.12L54.14,27.06z"/>
		</g>
		<g>
			<path class="st6" d="M54.53,30.68c-0.91,0.42-1.54,1.32-1.46,2.19c0.08,0.87,0.84,1.41,1.79,1.35L54.53,30.68z"/>
		</g>
		<g>
			<path class="st6" d="M56.98,30.04c0.94-0.06,1.71,0.48,1.79,1.35c0.08,0.87-0.55,1.77-1.46,2.19L56.98,30.04z"/>
		</g>
		<g>
			<path class="st2" d="M54.26,40.38c-1.7,0-3.29-0.46-4.56-1.35c-1.56-1.09-2.52-2.75-2.7-4.68c-0.41-4.34,3.25-8.91,8.15-10.18
				c2.63-0.68,5.22-0.31,7.11,1.02c1.56,1.09,2.52,2.75,2.7,4.68c0.41,4.34-3.25,8.91-8.15,10.18
				C55.95,40.27,55.09,40.38,54.26,40.38z M57.71,24.89c-0.74,0-1.52,0.1-2.29,0.3c-4.42,1.15-7.73,5.21-7.37,9.06
				c0.15,1.61,0.95,3,2.26,3.92c1.64,1.15,3.92,1.46,6.25,0.86c4.42-1.15,7.73-5.21,7.37-9.06c-0.15-1.61-0.95-3-2.26-3.92
				C60.57,25.29,59.2,24.89,57.71,24.89z"/>
		</g>
		<g>
			<path class="st7" d="M57.71,37.75c-0.09,0-0.18-0.02-0.27-0.07c-0.14-0.09-0.24-0.24-0.26-0.4l-1.02-10.86
				c-0.01-0.14,0.03-0.28,0.12-0.38c0.09-0.11,0.22-0.17,0.36-0.19c3.3-0.29,5.89,1.64,6.16,4.58c0.27,2.86-1.79,5.92-4.89,7.28
				C57.85,37.74,57.78,37.75,57.71,37.75z M57.26,26.87l0.9,9.55c2.32-1.29,3.81-3.67,3.6-5.89C61.56,28.35,59.7,26.87,57.26,26.87
				C57.27,26.87,57.26,26.87,57.26,26.87z"/>
		</g>
		<g>
			<path class="st7" d="M54.7,38.41c-2.98,0-5.28-1.88-5.53-4.61c-0.27-2.84,1.69-5.81,4.75-7.21c0.15-0.07,0.33-0.06,0.48,0.02
				c0.15,0.08,0.24,0.24,0.26,0.4l1.02,10.81c0.01,0.14-0.03,0.28-0.12,0.39c-0.09,0.11-0.22,0.17-0.36,0.18
				C55.02,38.4,54.86,38.41,54.7,38.41z M53.69,27.88c-2.25,1.31-3.68,3.65-3.48,5.82c0.2,2.17,1.97,3.62,4.37,3.66L53.69,27.88z"/>
		</g>
	</g>
	<g>
		<g>
			
				<ellipse transform="matrix(0.8397 -0.543 0.543 0.8397 -21.9767 28.4843)" class="st6" cx="37.27" cy="51.47" rx="8.4" ry="6.7"/>
		</g>
		<g class="st4">
			<path class="st5" d="M38.49,58.09c-4.12,1.07-7.73-1-8.07-4.62c-0.34-3.62,2.72-7.42,6.84-8.49c3.03-0.79,5.78,0.13,7.17,2.1
				c-1.38-2.32-4.44-3.44-7.81-2.56c-4.37,1.13-7.62,5.16-7.26,9c0.36,3.84,4.19,6.03,8.56,4.9c1.15-0.3,2.23-0.8,3.18-1.45
				C40.3,57.46,39.42,57.84,38.49,58.09z"/>
		</g>
		<g>
			<path class="st7" d="M37.92,46.1l0.95,10.16c2.67-1.17,4.52-3.79,4.28-6.31C42.92,47.43,40.68,45.86,37.92,46.1z"/>
		</g>
		<g>
			<path class="st7" d="M35.53,46.74c-2.6,1.19-4.39,3.78-4.16,6.26c0.23,2.48,2.41,4.04,5.11,3.85L35.53,46.74z"/>
		</g>
		<g>
			<path class="st7" d="M35.53,46.74c-2.6,1.19-4.39,3.78-4.16,6.26c0.23,2.48,2.41,4.04,5.11,3.85L35.53,46.74z"/>
		</g>
		<g>
			<path class="st6" d="M35.9,50.13c-0.85,0.39-1.44,1.24-1.36,2.05c0.08,0.81,0.79,1.32,1.67,1.26L35.9,50.13z"/>
		</g>
		<g>
			<path class="st6" d="M38.2,49.53c0.88-0.06,1.6,0.45,1.67,1.26c0.08,0.81-0.51,1.66-1.36,2.05L38.2,49.53z"/>
		</g>
		<g>
			<path class="st2" d="M35.65,59.26c-1.6,0-3.09-0.43-4.29-1.27c-1.47-1.03-2.37-2.6-2.54-4.41c-0.38-4.08,3.05-8.38,7.66-9.57
				c2.47-0.64,4.91-0.29,6.69,0.96c1.47,1.03,2.37,2.6,2.54,4.41l0,0c0.38,4.08-3.05,8.38-7.66,9.57
				C37.24,59.15,36.44,59.26,35.65,59.26z M38.88,44.77c-0.69,0-1.41,0.09-2.13,0.28c-4.12,1.07-7.19,4.85-6.86,8.43
				c0.14,1.49,0.88,2.78,2.09,3.63c1.52,1.07,3.64,1.36,5.8,0.8c4.12-1.07,7.19-4.85,6.86-8.43l0,0c-0.14-1.49-0.88-2.78-2.09-3.63
				C41.54,45.13,40.26,44.77,38.88,44.77z"/>
		</g>
		<g>
			<path class="st7" d="M38.88,56.8c-0.1,0-0.19-0.03-0.27-0.07c-0.15-0.09-0.25-0.24-0.26-0.41l-0.95-10.16
				c-0.01-0.14,0.03-0.29,0.12-0.4c0.09-0.11,0.22-0.18,0.37-0.19c3.11-0.27,5.56,1.55,5.82,4.33c0.25,2.7-1.68,5.58-4.6,6.86
				C39.02,56.78,38.95,56.8,38.88,56.8z M38.51,46.62l0.83,8.8c2.12-1.21,3.47-3.39,3.28-5.42C42.43,48,40.74,46.64,38.51,46.62z"/>
		</g>
		<g>
			<path class="st7" d="M36.06,57.41c-2.82,0-4.98-1.78-5.22-4.36c-0.25-2.68,1.59-5.48,4.47-6.8c0.16-0.07,0.34-0.06,0.5,0.02
				c0.15,0.09,0.25,0.24,0.27,0.42l0.95,10.11c0.01,0.15-0.03,0.29-0.13,0.4s-0.23,0.18-0.38,0.19
				C36.37,57.4,36.21,57.41,36.06,57.41z M35.07,47.59c-2.05,1.22-3.35,3.37-3.16,5.35c0.19,1.98,1.79,3.32,3.98,3.38L35.07,47.59z"
				/>
		</g>
	</g>
	<g>
		<g>
			<g>
				<path class="st8" d="M26.2,50.38c-5.71,0.23-5.82,3.13-4.01,7.59C25.62,56.53,27.89,54.02,26.2,50.38z"/>
			</g>
			<g>
				<path class="st9" d="M22.06,58.96c-0.07,0-0.14-0.01-0.21-0.04c-0.14-0.06-0.25-0.18-0.3-0.32c-0.87-2.55-1.51-5.14-0.29-6.89
					c0.85-1.21,2.46-1.82,4.94-1.88c0.21-0.01,0.4,0.11,0.49,0.3c0.72,1.43,0.85,2.85,0.37,4.21c-0.63,1.82-2.33,3.44-4.77,4.57
					C22.21,58.95,22.14,58.96,22.06,58.96z M25.86,50.93c-1.91,0.09-3.13,0.55-3.72,1.41c-0.86,1.23-0.41,3.33,0.24,5.33
					c1.86-0.97,3.18-2.29,3.66-3.68C26.38,53.01,26.32,51.98,25.86,50.93z"/>
			</g>
			<g>
				<path class="st10" d="M26.37,50.89c-0.37,0.17-0.73,0.39-1.07,0.67c-0.34,0.28-0.67,0.6-0.96,0.96c-0.59,0.73-1.09,1.57-1.5,2.5
					c0-0.51,0.08-1.02,0.21-1.52c0.13-0.5,0.32-0.99,0.56-1.46c0.25-0.47,0.55-0.92,0.95-1.31c0.4-0.38,0.89-0.72,1.47-0.86
					c0.29-0.07,0.58,0.1,0.66,0.39c0.07,0.26-0.06,0.52-0.3,0.63L26.37,50.89z"/>
			</g>
		</g>
		<g>
			<g>
				<path class="st8" d="M36.53,34.81c5.05-2.66,6.6-0.22,7.28,4.55C40.12,39.84,36.9,38.81,36.53,34.81z"/>
			</g>
			<g>
				<path class="st9" d="M42.97,40.28c-2.14,0-3.95-0.56-5.19-1.62c-1.1-0.94-1.7-2.23-1.79-3.83c-0.01-0.21,0.1-0.4,0.28-0.5
					c2.17-1.2,3.87-1.48,5.21-0.86c1.93,0.89,2.68,3.46,3.21,6.1c0.03,0.15-0.01,0.31-0.1,0.43c-0.09,0.12-0.23,0.2-0.38,0.22
					C43.78,40.26,43.37,40.28,42.97,40.28z M37.1,35.11c0.14,1.14,0.6,2.05,1.39,2.73c1.11,0.96,2.92,1.43,5.01,1.34
					c-0.45-2.06-1.12-4.1-2.48-4.73C40.08,34.02,38.79,34.23,37.1,35.11z"/>
			</g>
			<g>
				<path class="st10" d="M36.42,34.28c0.57-0.16,1.16-0.12,1.7,0.01c0.54,0.13,1.03,0.37,1.48,0.65c0.45,0.28,0.85,0.61,1.22,0.98
					c0.36,0.37,0.69,0.77,0.94,1.21c-0.82-0.59-1.67-1.07-2.55-1.4c-0.44-0.16-0.88-0.28-1.32-0.35c-0.43-0.07-0.85-0.08-1.26-0.04
					l-0.02,0c-0.3,0.03-0.56-0.19-0.59-0.49C36,34.59,36.17,34.35,36.42,34.28z"/>
			</g>
		</g>
		<g>
			<g>
				<path class="st8" d="M58.98,52.75c-3.91-3.63-5.9-1.8-7.67,2.34C54.52,56.42,57.68,56.27,58.98,52.75z"/>
			</g>
			<g>
				<path class="st9" d="M54.3,56.48c-1.1,0-2.3-0.23-3.55-0.7c-0.13-0.05-0.24-0.15-0.29-0.29c-0.05-0.13-0.05-0.28,0.02-0.41
					c1.12-2.26,2.42-4.39,4.37-4.73c1.36-0.24,2.83,0.43,4.5,2.04c0.14,0.13,0.19,0.34,0.13,0.52c-0.47,1.42-1.33,2.43-2.55,3.02
					C56.15,56.29,55.27,56.48,54.3,56.48z M51.63,55.02c1.87,0.59,3.61,0.6,4.85,0c0.87-0.42,1.52-1.13,1.92-2.13
					c-1.31-1.21-2.42-1.71-3.38-1.54C53.63,51.59,52.53,53.27,51.63,55.02z"/>
			</g>
			<g>
				<path class="st10" d="M58.76,53.2c-0.36-0.13-0.74-0.23-1.14-0.27c-0.41-0.04-0.84-0.05-1.27,0c-0.87,0.08-1.76,0.31-2.64,0.65
					c0.34-0.34,0.73-0.62,1.14-0.86c0.42-0.24,0.86-0.44,1.34-0.59c0.47-0.14,0.97-0.24,1.49-0.23c0.52,0.01,1.06,0.12,1.54,0.4
					c0.24,0.14,0.32,0.45,0.18,0.69c-0.13,0.21-0.39,0.3-0.61,0.21L58.76,53.2z"/>
			</g>
		</g>
		<g>
			<g>
				<path class="st8" d="M14.36,61.91c0.31,0.02,0.6,0.04,0.9,0.08c0.3,0.03,0.6,0.08,0.9,0.13c0.3,0.05,0.6,0.12,0.91,0.21
					c0.31,0.09,0.63,0.19,0.98,0.41l0.04,0.02c0.35,0.22,0.46,0.68,0.25,1.03s-0.68,0.46-1.03,0.25c-0.04-0.02-0.08-0.06-0.11-0.09
					c-0.13-0.12-0.35-0.24-0.58-0.35c-0.23-0.11-0.49-0.2-0.75-0.29c-0.26-0.09-0.53-0.17-0.8-0.24c-0.27-0.07-0.55-0.14-0.81-0.19
					l-0.01,0c-0.27-0.06-0.44-0.32-0.38-0.58C13.9,62.06,14.12,61.9,14.36,61.91z"/>
			</g>
			<g class="st1">
				<path class="st2" d="M14.36,61.91c0.31,0.02,0.6,0.04,0.9,0.08c0.3,0.03,0.6,0.08,0.9,0.13c0.3,0.05,0.6,0.12,0.91,0.21
					c0.31,0.09,0.63,0.19,0.98,0.41l0.04,0.02c0.35,0.22,0.46,0.68,0.25,1.03s-0.68,0.46-1.03,0.25c-0.04-0.02-0.08-0.06-0.11-0.09
					c-0.13-0.12-0.35-0.24-0.58-0.35c-0.23-0.11-0.49-0.2-0.75-0.29c-0.26-0.09-0.53-0.17-0.8-0.24c-0.27-0.07-0.55-0.14-0.81-0.19
					l-0.01,0c-0.27-0.06-0.44-0.32-0.38-0.58C13.9,62.06,14.12,61.9,14.36,61.91z"/>
			</g>
			<g>
				<path class="st9" d="M17.69,64.58c-0.21,0-0.42-0.06-0.62-0.17c-0.06-0.04-0.12-0.08-0.18-0.13c-0.03-0.03-0.15-0.13-0.47-0.27
					c-0.2-0.09-0.43-0.18-0.7-0.27c-0.25-0.08-0.51-0.16-0.77-0.23c-0.27-0.07-0.54-0.14-0.79-0.19c-0.25-0.05-0.46-0.19-0.6-0.4
					c-0.14-0.21-0.18-0.45-0.13-0.69c0.09-0.45,0.5-0.76,0.96-0.73l0,0c0.3,0.02,0.59,0.04,0.92,0.08c0.31,0.03,0.63,0.08,0.92,0.13
					c0.36,0.06,0.67,0.13,0.96,0.22c0.37,0.11,0.7,0.22,1.08,0.46l0.04,0.02c0.55,0.34,0.73,1.07,0.39,1.62
					C18.48,64.38,18.09,64.58,17.69,64.58z M14.34,62.34c-0.03,0-0.05,0.02-0.06,0.05c0,0.02,0,0.04,0.01,0.05
					c0.01,0.01,0.02,0.02,0.04,0.03c0.27,0.06,0.56,0.13,0.85,0.2c0.28,0.07,0.56,0.16,0.83,0.24c0.3,0.1,0.56,0.2,0.79,0.31
					c0.31,0.14,0.54,0.28,0.69,0.42c0.01,0.01,0.03,0.03,0.05,0.04c0.15,0.09,0.35,0.04,0.44-0.11c0.09-0.15,0.05-0.35-0.11-0.44
					l-0.04-0.02c-0.29-0.18-0.56-0.27-0.87-0.36c-0.26-0.07-0.53-0.14-0.86-0.2c-0.28-0.05-0.57-0.09-0.87-0.12
					C14.9,62.38,14.62,62.36,14.34,62.34C14.34,62.34,14.34,62.34,14.34,62.34z"/>
			</g>
			<g>
				<g>
					<path class="st8" d="M15.05,62.5C13.31,56.13,6,61.32,6,61.32S11.74,68.2,15.05,62.5z"/>
				</g>
				<g class="st4">
					<path class="st5" d="M15.01,62.56c0.01-0.02,0.03-0.04,0.04-0.06C13.31,56.13,6,61.32,6,61.32s0.2,0.23,0.53,0.58
						C7.9,61.03,13.2,58.04,15.01,62.56z"/>
				</g>
				<g>
					<path class="st9" d="M11.61,65.19c-3.16,0-6.33-3.43-6.47-3.58c-0.08-0.09-0.12-0.22-0.11-0.34c0.02-0.12,0.08-0.24,0.19-0.31
						c0.18-0.12,4.53-2.95,7.64-1.78c1.28,0.48,2.16,1.56,2.61,3.2c0.03,0.11,0.01,0.23-0.04,0.33c-0.86,1.48-1.99,2.31-3.36,2.45
						C11.91,65.18,11.76,65.19,11.61,65.19z M6.14,61.4c0.94,0.91,3.52,3.15,5.83,2.91c1.04-0.11,1.92-0.74,2.62-1.87
						c-0.38-1.26-1.07-2.08-2.03-2.45C10.38,59.17,7.29,60.74,6.14,61.4z"/>
				</g>
				<g>
					<g>
						<line class="st8" x1="15.05" y1="62.5" x2="10.14" y2="61.86"/>
					</g>
					<g>
						<path class="st10" d="M14.99,62.92c-0.41-0.02-0.82-0.08-1.23-0.15c-0.41-0.07-0.81-0.16-1.22-0.25
							c-0.81-0.19-1.61-0.4-2.41-0.66c0.84-0.06,1.67-0.05,2.5-0.03c0.41,0.01,0.83,0.03,1.24,0.07c0.41,0.04,0.82,0.08,1.23,0.17
							c0.23,0.05,0.38,0.28,0.33,0.51C15.39,62.79,15.2,62.93,14.99,62.92z"/>
					</g>
				</g>
			</g>
			<g>
				<path class="st9" d="M11.46,65.19c0.55-0.49,1.11-0.97,1.67-1.45c0.56-0.48,1.13-0.95,1.73-1.41c0.19-0.15,0.46-0.11,0.61,0.08
					c0.15,0.19,0.11,0.46-0.08,0.61c-0.02,0.02-0.05,0.03-0.07,0.04l0,0c-0.65,0.32-1.3,0.68-1.94,1.04
					C12.74,64.45,12.1,64.81,11.46,65.19z"/>
			</g>
			<g>
				<g>
					<path class="st8" d="M15.07,62.58c0,0-3.71,0.22-4.56,6.65C10.51,69.23,18.09,66.82,15.07,62.58z"/>
				</g>
				<g class="st4">
					<path class="st5" d="M11.58,68.63c0.7-5.27,3.7-5.54,3.8-5.55c-0.09-0.16-0.19-0.33-0.31-0.5c0,0-3.71,0.22-4.56,6.65
						c0,0,1.63-0.52,3.08-1.5C12.56,68.32,11.58,68.63,11.58,68.63z"/>
				</g>
				<g>
					<path class="st9" d="M10.51,69.66c-0.1,0-0.2-0.03-0.28-0.1c-0.11-0.09-0.17-0.24-0.15-0.39c0.89-6.7,4.8-7.01,4.96-7.02
						c0.15-0.01,0.29,0.06,0.38,0.18c0.76,1.07,0.98,2.14,0.63,3.18c-0.89,2.67-5.23,4.07-5.41,4.13
						C10.6,69.65,10.55,69.66,10.51,69.66z M14.87,63.05c-0.74,0.17-3.02,1.04-3.82,5.52c1.2-0.48,3.63-1.65,4.19-3.34
						C15.47,64.53,15.35,63.81,14.87,63.05z"/>
				</g>
				<g>
					<path class="st9" d="M12.97,65.38c0.27-0.52,0.55-1.04,0.84-1.55c0.29-0.51,0.59-1.02,0.93-1.53c0.13-0.2,0.4-0.25,0.6-0.12
						c0.2,0.13,0.25,0.4,0.12,0.6c-0.02,0.03-0.04,0.06-0.07,0.08c-0.42,0.38-0.83,0.8-1.23,1.22
						C13.76,64.51,13.36,64.94,12.97,65.38z"/>
				</g>
			</g>
			<g>
				<g>
					<path class="st8" d="M15.04,62.56c0,0-3.46-1.36-2.28-7.73C12.76,54.83,19.22,59.46,15.04,62.56z"/>
				</g>
				<g class="st4">
					<path class="st5" d="M13.76,55.65c-0.57-0.52-1.01-0.83-1.01-0.83c-1.18,6.37,2.28,7.73,2.28,7.73
						c0.05-0.04,0.1-0.08,0.15-0.11C14.5,61.94,12.71,60.14,13.76,55.65z"/>
				</g>
				<g>
					<path class="st9" d="M15.04,62.99c-0.05,0-0.11-0.01-0.16-0.03c-0.15-0.06-3.78-1.57-2.55-8.21c0.03-0.14,0.13-0.27,0.26-0.32
						c0.14-0.05,0.29-0.04,0.41,0.05c0.16,0.11,3.85,2.79,3.87,5.6c0.01,1.09-0.52,2.04-1.58,2.83
						C15.22,62.96,15.13,62.99,15.04,62.99z M13.06,55.62c-0.62,4.51,1.27,6.04,1.93,6.43c0.7-0.58,1.03-1.22,1.03-1.96
						C16,58.31,14.05,56.45,13.06,55.62z"/>
				</g>
				<g>
					<path class="st9" d="M13.91,59.25c0.24,0.54,0.48,1.07,0.73,1.6c0.25,0.53,0.51,1.05,0.79,1.54c0.12,0.21,0.05,0.47-0.16,0.59
						c-0.21,0.12-0.47,0.05-0.59-0.16c-0.02-0.03-0.03-0.07-0.04-0.1c-0.17-0.59-0.29-1.16-0.41-1.74
						C14.12,60.41,14.01,59.83,13.91,59.25z"/>
				</g>
			</g>
		</g>
	</g>
	<g>
		<path class="st2" d="M8.48,79.97c0.02,0.03,0.03,0.04,0.04,0.05c0.02,0.01,0.05,0.03,0.1,0.04c0.1,0.02,0.25,0.02,0.42,0
			c0.33-0.05,0.7-0.18,1.06-0.33c0.72-0.31,1.43-0.71,2.12-1.13c1.38-0.86,2.72-1.82,4.03-2.83c1.31-1.01,2.58-2.06,3.82-3.14
			c0.31-0.27,0.62-0.55,0.93-0.82c0.31-0.28,0.6-0.56,0.93-0.83c0.16-0.14,0.31-0.28,0.48-0.42l0.49-0.4l0.25-0.2l0.25-0.19
			l0.51-0.38c2.74-1.94,5.79-3.39,8.92-4.5c1.57-0.56,3.16-1.04,4.77-1.44c1.61-0.41,3.24-0.74,4.88-0.97
			c-3.25,0.65-6.43,1.61-9.51,2.8c-1.54,0.6-3.04,1.28-4.5,2.04c-1.46,0.76-2.86,1.63-4.17,2.6l-0.48,0.38l-0.24,0.19l-0.23,0.2
			l-0.47,0.4c-0.15,0.14-0.3,0.28-0.45,0.41c-0.3,0.27-0.6,0.57-0.9,0.85c-0.3,0.29-0.61,0.57-0.91,0.85
			c-1.23,1.13-2.49,2.22-3.78,3.27c-1.3,1.05-2.63,2.06-4.05,2.97c-0.71,0.45-1.44,0.88-2.24,1.24c-0.4,0.17-0.82,0.34-1.31,0.42
			c-0.24,0.04-0.51,0.06-0.82,0c-0.15-0.03-0.32-0.1-0.47-0.2c-0.15-0.1-0.28-0.25-0.37-0.4c-0.15-0.26-0.06-0.59,0.2-0.74
			C8,79.62,8.33,79.7,8.48,79.97L8.48,79.97z"/>
	</g>
	<g>
		<g class="st1">
			
				<ellipse transform="matrix(0.968 -0.2508 0.2508 0.968 -11.4031 19.5675)" class="st2" cx="71.06" cy="54.52" rx="0.86" ry="0.63"/>
		</g>
		<g class="st1">
			
				<ellipse transform="matrix(0.968 -0.2508 0.2508 0.968 -10.9775 18.5012)" class="st2" cx="67.09" cy="52.31" rx="1.4" ry="1.02"/>
		</g>
		<g class="st1">
			
				<ellipse transform="matrix(0.9355 -0.3532 0.3532 0.9355 -12.6171 23.5215)" class="st2" cx="58.13" cy="46.33" rx="1.09" ry="0.86"/>
		</g>
		<g class="st1">
			
				<ellipse transform="matrix(0.9355 -0.3532 0.3532 0.9355 -8.2543 26.5049)" class="st2" cx="68.49" cy="35.87" rx="0.76" ry="0.59"/>
		</g>
		<g class="st1">
			
				<ellipse transform="matrix(0.9355 -0.3532 0.3532 0.9355 -10.9374 27.4929)" class="st2" cx="69.85" cy="43.71" rx="0.86" ry="0.67"/>
		</g>
		<g class="st1">
			<path class="st2" d="M61.69,41.01c0.11,0.29-0.1,0.63-0.47,0.77s-0.75,0.02-0.86-0.27c-0.11-0.29,0.1-0.63,0.47-0.77
				C61.2,40.6,61.58,40.72,61.69,41.01z"/>
		</g>
		<g class="st1">
			
				<ellipse transform="matrix(0.8111 -0.5849 0.5849 0.8111 -20.5801 38.2817)" class="st2" cx="48.98" cy="51" rx="0.78" ry="0.61"/>
		</g>
		<g class="st1">
			
				<ellipse transform="matrix(0.8111 -0.5849 0.5849 0.8111 -15.8913 37.8913)" class="st2" cx="50.72" cy="43.55" rx="0.77" ry="0.61"/>
		</g>
		<g class="st1">
			
				<ellipse transform="matrix(0.8111 -0.5849 0.5849 0.8111 -31.8821 27.7629)" class="st2" cx="27.04" cy="63.24" rx="1.03" ry="0.81"/>
		</g>
		<g class="st1">
			
				<ellipse transform="matrix(0.8111 -0.5849 0.5849 0.8111 -28.5957 27.0249)" class="st2" cx="27.54" cy="57.78" rx="0.87" ry="0.68"/>
		</g>
		<g class="st1">
			
				<ellipse transform="matrix(0.8111 -0.5849 0.5849 0.8111 -36.4121 24.1875)" class="st2" cx="19.24" cy="68.47" rx="0.57" ry="0.45"/>
		</g>
		<g class="st1">
			
				<ellipse transform="matrix(0.8111 -0.5849 0.5849 0.8111 -22.7277 25.2527)" class="st2" cx="27.73" cy="47.81" rx="0.87" ry="0.68"/>
		</g>
		<g class="st1">
			
				<ellipse transform="matrix(0.8111 -0.5849 0.5849 0.8111 -18.1049 28.6586)" class="st2" cx="35.32" cy="42.36" rx="1.13" ry="0.89"/>
		</g>
	</g>
	<g>
		<g>
			<g>
				<g>
					<path class="st11" d="M78.59,56.11c-1.09,6.19,13.04,7.19,13.04,7.19s8.94-20.94-5.49-38.81S52.07,9.33,49.93,13.55
						c-2.14,4.22,2.1,6.15,2.1,6.15S84.48,22.56,78.59,56.11z"/>
				</g>
				<g class="st4">
					<path class="st5" d="M86.14,24.49C71.7,6.62,52.07,9.33,49.93,13.55c-1.91,3.76,1.25,5.7,1.96,6.08
						c-0.86-0.92-1.57-2.44-0.47-4.61c0.47-0.92,1.83-1.77,3.83-2.3c-0.46,0.29-0.72,0.63-0.66,0.94c0.11,0.63,1.45,0.91,2.99,0.64
						c1.54-0.27,2.69-1,2.58-1.63c-0.04-0.22-0.24-0.4-0.55-0.53c7.01-0.17,17.16,2.78,25.47,13.06c13.42,16.61,5.1,36.08,5.1,36.08
						s-9.31-0.66-11.65-4.31c0.29,5.43,13.09,6.34,13.09,6.34S100.57,42.36,86.14,24.49z"/>
				</g>
				<g class="st1">
					<path class="st2" d="M91.62,63.29c0,0,1.22-2.85,2.03-7.35c-1.48-1.4-3.72-2.56-6.08-3.51c-2.08-0.84-3.37-2.93-3.18-5.16
						c0.5-5.77,0.48-13.04-4.53-19.24c-11.28-13.97-26.57-12.07-28.62-8.81c0.44,0.32,0.79,0.48,0.79,0.48s32.45,2.86,26.55,36.41
						C77.5,62.29,91.62,63.29,91.62,63.29z"/>
				</g>
				<g>
					<path class="st2" d="M91.62,63.91c-0.01,0-0.03,0-0.04,0c-0.4-0.03-9.77-0.73-12.74-4.54c-0.79-1.01-1.07-2.14-0.86-3.37
						c1.75-9.97,0.24-18.16-4.5-24.34c-7.67-10.01-21.37-11.34-21.5-11.35c-0.07-0.01-0.14-0.02-0.2-0.05
						c-0.09-0.04-2.11-0.98-2.82-3.01c-0.43-1.23-0.29-2.57,0.43-3.98c0.84-1.66,3.69-2.93,7.43-3.33
						c8.18-0.86,20.31,2.4,29.8,14.16c7.58,9.38,8.69,19.61,8.29,26.53c-0.43,7.49-2.62,12.69-2.72,12.91
						C92.09,63.77,91.87,63.91,91.62,63.91z M78.59,56.11l0.61,0.11c-0.16,0.88,0.05,1.67,0.61,2.39c2.3,2.95,9.53,3.84,11.41,4.03
						c0.52-1.37,2.11-6.02,2.46-12.13c0.38-6.69-0.7-16.57-8.02-25.64C76.47,13.51,64.8,10.34,56.95,11.17
						c-3.73,0.39-5.93,1.62-6.46,2.66c-0.56,1.1-0.68,2.11-0.37,3.01c0.46,1.33,1.75,2.08,2.09,2.26c0.67,0.07,3.92,0.47,8.02,1.93
						c4.18,1.49,10.03,4.41,14.23,9.87c4.96,6.47,6.56,14.98,4.74,25.31L78.59,56.11z"/>
				</g>
			</g>
			<g>
				<path class="st0" d="M91.62,63.29c0,0-2.76,3.12-8.22,1.43s-6.74-5.47-4.81-8.61C80.51,52.96,95.54,56.93,91.62,63.29z"/>
			</g>
			<g class="st1">
				<path class="st2" d="M91.62,63.29c0,0-2.76,3.12-8.22,1.43s-6.74-5.47-4.81-8.61C80.51,52.96,95.54,56.93,91.62,63.29z"/>
			</g>
			<g>
				<path class="st2" d="M86.55,65.85c-0.98,0-2.09-0.15-3.33-0.54c-3.78-1.17-5.21-3.13-5.75-4.56c-0.6-1.59-0.39-3.36,0.6-4.97
					c0.75-1.22,2.6-1.43,4.03-1.39c3.73,0.1,8.72,1.99,10.28,4.87c0.75,1.39,0.67,2.89-0.23,4.36c-0.02,0.03-0.04,0.06-0.06,0.09
					C91.99,63.81,90.13,65.85,86.55,65.85z M81.8,55.62c-1.38,0-2.37,0.3-2.68,0.81c-0.79,1.3-0.97,2.64-0.5,3.89
					c0.63,1.66,2.39,3.02,4.97,3.82c4.73,1.47,7.22-0.87,7.54-1.21c0.64-1.08,0.7-2.08,0.16-3.07c-1.31-2.42-5.83-4.13-9.23-4.22
					C81.97,55.62,81.88,55.62,81.8,55.62z M91.62,63.29L91.62,63.29L91.62,63.29z"/>
			</g>
		</g>
		<g>
			<g>
				<path class="st2" d="M59.71,17.02c-0.13-0.27-0.17-0.58-0.17-0.88c0-0.3,0.06-0.6,0.17-0.89c0.1-0.29,0.27-0.56,0.49-0.77
					c0.22-0.22,0.5-0.37,0.8-0.43c-0.14,0.28-0.3,0.49-0.42,0.73c-0.13,0.23-0.24,0.45-0.35,0.69c-0.1,0.24-0.19,0.48-0.28,0.74
					C59.87,16.46,59.79,16.73,59.71,17.02z"/>
			</g>
			<g>
				<path class="st2" d="M61.34,18.1c-0.09-0.4-0.07-0.82,0-1.22c0.07-0.41,0.21-0.8,0.41-1.17c0.19-0.37,0.47-0.71,0.79-0.97
					c0.08-0.06,0.17-0.13,0.25-0.19c0.09-0.05,0.18-0.1,0.28-0.15c0.09-0.05,0.19-0.08,0.29-0.11c0.1-0.03,0.2-0.06,0.3-0.08
					c-0.28,0.32-0.56,0.57-0.78,0.87c-0.23,0.29-0.45,0.58-0.63,0.9c-0.19,0.32-0.35,0.65-0.5,1.01
					C61.6,17.35,61.47,17.71,61.34,18.1z"/>
			</g>
		</g>
		<g>
			<g>
				<path class="st2" d="M84.44,44.43c0.34-0.27,0.75-0.46,1.16-0.59c0.42-0.13,0.86-0.19,1.31-0.18c0.45,0,0.9,0.09,1.31,0.27
					c0.1,0.05,0.2,0.09,0.3,0.15c0.09,0.06,0.19,0.12,0.28,0.19c0.09,0.06,0.17,0.14,0.25,0.22c0.08,0.08,0.15,0.16,0.22,0.24
					c-0.43-0.11-0.81-0.26-1.2-0.33c-0.39-0.08-0.78-0.14-1.18-0.16c-0.4-0.02-0.8-0.01-1.21,0.03
					C85.27,44.29,84.86,44.35,84.44,44.43z"/>
			</g>
			<g>
				<path class="st2" d="M83.75,47.28c0.53-0.28,1.12-0.43,1.72-0.52c0.6-0.09,1.22-0.08,1.82,0.01c0.15,0.03,0.3,0.04,0.45,0.09
					c0.15,0.04,0.3,0.08,0.44,0.13c0.15,0.05,0.29,0.11,0.43,0.17l0.21,0.09l0.2,0.11c0.13,0.08,0.27,0.15,0.39,0.24
					c0.12,0.09,0.24,0.19,0.36,0.29c0.06,0.05,0.12,0.1,0.17,0.15l0.15,0.17c0.1,0.12,0.2,0.23,0.29,0.35
					c-0.54-0.28-1.03-0.58-1.57-0.76l-0.2-0.08l-0.2-0.06c-0.14-0.04-0.27-0.09-0.4-0.13c-0.14-0.03-0.27-0.07-0.41-0.1
					c-0.14-0.04-0.28-0.05-0.41-0.08c-0.56-0.1-1.12-0.15-1.7-0.15C84.93,47.18,84.35,47.21,83.75,47.28z"/>
			</g>
		</g>
	</g>
	<g>
		<g>
			<path class="st8" d="M66.12,42.33c4.37-2.31,5.72-0.19,6.3,3.94C69.23,46.69,66.44,45.79,66.12,42.33z"/>
		</g>
		<g>
			<path class="st9" d="M71.7,47.07c-1.85,0-3.42-0.48-4.49-1.4c-0.95-0.81-1.47-1.93-1.55-3.31c-0.01-0.18,0.08-0.35,0.24-0.44
				c1.88-1.04,3.35-1.28,4.51-0.74c1.67,0.77,2.32,3,2.78,5.28c0.03,0.13,0,0.26-0.08,0.37c-0.08,0.11-0.2,0.17-0.33,0.19
				C72.4,47.05,72.04,47.07,71.7,47.07z M66.61,42.59c0.12,0.99,0.52,1.78,1.2,2.37c0.97,0.83,2.53,1.24,4.34,1.16
				c-0.39-1.78-0.97-3.55-2.14-4.1C69.19,41.64,68.07,41.83,66.61,42.59z"/>
		</g>
		<g>
			<path class="st10" d="M66.02,41.87c0.49-0.14,1.01-0.11,1.47,0.01c0.47,0.11,0.89,0.32,1.28,0.57c0.39,0.24,0.74,0.53,1.06,0.85
				c0.31,0.32,0.6,0.67,0.82,1.05c-0.71-0.51-1.45-0.93-2.21-1.22c-0.38-0.14-0.77-0.24-1.14-0.3c-0.38-0.06-0.74-0.07-1.09-0.03
				l-0.02,0c-0.26,0.02-0.49-0.17-0.51-0.42C65.66,42.13,65.81,41.93,66.02,41.87z"/>
		</g>
	</g>
</g>
</svg>
