<?xml version="1.0" encoding="utf-8"?>
<!-- Generator: Adobe Illustrator 25.1.0, SVG Export Plug-In . SVG Version: 6.00 Build 0)  -->
<svg version="1.1" id="Layer_1" xmlns="http://www.w3.org/2000/svg" xmlns:xlink="http://www.w3.org/1999/xlink" x="0px" y="0px"
	 viewBox="0 0 600 500" style="enable-background:new 0 0 600 500;" xml:space="preserve">
<style type="text/css">
	.st0{fill:url(#SVGID_1_);}
	.st1{fill:url(#SVGID_2_);}
	.st2{fill:url(#SVGID_3_);}
	.st3{fill:url(#SVGID_4_);}
	.st4{fill:url(#SVGID_5_);}
	.st5{fill:url(#SVGID_6_);}
	.st6{fill:url(#SVGID_7_);}
</style>
<linearGradient id="SVGID_1_" gradientUnits="userSpaceOnUse" x1="186.8206" y1="292.3501" x2="527.5508" y2="292.3501">
	<stop  offset="0" style="stop-color:#E7272D"/>
	<stop  offset="1" style="stop-color:#F6A235"/>
</linearGradient>
<path class="st0" d="M281.4,152.57c27.84,1.14,455.37,103.52,115.59,247.84S215.97,149.9,281.4,152.57z"/>
<linearGradient id="SVGID_2_" gradientUnits="userSpaceOnUse" x1="-1.6515" y1="52.6837" x2="235.0378" y2="289.3729">
	<stop  offset="0" style="stop-color:#E7272D"/>
	<stop  offset="1" style="stop-color:#F6A235"/>
</linearGradient>
<path class="st1" d="M157.84,298.5c0,0-156.31-4.33-152.84-51.14c2.27-30.68,39.77-21.69,51.7-43.85
	c5.55-10.31-45.82-18.87-44.32-52.74c1.14-25.57,15.91-19.32,21.59-67.05c1.57-13.17-15.36-48.31-5.13-61.38
	s45.47-13.62,75.58,17.63c42,43.58,88.64,62.5,115.91,64.77s65.34,7.95,55.11,76.7c-10.23,68.75,9.66,78.98-40.91,91.48
	S157.84,298.5,157.84,298.5z"/>
<linearGradient id="SVGID_3_" gradientUnits="userSpaceOnUse" x1="64.5265" y1="455.0651" x2="224.1587" y2="178.5739">
	<stop  offset="0" style="stop-color:#E7272D"/>
	<stop  offset="1" style="stop-color:#F6A235"/>
</linearGradient>
<path class="st2" d="M284.85,217.82c0,0-118.21-97.73-210.8-53.98C34.2,182.68,64.97,271.8,64.97,271.8s21.77,33.52,5.11,80.11
	c-11.09,31.03-60.8,107.95,39.2,115.91c100,7.95,159.66-80.68,160.23-82.39c0.57-1.7,14.2-112.5,15.34-123.3
	C285.99,251.34,284.85,217.82,284.85,217.82z"/>
<linearGradient id="SVGID_4_" gradientUnits="userSpaceOnUse" x1="363.6978" y1="46.7199" x2="512.2211" y2="195.2432">
	<stop  offset="0" style="stop-color:#E7272D"/>
	<stop  offset="1" style="stop-color:#F6A235"/>
</linearGradient>
<path class="st3" d="M338.52,75.91c46.36-27.14,192.61-60.23,221.59-23.3c28.98,36.93,23.52,86.21-23.16,113.11
	c-50.73,29.24-88.5,65.93-124,62.36c-43.72-4.39-102.22-35.15-105.68-49.34C291.74,115.18,315.23,89.55,338.52,75.91z"/>
<linearGradient id="SVGID_5_" gradientUnits="userSpaceOnUse" x1="400.1409" y1="292.1001" x2="289.2324" y2="484.1994">
	<stop  offset="0" style="stop-color:#E7272D"/>
	<stop  offset="1" style="stop-color:#F6A235"/>
</linearGradient>
<path class="st4" d="M181.7,421.8c73.19,49.25,294.89,69.32,352.84,3.98s-96.02-98.86-143.18-94.32
	c-61.25,5.9-84.09,27.27-156.82-11.93C164.02,281.5,120.91,380.89,181.7,421.8z"/>
<linearGradient id="SVGID_6_" gradientUnits="userSpaceOnUse" x1="245.801" y1="4.9729" x2="341.4106" y2="170.5738">
	<stop  offset="0" style="stop-color:#E7272D"/>
	<stop  offset="1" style="stop-color:#F6A235"/>
</linearGradient>
<path class="st5" d="M241.36,64.41c22.49,4.32,47.73-2.27,89.77-18.18s79.55,1.7,86.36,26.14S362.95,161,333.98,174.64
	c-28.98,13.64-93.75,20.45-113.64-3.98S140.23,75.77,155,58.73S202.29,56.91,241.36,64.41z"/>
<linearGradient id="SVGID_7_" gradientUnits="userSpaceOnUse" x1="263.2365" y1="182.5948" x2="363.9" y2="356.949" gradientTransform="matrix(0.2517 -0.9678 0.9678 0.2517 -44.4953 501.8509)">
	<stop  offset="0" style="stop-color:#E7272D"/>
	<stop  offset="1" style="stop-color:#F6A235"/>
</linearGradient>
<path class="st6" d="M333.62,402.3c35.74,0.37,45.89-117.89,49.61-158.54c3.31-36.18-11.63-126.3-65.44-126.3
	c-50.64-3.92-81.83,42.05-76.36,92.76s-49.44,75.77-30.45,127.2C221.62,366.23,302.9,401.98,333.62,402.3z"/>
</svg>
