<?xml version="1.0" encoding="utf-8"?>
<!-- Generator: Adobe Illustrator 25.1.0, SVG Export Plug-In . SVG Version: 6.00 Build 0)  -->
<svg version="1.1" id="Layer_1" xmlns="http://www.w3.org/2000/svg" xmlns:xlink="http://www.w3.org/1999/xlink" x="0px" y="0px"
	 viewBox="0 0 400 267" style="enable-background:new 0 0 400 267;" xml:space="preserve">
<style type="text/css">
	.st0{fill:#DFF9F8;}
	.st1{fill:#41A9BD;}
	.st2{fill:#FFA68D;}
	.st3{fill:#F48C76;}
	.st4{fill:#0097F6;}
	.st5{fill:#0085DB;}
	.st6{fill:#00ACFF;}
	.st7{fill:#47284F;}
	.st8{fill:#FFFFFF;}
	.st9{fill:#BB4063;}
	.st10{fill:#FF406A;}
	.st11{fill:#435277;}
	.st12{fill:#C3D2D7;}
	.st13{fill:#95A4B1;}
	.st14{fill:#FFC8C2;}
	.st15{fill:#FF6E92;}
	.st16{fill:#3E4E6C;}
	.st17{fill:#FFC9AC;}
	.st18{fill:#3FD3CF;}
	.st19{opacity:0.3;fill:#47284F;}
	.st20{fill:#00C5FF;}
	.st21{fill:url(#SVGID_1_);}
	.st22{fill:url(#SVGID_2_);}
	.st23{fill:url(#SVGID_3_);}
	.st24{fill:url(#SVGID_4_);}
	.st25{fill:url(#SVGID_5_);}
	.st26{fill:url(#SVGID_6_);}
	.st27{fill:url(#SVGID_7_);}
	.st28{fill:url(#SVGID_8_);}
</style>
<g>
	<g>
		<path class="st0" d="M398.93,222.87H3.68c-5.57-6.96,0.54-19.54,7.74-24.79c7.2-5.25,16.28-8.01,22.22-14.65
			c9.31-10.4,7.78-26.16,6.91-40.1s1.05-30.66,13.39-37.19c11.38-6.02,25.72,0.03,38.06-3.63c12.2-3.61,19.55-15.56,27.02-25.86
			c24.95-34.39,63.25-58.83,104.95-66.97c17.96-3.5,37.12-3.97,54,3.09c16.88,7.06,30.9,22.87,31.88,41.14
			c0.69,12.92-4.9,25.24-7.73,37.87s-1.97,27.9,8.32,35.75c8.33,6.36,19.8,5.65,30.19,6.98c10.39,1.33,22.32,7.35,22.62,17.83
			c0.33,11.36-13.6,20.5-10.75,31.5c1.74,6.72,9.14,10.31,15.99,11.51c6.84,1.21,14.11,1,20.33,4.1
			C395.04,202.56,402.89,217.16,398.93,222.87z"/>
	</g>
	<g>
		<g>
			<ellipse class="st1" cx="200.11" cy="256.4" rx="146.57" ry="4.93"/>
			<g>
				<g>
					<g>
						<g>
							<path class="st2" d="M131.43,99.64h-9.3c-1.73,0-3.13,1.4-3.13,3.13v5.81c0,1.73,1.4,3.13,3.13,3.13h7.53v-2.31l0,0
								c2.27,0,4.44-0.9,6.05-2.51l1.13-1.13L131.43,99.64z"/>
							<polygon class="st2" points="131.43,99.64 136.84,105.78 160.06,100.38 156.85,91.78 							"/>
							<polygon class="st3" points="156.85,91.78 155.72,92.14 155.35,101.47 160.06,100.38 							"/>
							<path class="st4" d="M201.31,58.56L201.31,58.56c-3.06-2.4-7.47-1.97-10.02,0.97l-24.09,27.94l-4.35,1.47l4.05,10.82
								l2.28-0.49c3.61-0.78,6.91-2.63,9.46-5.31l23.45-24.64C205.06,66.2,204.7,61.21,201.31,58.56z"/>
							<path class="st5" d="M167.03,100.1l-0.13-0.34l-4.05-10.82l-0.4-1.07c-0.23-0.61-0.91-0.92-1.53-0.69l-3.98,1.49
								c-0.61,0.23-0.92,0.91-0.69,1.53l0.32,0.87l3.78,10.12l0.47,1.25c0.23,0.61,0.91,0.92,1.53,0.69l3.98-1.49
								C166.95,101.4,167.26,100.72,167.03,100.1z"/>
							<path class="st6" d="M192.82,60.7c2.24-2.6,5.98-3.3,9.01-1.69c-0.16-0.16-0.33-0.31-0.52-0.45h0
								c-3.06-2.4-7.47-1.97-10.02,0.97l-24.09,27.94l-4.35,1.47l0.65,1.74l4.89-1.65L192.82,60.7z"/>
						</g>
						<g>
							<path class="st7" d="M192.93,116.7l-50.21,13.36c-8.68,2.31-12.73,12.29-8.11,20l29.27,48.8l16.3-7.23l-23.42-44.53
								l47.69-9.97c9.23-1.93,14.66-11.52,11.57-20.43l0,0H192.93z"/>
							<g>
								<path class="st2" d="M178.07,194.96l-1.22-1.85l-9.26,4.11l2.18,3.97l10.32-2.9C179.45,197.15,178.78,196.04,178.07,194.96z
									"/>
								<path class="st8" d="M175.52,202.95l-0.86,2.2l1.15-0.81c0.46-0.32,1-0.49,1.56-0.49h5.41c-0.79-1.9-1.68-3.76-2.69-5.56
									l-10.32,2.9l0.62,1.13h4.7C175.42,202.32,175.64,202.65,175.52,202.95z"/>
								<path class="st7" d="M163.66,212.4h21.88l-0.4-1.55c-0.62-2.4-1.41-4.74-2.36-7.02h-5.41c-0.56,0-1.1,0.17-1.56,0.49
									l-1.15,0.81l0.86-2.2c0.12-0.3-0.1-0.63-0.43-0.63h-4.7l-3.48,3.27c-1.57,1.48-3.65,2.3-5.81,2.3h-2.37
									c-2.32,0-4.34,1.29-5.38,3.2l4.51,0.8C159.77,212.23,161.71,212.4,163.66,212.4z"/>
								<path class="st8" d="M163.66,212.4c-1.94,0-3.88-0.17-5.8-0.51l-4.51-0.8c-0.44,0.81-0.71,1.73-0.75,2.72l6.89,0.62
									c1.09,0.1,2.18,0.15,3.28,0.15h23.32l-0.56-2.17H163.66z"/>
								<polygon class="st7" points="176.85,193.11 167.59,197.21 168.59,199.03 178.67,195.89 								"/>
							</g>
						</g>
					</g>
					<g>
						<g>
							<path class="st9" d="M115.47,112.21h-2.37l-6.1,21.58c-4.78,16.89-2.84,34.96,5.37,50.44l2.97,1.12L115.47,112.21z"/>
							<path class="st10" d="M106.99,133.79l6.1-21.58h-2.22l-12.52,46.48c-1.13,4.19-4.92,7.09-9.26,7.09
								c-0.33,0-0.59,0.27-0.59,0.59v8.87l23.86,8.99C104.16,168.75,102.22,150.68,106.99,133.79z"/>
						</g>
						<g>
							<circle class="st7" cx="86.87" cy="221.91" r="33.33"/>
							<circle class="st11" cx="86.87" cy="221.91" r="24"/>
							<circle class="st12" cx="86.87" cy="221.91" r="19.6"/>
							<path class="st13" d="M86.87,202.32c-3.7,0-7.16,1.03-10.11,2.81c1.36-0.34,2.79-0.53,4.26-0.53
								c9.56,0,17.32,7.75,17.32,17.32c0,9.56-7.75,17.32-17.32,17.32c-1.47,0-2.9-0.18-4.26-0.53c2.95,1.78,6.41,2.81,10.11,2.81
								c10.82,0,19.6-8.77,19.6-19.6C106.47,211.09,97.7,202.32,86.87,202.32z"/>
							<circle class="st13" cx="86.87" cy="221.91" r="8.64"/>
							
								<ellipse transform="matrix(0.7071 -0.7071 0.7071 0.7071 -131.472 126.4251)" class="st9" cx="86.87" cy="221.91" rx="5.85" ry="5.85"/>
						</g>
						<g>
							<circle class="st7" cx="258.09" cy="221.91" r="33.33"/>
							<circle class="st11" cx="258.09" cy="221.91" r="24"/>
							<circle class="st12" cx="258.09" cy="221.91" r="19.6"/>
							<path class="st13" d="M258.09,202.32c-3.7,0-7.16,1.03-10.11,2.81c1.36-0.34,2.79-0.53,4.26-0.53
								c9.56,0,17.32,7.75,17.32,17.32c0,9.56-7.75,17.32-17.32,17.32c-1.47,0-2.9-0.18-4.26-0.53c2.95,1.78,6.41,2.81,10.11,2.81
								c10.82,0,19.6-8.77,19.6-19.6C277.69,211.09,268.92,202.32,258.09,202.32z"/>
							<circle class="st13" cx="258.09" cy="221.91" r="8.64"/>
							
								<ellipse transform="matrix(0.7071 -0.7071 0.7071 0.7071 -81.3228 247.4961)" class="st9" cx="258.09" cy="221.91" rx="5.85" ry="5.85"/>
						</g>
						<g>
							<g>
								<path class="st8" d="M88.48,177.77c17.17,0.54,31.85,12.56,36.42,29.12l0.74,2.69l0.81,0.4l-1.55-5.61
									c-4.57-16.56-19.25-28.58-36.42-29.12c-0.44-0.01-0.89-0.02-1.33-0.02c-7.39,0-14.48,1.93-20.71,5.53l1.13,1.89
									c5.95-3.19,12.63-4.9,19.58-4.9C87.59,177.74,88.04,177.75,88.48,177.77z"/>
								<path class="st14" d="M91.61,192.85l34.03,16.72l-0.74-2.69c-4.57-16.56-19.25-28.58-36.42-29.12
									c-0.44-0.01-0.89-0.02-1.33-0.02c-6.95,0-13.63,1.7-19.58,4.9l6.11,10.21H91.61z"/>
							</g>
							<path class="st10" d="M128.06,212.49h-15.9c-7.15,0-14.01-2.84-19.06-7.9l0,0c-5.06-5.06-11.91-7.9-19.06-7.9H55.17
								l5.97-5.97c6.9-6.9,16.25-10.77,26.01-10.77h0c12.57,0,24.26,6.41,31.02,17.01L128.06,212.49z"/>
						</g>
						<path class="st10" d="M115.47,112.21l-6.1,21.58c-4.89,17.3-2.74,35.84,5.97,51.57l3.05,5.5
							c8.62,15.56,25.01,25.21,42.8,25.21h150.14l-5.38-19.52c-5.3-19.26-17.69-35.8-34.68-46.31l-9.72-6.02h-83.52v3.65
							c0,2.42,1.55,4.58,3.84,5.35l0,0c8.94,3.01,15.35,10.88,16.5,20.24l0,0c1.79,14.6-9.61,27.48-24.32,27.48h-12.21
							c-11.71,0-22.6-5.99-28.88-15.87l-5.66-8.92c-6.24-9.83-8.38-21.72-5.95-33.12l6.58-30.82H115.47z"/>
						<path class="st7" d="M261.54,144.21h-90.27v-10.72h71.99c5.01,0,9.8,2.02,13.3,5.6L261.54,144.21z"/>
						<g>
							<path class="st14" d="M209.06,217.54h-40.53c-18.32,0-35.21-9.95-44.09-25.98l-3.05-5.5c-8.97-16.18-11.13-34.89-6.1-52.69
								c1.62-5.73,0.87-11.98-2.06-17.16c-0.4-0.71-0.15-1.62,0.56-2.02c0.71-0.4,1.62-0.15,2.02,0.56
								c3.32,5.86,4.17,12.94,2.33,19.43c-4.82,17.04-2.74,34.96,5.84,50.44l3.05,5.5c8.36,15.08,24.26,24.45,41.5,24.45h40.53
								c0.82,0,1.48,0.66,1.48,1.48C210.54,216.88,209.87,217.54,209.06,217.54z"/>
						</g>
						<path class="st9" d="M210.52,210.26h92.87l-1.42,1.42c-2.27,2.27-5.35,3.55-8.56,3.55h-73.1
							C216.44,215.23,212.81,213.38,210.52,210.26L210.52,210.26z"/>
						<g>
							<circle class="st13" cx="251.08" cy="205.43" r="20.09"/>
							<g>
								<path class="st11" d="M251.08,220.88c-8.52,0-15.45-6.93-15.45-15.45s6.93-15.45,15.45-15.45c8.52,0,15.45,6.93,15.45,15.45
									S259.6,220.88,251.08,220.88z M251.08,191.63c-7.61,0-13.81,6.19-13.81,13.81c0,7.61,6.19,13.81,13.81,13.81
									s13.81-6.19,13.81-13.81C264.89,197.82,258.69,191.63,251.08,191.63z"/>
							</g>
							<g>
								<g>
									<path class="st11" d="M261.11,206.25h-20.06c-0.45,0-0.82-0.37-0.82-0.82s0.37-0.82,0.82-0.82h20.06
										c0.45,0,0.82,0.37,0.82,0.82S261.57,206.25,261.11,206.25z"/>
								</g>
								<g>
									<path class="st11" d="M259.39,202.97h-16.61c-0.45,0-0.82-0.37-0.82-0.82s0.37-0.82,0.82-0.82h16.61
										c0.45,0,0.82,0.37,0.82,0.82S259.84,202.97,259.39,202.97z"/>
								</g>
								<g>
									<path class="st11" d="M257.07,199.68H245.1c-0.45,0-0.82-0.37-0.82-0.82c0-0.45,0.37-0.82,0.82-0.82h11.97
										c0.45,0,0.82,0.37,0.82,0.82C257.89,199.31,257.52,199.68,257.07,199.68z"/>
								</g>
								<g>
									<path class="st11" d="M254.31,196.39h-6.45c-0.45,0-0.82-0.37-0.82-0.82c0-0.45,0.37-0.82,0.82-0.82h6.45
										c0.45,0,0.82,0.37,0.82,0.82C255.13,196.02,254.76,196.39,254.31,196.39z"/>
								</g>
								<g>
									<path class="st11" d="M259.39,209.54h-16.61c-0.45,0-0.82-0.37-0.82-0.82c0-0.45,0.37-0.82,0.82-0.82h16.61
										c0.45,0,0.82,0.37,0.82,0.82C260.21,209.17,259.84,209.54,259.39,209.54z"/>
								</g>
								<g>
									<path class="st11" d="M257.07,212.83H245.1c-0.45,0-0.82-0.37-0.82-0.82c0-0.45,0.37-0.82,0.82-0.82h11.97
										c0.45,0,0.82,0.37,0.82,0.82C257.89,212.46,257.52,212.83,257.07,212.83z"/>
								</g>
								<g>
									<path class="st11" d="M254.31,216.11h-6.45c-0.45,0-0.82-0.37-0.82-0.82c0-0.45,0.37-0.82,0.82-0.82h6.45
										c0.45,0,0.82,0.37,0.82,0.82C255.13,215.75,254.76,216.11,254.31,216.11z"/>
								</g>
							</g>
						</g>
						<g>
							<path class="st15" d="M272.76,161.93L272.76,161.93c-9.56-5.81-20.53-8.88-31.71-8.88h-3.75c-19.05,0-35.2,15.58-35.19,34.63
								c0.01,8.63,3.18,16.52,8.41,22.58h26.19h26.19h40.48l-3.56-12.67C295.65,182.7,285.98,169.96,272.76,161.93z"/>
							<path class="st10" d="M267.4,174.86L267.4,174.86c-7-4.25-15.03-6.5-23.22-6.5h-2.75c-13.95,0-25.78,11.41-25.77,25.36
								c0,6.32,2.33,12.1,6.16,16.53h19.18h19.18h29.64l-2.61-9.28C284.17,190.08,277.08,180.75,267.4,174.86z"/>
						</g>
						<g>
							<g>
								<path class="st11" d="M267.83,205.14h-31.26c-0.49,0-0.89-0.4-0.89-0.89s0.4-0.89,0.89-0.89h31.26
									c0.49,0,0.89,0.4,0.89,0.89S268.32,205.14,267.83,205.14z"/>
							</g>
							<g>
								<path class="st11" d="M266.87,201.62H235.6c-0.49,0-0.89-0.4-0.89-0.89c0-0.49,0.4-0.89,0.89-0.89h31.26
									c0.49,0,0.89,0.4,0.89,0.89C267.75,201.22,267.36,201.62,266.87,201.62z"/>
							</g>
							<g>
								<path class="st11" d="M265.9,198.1h-31.26c-0.49,0-0.89-0.4-0.89-0.89c0-0.49,0.4-0.89,0.89-0.89h31.26
									c0.49,0,0.89,0.4,0.89,0.89C266.79,197.7,266.39,198.1,265.9,198.1z"/>
							</g>
							<g>
								<path class="st11" d="M264.94,194.58h-31.26c-0.49,0-0.89-0.4-0.89-0.89s0.4-0.89,0.89-0.89h31.26
									c0.49,0,0.89,0.4,0.89,0.89S265.43,194.58,264.94,194.58z"/>
							</g>
							<g>
								<path class="st11" d="M263.98,191.06h-31.26c-0.49,0-0.89-0.4-0.89-0.89c0-0.49,0.4-0.89,0.89-0.89h31.26
									c0.49,0,0.89,0.4,0.89,0.89C264.87,190.67,264.47,191.06,263.98,191.06z"/>
							</g>
						</g>
						<path class="st9" d="M178.02,144.21h83.52l0,0c-1.85,1.85-4.36,2.89-6.97,2.89h-68.82
							C182.91,147.09,180.16,146.07,178.02,144.21L178.02,144.21z"/>
						<path class="st10" d="M127.91,112.21h-17.04h-7.85V96.26h5.4c4.64,0,9.22,1.02,13.42,2.98l4,1.87c2.57,1.2,3.91,4.06,3.19,6.8
							L127.91,112.21z"/>
						<g>
							<rect x="100.4" y="96.26" class="st14" width="2.62" height="15.95"/>
							<rect x="99.07" y="96.26" class="st8" width="1.33" height="15.95"/>
						</g>
						<g>
							<g>
								<path class="st12" d="M300.88,141.92c0.35-0.35,0.35-0.91,0-1.26c-0.35-0.35-0.91-0.35-1.26,0l-7.44,7.44h2.51
									L300.88,141.92z"/>
								<path class="st8" d="M292.18,148.11l-12.06,12.06c-0.35,0.35-0.35,0.91,0,1.26c0.17,0.17,0.4,0.26,0.63,0.26
									c0.23,0,0.45-0.09,0.63-0.26l13.31-13.31H292.18z"/>
							</g>
							<g>
								<path class="st8" d="M255.77,151.49h-50.1c-0.82,0-1.48-0.66-1.48-1.48c0-0.82,0.66-1.48,1.48-1.48h50.1
									c3.58,0,6.94-1.39,9.47-3.92c3.09-3.09,7.2-4.79,11.57-4.79h48.73c0.82,0,1.48,0.66,1.48,1.48s-0.66,1.48-1.48,1.48h-48.73
									c-3.58,0-6.94,1.39-9.47,3.92C264.25,149.79,260.14,151.49,255.77,151.49z"/>
							</g>
						</g>
					</g>
					<polygon class="st9" points="115.47,112.21 127.91,112.21 127.62,113.55 115.09,113.55 					"/>
					<g>
						<g>
							<path class="st16" d="M192.93,116.7l-41.87,12.51c-9.26,2.77-13.44,13.52-8.46,21.81l28.69,47.83l16.3-7.23l-23.42-44.53
								l47.69-9.97c9.23-1.93,14.66-11.52,11.57-20.43l0,0H192.93z"/>
							<g>
								<path class="st17" d="M185.47,194.96l-1.22-1.85l-9.26,4.11l2.18,3.97l10.32-2.9C186.85,197.15,186.18,196.04,185.47,194.96
									z"/>
								<path class="st8" d="M182.92,202.95l-0.86,2.2l1.15-0.81c0.46-0.32,1-0.49,1.56-0.49h5.41c-0.79-1.9-1.68-3.76-2.69-5.56
									l-10.32,2.9l0.62,1.13h4.7C182.82,202.32,183.04,202.65,182.92,202.95z"/>
								<path class="st7" d="M171.05,212.4h21.88l-0.4-1.55c-0.62-2.4-1.41-4.74-2.36-7.02h-5.41c-0.56,0-1.1,0.17-1.56,0.49
									l-1.15,0.81l0.86-2.2c0.12-0.3-0.1-0.63-0.43-0.63h-4.7l-3.48,3.27c-1.57,1.48-3.65,2.3-5.81,2.3h-2.37
									c-2.32,0-4.34,1.29-5.38,3.2l4.51,0.8C167.17,212.23,169.11,212.4,171.05,212.4z"/>
								<path class="st8" d="M171.05,212.4c-1.94,0-3.88-0.17-5.8-0.51l-4.51-0.8c-0.44,0.81-0.71,1.73-0.75,2.72l6.89,0.62
									c1.09,0.1,2.18,0.15,3.28,0.15h23.32l-0.56-2.17H171.05z"/>
								<polygon class="st7" points="184.24,193.11 174.98,197.21 175.98,199.03 186.07,195.89 								"/>
							</g>
						</g>
						<g>
							<path class="st17" d="M183.64,42.62l-1.27-7.19c-0.42-2.41-2.52-4.16-4.96-4.16h-7.21l0.64,3.41
								c0.47,2.47,0.42,5.01-0.13,7.47l-0.32,1.4c-0.13,0.59,0.32,1.15,0.92,1.15h1.46c1.86,6.74,10.06,9.61,15.75,5.24l8.95-6.87
								l-4.75,3.32C189.23,48.83,184.38,46.82,183.64,42.62z"/>
							<path class="st2" d="M169.73,28.8l0.47,2.46l0,0h7.21c2.44,0,4.54,1.76,4.96,4.16l1.27,7.19c0.74,4.2,5.59,6.21,9.08,3.77
								l4.75-3.32l0,0l0,0V28.8H169.73z"/>
							<g>
								<polygon class="st7" points="197.47,43.07 188.52,49.94 189.71,53.36 197.47,43.07 								"/>
								<polygon class="st17" points="203.73,52.56 197.47,43.07 189.71,53.36 191.74,59.18 								"/>
							</g>
							<path class="st7" d="M175.58,36.94c0.14,0.82-0.11,1.55-0.56,1.62c-0.44,0.07-0.91-0.53-1.05-1.36
								c-0.14-0.82,0.11-1.55,0.56-1.62C174.97,35.51,175.44,36.12,175.58,36.94z"/>
							<g>
								<path class="st7" d="M173.46,34.04c0.74-0.42,1.58-0.36,2.28,0.1c0.7,0.46,1.34-0.66,0.65-1.12
									c-1.08-0.72-2.46-0.74-3.59-0.1C172.08,33.34,172.73,34.45,173.46,34.04L173.46,34.04z"/>
							</g>
							<g>
								<g>
									<path class="st8" d="M175.21,41.97l1.45,0.5c2.12,0.73,4.41,0.8,6.56,0.2l3.61-1.02l-0.85-1.69l-2.76,0.77
										c-2.16,0.6-4.45,0.53-6.56-0.2l-1.45-0.5c-1.28-0.44-2.59-0.78-3.92-1.01l-0.52-0.09l-0.47,1.88l0.99,0.15
										C172.62,41.19,173.93,41.53,175.21,41.97z"/>
									<path class="st18" d="M186.83,41.65l-3.61,1.02c-2.16,0.6-4.45,0.53-6.56-0.2l-1.45-0.5c-1.28-0.44-2.59-0.78-3.92-1.01
										l-0.99-0.15l-0.16,0.62c-0.27,1.07-0.21,2.21,0.17,3.25l0.81,2.23c1.42,3.92,5.04,6.61,9.2,6.84h0
										c2.59,0.14,5.14-0.69,7.15-2.33l3.01-2.46L186.83,41.65z"/>
								</g>
								<path class="st19" d="M183.3,40.7l0.34,1.92c0.54,3.07,3.28,4.96,6.08,4.8l-3.74-7.47L183.3,40.7z"/>
							</g>
							<g>
								<path class="st16" d="M188.52,44.65l-2.73,7.79c-0.09,0.26,0.12,0.52,0.39,0.49l0,0c2.04-0.24,3.85-1.44,4.88-3.22
									l3.47-6.01L188.52,44.65z"/>
								<g>
									<path class="st10" d="M185.85,32.75l1.51,8.53c0.26,1.46,1.77,2.32,3.16,1.81l14.84-5.49V26.98
										c0-10.91-8.85-19.76-19.76-19.76l0,0c-10.71,0-19.43,8.53-19.74,19.16h12.41C182,26.38,185.2,29.06,185.85,32.75z"/>
									<g>
										<g>
											<path class="st8" d="M197.86,23.26c-0.96,0-1.89-0.52-2.37-1.43c-1.94-3.71-5.73-6.02-9.91-6.02
												c-1.47,0-2.67-1.19-2.67-2.67c0-1.47,1.19-2.67,2.67-2.67c6.16,0,11.77,3.4,14.63,8.88c0.68,1.31,0.18,2.92-1.13,3.6
												C198.7,23.16,198.28,23.26,197.86,23.26z"/>
										</g>
										<g>
											<path class="st8" d="M177.43,18.45c-0.82,0-1.63-0.38-2.15-1.09c-0.87-1.19-0.61-2.86,0.58-3.73l0.12-0.09
												c1.2-0.86,2.86-0.58,3.72,0.61c0.86,1.2,0.58,2.86-0.61,3.72l-0.08,0.06C178.53,18.28,177.98,18.45,177.43,18.45z"/>
										</g>
									</g>
									<path class="st9" d="M190.51,43.09c-1.39,0.51-2.9-0.35-3.16-1.81l-1.51-8.53c-0.65-3.68-3.85-6.36-7.59-6.36h-12.41
										c-0.01,0.2-0.02,0.4-0.02,0.6v1.83h11.77c2.88,0,5.34,2.06,5.84,4.9l1.49,8.47c0.53,3.02,3.76,4.75,6.57,3.52l12.43-5.45
										c0.86-0.38,1.42-1.23,1.42-2.17V37.6L190.51,43.09z"/>
								</g>
							</g>
						</g>
						<g>
							<g>
								<path class="st6" d="M189.3,112.14l3.63-15.89l-5.22-28.58c-0.62-3.4,1-6.82,4.03-8.49l11.99-6.62
									c1.57-0.87,3.51-0.67,4.88,0.5v0c9.88,8.47,16.06,20.46,17.22,33.42l2.26,25.11c0.25,2.75-1.92,5.12-4.68,5.12l0,0h-30.49
									l0,0C190.54,116.7,188.76,114.48,189.3,112.14z"/>
								<path class="st4" d="M207.38,64.44l0.1,0.39c1.26,4.85,0.34,10.02-2.53,14.14l-12.02,17.29l-2.44-13.39L207.38,64.44z"/>
							</g>
							<g>
								<g>
									<polygon class="st6" points="190.62,55.96 187.32,57.66 190.62,61.22 191.74,59.18 									"/>
									<polygon class="st4" points="187.32,57.66 186.58,63.74 189.97,60.52 									"/>
								</g>
								<polygon class="st20" points="205.68,52.03 202.18,48.95 189.71,55.76 191.42,62.97 								"/>
							</g>
						</g>
						<g>
							<g>
								<path class="st17" d="M135.28,102.62h-9.3c-1.73,0-3.13,1.4-3.13,3.13v5.81c0,1.73,1.4,3.13,3.13,3.13h7.53v-2.31l0,0
									c2.27,0,4.44-0.9,6.05-2.51l1.13-1.13L135.28,102.62z"/>
								<polygon class="st17" points="135.28,102.62 140.68,108.75 163.91,103.35 160.69,94.76 								"/>
								<polygon class="st2" points="160.69,94.76 159.56,95.11 159.19,104.44 163.91,103.35 								"/>
								<path class="st6" d="M205.16,61.53L205.16,61.53c-3.06-2.4-7.47-1.97-10.02,0.97l-24.09,27.94l-4.35,1.47l4.05,10.82
									l2.28-0.49c3.61-0.78,6.91-2.63,9.46-5.31l23.45-24.64C208.9,69.17,208.54,64.18,205.16,61.53z"/>
								<path class="st4" d="M170.87,103.08l-0.13-0.34l-4.05-10.82l-0.4-1.07c-0.23-0.61-0.91-0.92-1.53-0.69l-3.98,1.49
									c-0.61,0.23-0.92,0.91-0.69,1.53l0.32,0.87l3.78,10.12l0.47,1.25c0.23,0.61,0.91,0.92,1.53,0.69l3.98-1.49
									C170.79,104.37,171.1,103.69,170.87,103.08z"/>
								<path class="st20" d="M196.67,63.67c2.24-2.6,5.98-3.3,9.01-1.69c-0.16-0.16-0.33-0.31-0.52-0.45l0,0
									c-3.06-2.4-7.47-1.97-10.02,0.97l-24.09,27.94l-4.35,1.47l0.65,1.74l4.89-1.65L196.67,63.67z"/>
							</g>
							<g>
								<path class="st7" d="M136.56,112.37c0.71-1.29,2.33-1.77,3.62-1.06l0.01,0.01c-0.05-0.03-0.1-0.08-0.16-0.11l-5.96-3.27
									c-1.29-0.71-2.91-0.23-3.62,1.06c-0.71,1.29-0.23,2.91,1.06,3.62l5.95,3.26C136.29,115.13,135.88,113.6,136.56,112.37z"/>
								<path class="st11" d="M138.75,116.22c0.94,0,1.86-0.5,2.34-1.39c0.68-1.23,0.26-2.76-0.9-3.51l-0.01-0.01
									c-1.29-0.71-2.91-0.23-3.62,1.06c-0.68,1.23-0.26,2.76,0.9,3.51l0.01,0.01C137.88,116.11,138.31,116.22,138.75,116.22z"/>
							</g>
						</g>
					</g>
				</g>
			</g>
		</g>
		<g>
			<linearGradient id="SVGID_1_" gradientUnits="userSpaceOnUse" x1="112.3062" y1="166.454" x2="209.5984" y2="166.454">
				<stop  offset="0" style="stop-color:#46CCD1;stop-opacity:0"/>
				<stop  offset="0.5443" style="stop-color:#46CCD1"/>
				<stop  offset="0.9884" style="stop-color:#46CCD1;stop-opacity:0"/>
			</linearGradient>
			<rect x="112.31" y="165.5" class="st21" width="97.29" height="1.92"/>
			<linearGradient id="SVGID_2_" gradientUnits="userSpaceOnUse" x1="123.8022" y1="170.2705" x2="221.0944" y2="170.2705">
				<stop  offset="0" style="stop-color:#46CCD1;stop-opacity:0"/>
				<stop  offset="0.5443" style="stop-color:#46CCD1"/>
				<stop  offset="0.9884" style="stop-color:#46CCD1;stop-opacity:0"/>
			</linearGradient>
			<rect x="123.8" y="169.31" class="st22" width="97.29" height="1.92"/>
			<linearGradient id="SVGID_3_" gradientUnits="userSpaceOnUse" x1="124.8381" y1="108.2161" x2="222.1303" y2="108.2161">
				<stop  offset="0" style="stop-color:#46CCD1;stop-opacity:0"/>
				<stop  offset="0.5443" style="stop-color:#46CCD1"/>
				<stop  offset="0.9884" style="stop-color:#46CCD1;stop-opacity:0"/>
			</linearGradient>
			<rect x="124.84" y="107.26" class="st23" width="97.29" height="1.92"/>
			<linearGradient id="SVGID_4_" gradientUnits="userSpaceOnUse" x1="130.2304" y1="104.4295" x2="263.7459" y2="104.4295">
				<stop  offset="0" style="stop-color:#46CCD1;stop-opacity:0"/>
				<stop  offset="0.5443" style="stop-color:#46CCD1"/>
				<stop  offset="0.9884" style="stop-color:#46CCD1;stop-opacity:0"/>
			</linearGradient>
			<rect x="130.23" y="103.47" class="st24" width="133.52" height="1.92"/>
			<linearGradient id="SVGID_5_" gradientUnits="userSpaceOnUse" x1="115.3212" y1="100.2456" x2="248.8366" y2="100.2456">
				<stop  offset="0" style="stop-color:#46CCD1;stop-opacity:0"/>
				<stop  offset="0.5443" style="stop-color:#46CCD1"/>
				<stop  offset="0.9884" style="stop-color:#46CCD1;stop-opacity:0"/>
			</linearGradient>
			<rect x="115.32" y="99.29" class="st25" width="133.52" height="1.92"/>
			<linearGradient id="SVGID_6_" gradientUnits="userSpaceOnUse" x1="278.3754" y1="165.668" x2="375.6677" y2="165.668">
				<stop  offset="0" style="stop-color:#46CCD1;stop-opacity:0"/>
				<stop  offset="0.5443" style="stop-color:#46CCD1"/>
				<stop  offset="0.9884" style="stop-color:#46CCD1;stop-opacity:0"/>
			</linearGradient>
			<rect x="278.38" y="164.71" class="st26" width="97.29" height="1.92"/>
			<linearGradient id="SVGID_7_" gradientUnits="userSpaceOnUse" x1="255.4885" y1="161.8815" x2="389.0039" y2="161.8815">
				<stop  offset="0" style="stop-color:#46CCD1;stop-opacity:0"/>
				<stop  offset="0.5443" style="stop-color:#46CCD1"/>
				<stop  offset="0.9884" style="stop-color:#46CCD1;stop-opacity:0"/>
			</linearGradient>
			<rect x="255.49" y="160.92" class="st27" width="133.52" height="1.92"/>
			<linearGradient id="SVGID_8_" gradientUnits="userSpaceOnUse" x1="240.5791" y1="157.6975" x2="374.0947" y2="157.6975">
				<stop  offset="0" style="stop-color:#46CCD1;stop-opacity:0"/>
				<stop  offset="0.5443" style="stop-color:#46CCD1"/>
				<stop  offset="0.9884" style="stop-color:#46CCD1;stop-opacity:0"/>
			</linearGradient>
			<rect x="240.58" y="156.74" class="st28" width="133.52" height="1.92"/>
		</g>
	</g>
</g>
</svg>
