<?xml version="1.0" encoding="utf-8"?>
<!-- Generator: Adobe Illustrator 25.1.0, SVG Export Plug-In . SVG Version: 6.00 Build 0)  -->
<svg version="1.1" id="Layer_1" xmlns="http://www.w3.org/2000/svg" xmlns:xlink="http://www.w3.org/1999/xlink" x="0px" y="0px"
	 viewBox="0 0 1920 1131" style="enable-background:new 0 0 1920 1131;" xml:space="preserve">
<style type="text/css">
	.st0{fill:#FBBE36;}
</style>
<path class="st0" d="M313.73,142v768.62c8.28-0.31,16.11-0.27,16.11,0.65c0,8.82,35.13-4.26,35.13,0.19c0,9.6,35.31-1.21,35.31-1.94
	c0-2.28,34.34,3.37,34.34,9.33c0,2.71,35.54-1.98,35.54-4.59c0,8.35,33.74,23.3,33.74,16.32c0,3.18,35.33,7.87,35.33-2.17
	c0,5.2,36.63-0.46,36.63-17.3c0,5.24,33.94,8.94,33.94,13.97c0-8.95,36.08,4.73,36.08,13c0-18.66,37.53-12.95,37.53-10.58
	c0-3.43,36.29-0.81,36.29-5.28c0,11.11,35.62-5.33,35.62-4.45c0-13.76,36.74-6.89,36.74,4.83c0,5.3,33.64,1.16,33.64,5.04
	c0-1.46,30.47,6.94,30.47-0.1c0-2.09,32.33-23.34,32.33-12.91c0-4.3,31.49-16.09,31.49,5.37c0,7.56,33.43-3.28,33.43-11.03
	c0,7.55,29.57-0.73,29.57-10.97c0-21.53,38.22,10.26,38.22-1.93c0-2.4,34.97,16.02,34.97,11.9c0,13.3,46.19,2.96,46.19,21.02
	c0-3.17,39.83,2.48,39.83,8.6c0-0.61,30.91-41.41,30.91-32.24c0-7.68,41.19,32.87,41.19,16.15c0,1.4,34.72,1.92,34.72,3.96
	c0,12.67,35.92-1.86,35.92-9.15c0,0.29,37.4-11.91,37.4-6.52c0-4.63,38.34,16.43,38.34,14.75c0,15.86,36.01-2.8,36.01-7.84
	c0-10.81,30.72,3.51,37.44-4.42c0.95-1.12,2.52-1.53,3.92-1.11c8.57,2.6,35.15-5.41,35.15,8.06c0,11.37,28.17,9.84,28.17,11.79
	c0,10.38,41.42-17.03,34.63-11.03c17-15,25.08,7.14,25.08,16.55c0,1.3,33.7-8.69,44.39-7.08V142H313.73z"/>
</svg>
